<?xml version="1.0" encoding="utf-8" standalone="no"?>
<!DOCTYPE svg PUBLIC "-//W3C//DTD SVG 1.1//EN"
  "http://www.w3.org/Graphics/SVG/1.1/DTD/svg11.dtd">
<!-- Created with matplotlib (https://matplotlib.org/) -->
<svg height="193.188338pt" version="1.1" viewBox="0 0 178.26625 193.188338" width="178.26625pt" xmlns="http://www.w3.org/2000/svg" xmlns:xlink="http://www.w3.org/1999/xlink">
 <defs>
  <style type="text/css">
*{stroke-linecap:butt;stroke-linejoin:round;}
  </style>
 </defs>
 <g id="figure_1">
  <g id="patch_1">
   <path d="M 0 193.188338 
L 178.26625 193.188338 
L 178.26625 0 
L 0 0 
z
" style="fill:#ffffff;"/>
  </g>
  <g id="axes_1">
   <g id="patch_2">
    <path d="M 34.98625 131.466096 
L 171.06625 131.466096 
L 171.06625 9.066096 
L 34.98625 9.066096 
z
" style="fill:#ffffff;"/>
   </g>
   <g id="matplotlib.axis_1">
    <g id="xtick_1">
     <g id="line2d_1">
      <defs>
       <path d="M 0 0 
L 0 3.5 
" id="mcd41949958" style="stroke:#000000;stroke-width:0.8;"/>
      </defs>
      <g>
       <use style="stroke:#000000;stroke-width:0.8;" x="44.70625" xlink:href="#mcd41949958" y="131.466096"/>
      </g>
     </g>
     <g id="text_1">
      <!-- O–Li$_6$ -->
      <defs>
       <path d="M 38.578125 73.6875 
Q 57.5625 73.6875 66.703125 61.46875 
Q 73.828125 51.953125 73.828125 37.109375 
Q 73.828125 21.046875 65.671875 10.40625 
Q 56.109375 -2.09375 38.375 -2.09375 
Q 21.828125 -2.09375 12.359375 8.84375 
Q 3.90625 19.390625 3.90625 35.5 
Q 3.90625 50.046875 11.140625 60.40625 
Q 20.40625 73.6875 38.578125 73.6875 
z
M 39.546875 6.59375 
Q 52.390625 6.59375 58.125 15.796875 
Q 63.875 25 63.875 36.96875 
Q 63.875 49.609375 57.25 57.328125 
Q 50.640625 65.046875 39.15625 65.046875 
Q 28.03125 65.046875 21 57.390625 
Q 13.96875 49.75 13.96875 34.859375 
Q 13.96875 22.953125 20 14.765625 
Q 26.03125 6.59375 39.546875 6.59375 
z
M 38.875 73.6875 
z
" id="Helvetica-79"/>
       <path d="M -0.25 31.25 
L 55.765625 31.25 
L 55.765625 24.078125 
L -0.25 24.078125 
z
" id="Helvetica-8211"/>
       <path d="M 7.625 71.734375 
L 17.328125 71.734375 
L 17.328125 8.546875 
L 53.65625 8.546875 
L 53.65625 0 
L 7.625 0 
z
" id="Helvetica-76"/>
       <path d="M 6.453125 52.046875 
L 15.375 52.046875 
L 15.375 0 
L 6.453125 0 
z
M 6.453125 71.734375 
L 15.375 71.734375 
L 15.375 61.765625 
L 6.453125 61.765625 
z
" id="Helvetica-105"/>
       <path d="M 29.25 70.21875 
Q 40.96875 70.21875 45.578125 64.140625 
Q 50.203125 58.0625 50.203125 51.609375 
L 41.5 51.609375 
Q 40.71875 55.765625 39.015625 58.109375 
Q 35.84375 62.5 29.390625 62.5 
Q 22.015625 62.5 17.671875 55.6875 
Q 13.328125 48.875 12.84375 36.1875 
Q 15.875 40.625 20.453125 42.828125 
Q 24.65625 44.78125 29.828125 44.78125 
Q 38.625 44.78125 45.15625 39.15625 
Q 51.703125 33.546875 51.703125 22.40625 
Q 51.703125 12.890625 45.5 5.53125 
Q 39.3125 -1.8125 27.828125 -1.8125 
Q 18.015625 -1.8125 10.890625 5.640625 
Q 3.765625 13.09375 3.765625 30.71875 
Q 3.765625 43.75 6.9375 52.828125 
Q 13.03125 70.21875 29.25 70.21875 
z
M 28.609375 6 
Q 35.546875 6 38.984375 10.65625 
Q 42.4375 15.328125 42.4375 21.6875 
Q 42.4375 27.046875 39.359375 31.90625 
Q 36.28125 36.765625 28.171875 36.765625 
Q 22.515625 36.765625 18.234375 33 
Q 13.96875 29.25 13.96875 21.6875 
Q 13.96875 15.046875 17.84375 10.515625 
Q 21.734375 6 28.609375 6 
z
" id="Helvetica-54"/>
      </defs>
      <g transform="translate(44.042911 159.579007)rotate(-75)scale(0.08 -0.08)">
       <use transform="translate(0 0.3125)" xlink:href="#Helvetica-79"/>
       <use transform="translate(77.783203 0.3125)" xlink:href="#Helvetica-8211"/>
       <use transform="translate(133.398438 0.3125)" xlink:href="#Helvetica-76"/>
       <use transform="translate(189.013672 0.3125)" xlink:href="#Helvetica-105"/>
       <use transform="translate(212.145664 -15.376563)scale(0.7)" xlink:href="#Helvetica-54"/>
      </g>
     </g>
    </g>
    <g id="xtick_2">
     <g id="line2d_2">
      <g>
       <use style="stroke:#000000;stroke-width:0.8;" x="64.14625" xlink:href="#mcd41949958" y="131.466096"/>
      </g>
     </g>
     <g id="text_2">
      <!-- O–Li$_5$TM -->
      <defs>
       <path d="M 12.359375 17.828125 
Q 13.234375 10.296875 19.34375 7.421875 
Q 22.46875 5.953125 26.5625 5.953125 
Q 34.375 5.953125 38.125 10.9375 
Q 41.890625 15.921875 41.890625 21.96875 
Q 41.890625 29.296875 37.421875 33.296875 
Q 32.953125 37.3125 26.703125 37.3125 
Q 22.171875 37.3125 18.921875 35.546875 
Q 15.671875 33.796875 13.375 30.671875 
L 5.765625 31.109375 
L 11.078125 68.75 
L 47.40625 68.75 
L 47.40625 60.25 
L 17.671875 60.25 
L 14.703125 40.828125 
Q 17.140625 42.671875 19.34375 43.609375 
Q 23.25 45.21875 28.375 45.21875 
Q 37.984375 45.21875 44.671875 39.015625 
Q 51.375 32.8125 51.375 23.296875 
Q 51.375 13.375 45.234375 5.796875 
Q 39.109375 -1.765625 25.6875 -1.765625 
Q 17.140625 -1.765625 10.5625 3.046875 
Q 4 7.859375 3.21875 17.828125 
z
" id="Helvetica-53"/>
       <path d="M 59.8125 71.734375 
L 59.8125 63.1875 
L 35.640625 63.1875 
L 35.640625 0 
L 25.78125 0 
L 25.78125 63.1875 
L 1.609375 63.1875 
L 1.609375 71.734375 
z
" id="Helvetica-84"/>
       <path d="M 7.375 71.734375 
L 21.296875 71.734375 
L 41.890625 11.078125 
L 62.359375 71.734375 
L 76.125 71.734375 
L 76.125 0 
L 66.890625 0 
L 66.890625 42.328125 
Q 66.890625 44.53125 66.984375 49.609375 
Q 67.09375 54.6875 67.09375 60.5 
L 46.625 0 
L 37.015625 0 
L 16.40625 60.5 
L 16.40625 58.296875 
Q 16.40625 55.671875 16.53125 50.265625 
Q 16.65625 44.875 16.65625 42.328125 
L 16.65625 0 
L 7.375 0 
z
" id="Helvetica-77"/>
      </defs>
      <g transform="translate(61.981761 170.783746)rotate(-75)scale(0.08 -0.08)">
       <use transform="translate(0 0.3125)" xlink:href="#Helvetica-79"/>
       <use transform="translate(77.783203 0.3125)" xlink:href="#Helvetica-8211"/>
       <use transform="translate(133.398438 0.3125)" xlink:href="#Helvetica-76"/>
       <use transform="translate(189.013672 0.3125)" xlink:href="#Helvetica-105"/>
       <use transform="translate(212.145664 -15.376563)scale(0.7)" xlink:href="#Helvetica-53"/>
       <use transform="translate(253.691172 0.3125)" xlink:href="#Helvetica-84"/>
       <use transform="translate(314.775156 0.3125)" xlink:href="#Helvetica-77"/>
      </g>
     </g>
    </g>
    <g id="xtick_3">
     <g id="line2d_3">
      <g>
       <use style="stroke:#000000;stroke-width:0.8;" x="83.58625" xlink:href="#mcd41949958" y="131.466096"/>
      </g>
     </g>
     <g id="text_3">
      <!-- O–Li$_4$TM$_2$ -->
      <defs>
       <path d="M 33.0625 24.75 
L 33.0625 56.453125 
L 10.640625 24.75 
z
M 33.203125 0 
L 33.203125 17.09375 
L 2.546875 17.09375 
L 2.546875 25.6875 
L 34.578125 70.125 
L 42 70.125 
L 42 24.75 
L 52.296875 24.75 
L 52.296875 17.09375 
L 42 17.09375 
L 42 0 
z
" id="Helvetica-52"/>
       <path d="M 3.125 0 
Q 3.609375 9.03125 6.859375 15.71875 
Q 10.109375 22.40625 19.53125 27.875 
L 28.90625 33.296875 
Q 35.203125 36.96875 37.75 39.546875 
Q 41.75 43.609375 41.75 48.828125 
Q 41.75 54.9375 38.078125 58.515625 
Q 34.421875 62.109375 28.328125 62.109375 
Q 19.28125 62.109375 15.828125 55.28125 
Q 13.96875 51.609375 13.765625 45.125 
L 4.828125 45.125 
Q 4.984375 54.25 8.203125 60.015625 
Q 13.921875 70.171875 28.375 70.171875 
Q 40.375 70.171875 45.921875 63.671875 
Q 51.46875 57.171875 51.46875 49.21875 
Q 51.46875 40.828125 45.5625 34.859375 
Q 42.140625 31.390625 33.296875 26.46875 
L 26.609375 22.75 
Q 21.828125 20.125 19.09375 17.71875 
Q 14.203125 13.484375 12.9375 8.296875 
L 51.125 8.296875 
L 51.125 0 
L 3.125 0 
z
" id="Helvetica-50"/>
      </defs>
      <g transform="translate(80.986945 174.029257)rotate(-75)scale(0.08 -0.08)">
       <use transform="translate(0 0.3125)" xlink:href="#Helvetica-79"/>
       <use transform="translate(77.783203 0.3125)" xlink:href="#Helvetica-8211"/>
       <use transform="translate(133.398438 0.3125)" xlink:href="#Helvetica-76"/>
       <use transform="translate(189.013672 0.3125)" xlink:href="#Helvetica-105"/>
       <use transform="translate(212.145664 -15.376563)scale(0.7)" xlink:href="#Helvetica-52"/>
       <use transform="translate(253.691172 0.3125)" xlink:href="#Helvetica-84"/>
       <use transform="translate(314.775156 0.3125)" xlink:href="#Helvetica-77"/>
       <use transform="translate(398.991133 -15.376563)scale(0.7)" xlink:href="#Helvetica-50"/>
      </g>
     </g>
    </g>
    <g id="xtick_4">
     <g id="line2d_4">
      <g>
       <use style="stroke:#000000;stroke-width:0.8;" x="103.02625" xlink:href="#mcd41949958" y="131.466096"/>
      </g>
     </g>
     <g id="text_4">
      <!-- O–Li$_3$TM$_3$ -->
      <defs>
       <path d="M 25.984375 -1.90625 
Q 13.578125 -1.90625 7.984375 4.90625 
Q 2.390625 11.71875 2.390625 21.484375 
L 11.578125 21.484375 
Q 12.15625 14.703125 14.109375 11.625 
Q 17.53125 6.109375 26.46875 6.109375 
Q 33.40625 6.109375 37.59375 9.8125 
Q 41.796875 13.53125 41.796875 19.390625 
Q 41.796875 26.609375 37.375 29.484375 
Q 32.953125 32.375 25.09375 32.375 
Q 24.21875 32.375 23.3125 32.34375 
Q 22.40625 32.328125 21.484375 32.28125 
L 21.484375 40.046875 
Q 22.859375 39.890625 23.78125 39.84375 
Q 24.703125 39.796875 25.78125 39.796875 
Q 30.71875 39.796875 33.890625 41.359375 
Q 39.453125 44.09375 39.453125 51.125 
Q 39.453125 56.34375 35.734375 59.171875 
Q 32.03125 62.015625 27.09375 62.015625 
Q 18.3125 62.015625 14.9375 56.15625 
Q 13.09375 52.9375 12.84375 46.96875 
L 4.15625 46.96875 
Q 4.15625 54.78125 7.28125 60.25 
Q 12.640625 70.015625 26.171875 70.015625 
Q 36.859375 70.015625 42.71875 65.25 
Q 48.578125 60.5 48.578125 51.46875 
Q 48.578125 45.015625 45.125 41.015625 
Q 42.96875 38.53125 39.546875 37.109375 
Q 45.0625 35.59375 48.15625 31.265625 
Q 51.265625 26.953125 51.265625 20.703125 
Q 51.265625 10.6875 44.671875 4.390625 
Q 38.09375 -1.90625 25.984375 -1.90625 
z
" id="Helvetica-51"/>
      </defs>
      <g transform="translate(100.426945 174.029257)rotate(-75)scale(0.08 -0.08)">
       <use transform="translate(0 0.3125)" xlink:href="#Helvetica-79"/>
       <use transform="translate(77.783203 0.3125)" xlink:href="#Helvetica-8211"/>
       <use transform="translate(133.398438 0.3125)" xlink:href="#Helvetica-76"/>
       <use transform="translate(189.013672 0.3125)" xlink:href="#Helvetica-105"/>
       <use transform="translate(212.145664 -15.376563)scale(0.7)" xlink:href="#Helvetica-51"/>
       <use transform="translate(253.691172 0.3125)" xlink:href="#Helvetica-84"/>
       <use transform="translate(314.775156 0.3125)" xlink:href="#Helvetica-77"/>
       <use transform="translate(398.991133 -15.376563)scale(0.7)" xlink:href="#Helvetica-51"/>
      </g>
     </g>
    </g>
    <g id="xtick_5">
     <g id="line2d_5">
      <g>
       <use style="stroke:#000000;stroke-width:0.8;" x="122.46625" xlink:href="#mcd41949958" y="131.466096"/>
      </g>
     </g>
     <g id="text_5">
      <!-- O–Li$_2$TM$_4$ -->
      <g transform="translate(119.866945 174.029257)rotate(-75)scale(0.08 -0.08)">
       <use transform="translate(0 0.3125)" xlink:href="#Helvetica-79"/>
       <use transform="translate(77.783203 0.3125)" xlink:href="#Helvetica-8211"/>
       <use transform="translate(133.398438 0.3125)" xlink:href="#Helvetica-76"/>
       <use transform="translate(189.013672 0.3125)" xlink:href="#Helvetica-105"/>
       <use transform="translate(212.145664 -15.376563)scale(0.7)" xlink:href="#Helvetica-50"/>
       <use transform="translate(253.691172 0.3125)" xlink:href="#Helvetica-84"/>
       <use transform="translate(314.775156 0.3125)" xlink:href="#Helvetica-77"/>
       <use transform="translate(398.991133 -15.376563)scale(0.7)" xlink:href="#Helvetica-52"/>
      </g>
     </g>
    </g>
    <g id="xtick_6">
     <g id="line2d_6">
      <g>
       <use style="stroke:#000000;stroke-width:0.8;" x="141.90625" xlink:href="#mcd41949958" y="131.466096"/>
      </g>
     </g>
     <g id="text_6">
      <!-- O–Li$_1$TM$_5$ -->
      <defs>
       <path d="M 9.578125 49.515625 
L 9.578125 56.25 
Q 19.09375 57.171875 22.84375 59.34375 
Q 26.609375 61.53125 28.46875 69.625 
L 35.40625 69.625 
L 35.40625 0 
L 26.03125 0 
L 26.03125 49.515625 
z
" id="Helvetica-49"/>
      </defs>
      <g transform="translate(139.306945 174.029257)rotate(-75)scale(0.08 -0.08)">
       <use transform="translate(0 0.3125)" xlink:href="#Helvetica-79"/>
       <use transform="translate(77.783203 0.3125)" xlink:href="#Helvetica-8211"/>
       <use transform="translate(133.398438 0.3125)" xlink:href="#Helvetica-76"/>
       <use transform="translate(189.013672 0.3125)" xlink:href="#Helvetica-105"/>
       <use transform="translate(212.145664 -15.376563)scale(0.7)" xlink:href="#Helvetica-49"/>
       <use transform="translate(253.691172 0.3125)" xlink:href="#Helvetica-84"/>
       <use transform="translate(314.775156 0.3125)" xlink:href="#Helvetica-77"/>
       <use transform="translate(398.991133 -15.376563)scale(0.7)" xlink:href="#Helvetica-53"/>
      </g>
     </g>
    </g>
    <g id="xtick_7">
     <g id="line2d_7">
      <g>
       <use style="stroke:#000000;stroke-width:0.8;" x="161.34625" xlink:href="#mcd41949958" y="131.466096"/>
      </g>
     </g>
     <g id="text_7">
      <!-- O–Li$_0$TM$_6$ -->
      <defs>
       <path d="M 27.046875 69.921875 
Q 40.625 69.921875 46.6875 58.734375 
Q 51.375 50.09375 51.375 35.0625 
Q 51.375 20.796875 47.125 11.46875 
Q 40.96875 -1.90625 27 -1.90625 
Q 14.40625 -1.90625 8.25 9.03125 
Q 3.125 18.171875 3.125 33.546875 
Q 3.125 45.453125 6.203125 54 
Q 11.96875 69.921875 27.046875 69.921875 
z
M 26.953125 6.109375 
Q 33.796875 6.109375 37.84375 12.15625 
Q 41.890625 18.21875 41.890625 34.71875 
Q 41.890625 46.625 38.953125 54.3125 
Q 36.03125 62.015625 27.59375 62.015625 
Q 19.828125 62.015625 16.234375 54.703125 
Q 12.640625 47.40625 12.640625 33.203125 
Q 12.640625 22.515625 14.9375 16.015625 
Q 18.453125 6.109375 26.953125 6.109375 
z
" id="Helvetica-48"/>
      </defs>
      <g transform="translate(158.746945 174.029257)rotate(-75)scale(0.08 -0.08)">
       <use transform="translate(0 0.3125)" xlink:href="#Helvetica-79"/>
       <use transform="translate(77.783203 0.3125)" xlink:href="#Helvetica-8211"/>
       <use transform="translate(133.398438 0.3125)" xlink:href="#Helvetica-76"/>
       <use transform="translate(189.013672 0.3125)" xlink:href="#Helvetica-105"/>
       <use transform="translate(212.145664 -15.376563)scale(0.7)" xlink:href="#Helvetica-48"/>
       <use transform="translate(253.691172 0.3125)" xlink:href="#Helvetica-84"/>
       <use transform="translate(314.775156 0.3125)" xlink:href="#Helvetica-77"/>
       <use transform="translate(398.991133 -15.376563)scale(0.7)" xlink:href="#Helvetica-54"/>
      </g>
     </g>
    </g>
    <g id="text_8">
     <!-- O–{Li,Mn,Ni} sites -->
     <defs>
      <path d="M 19.09375 -0.25 
Q 19.09375 -7.765625 22.890625 -10.953125 
Q 26.703125 -14.15625 31.25 -14.703125 
L 31.25 -20.40625 
Q 22.5625 -19.53125 16.875 -15.296875 
Q 11.1875 -11.078125 11.1875 -1.421875 
L 11.1875 8.640625 
Q 11.1875 13.96875 9.515625 17.046875 
Q 6.5 22.65625 -2.09375 23.578125 
L -2.09375 29.15625 
Q 6.546875 30.171875 9.515625 35.546875 
Q 11.1875 38.53125 11.1875 44.09375 
L 11.1875 52.046875 
Q 11.1875 61.234375 15.15625 66.59375 
Q 19.140625 71.96875 31.25 73 
L 31.25 67.4375 
Q 23.390625 66.75 20.609375 60.5 
Q 19.09375 57.078125 19.09375 51.03125 
L 19.09375 45.5625 
Q 19.09375 38.234375 17.28125 34.328125 
Q 14.015625 27.25 4.59375 26.375 
Q 13.96875 25.53125 17.28125 18.171875 
Q 19.09375 14.109375 19.09375 7.125 
z
" id="Helvetica-123"/>
      <path d="M 8.296875 -10.203125 
Q 11.671875 -9.625 13.03125 -5.46875 
Q 13.765625 -3.265625 13.765625 -1.21875 
Q 13.765625 -0.875 13.734375 -0.609375 
Q 13.71875 -0.34375 13.625 0 
L 8.296875 0 
L 8.296875 10.640625 
L 18.75 10.640625 
L 18.75 0.78125 
Q 18.75 -5.03125 16.40625 -9.421875 
Q 14.0625 -13.8125 8.296875 -14.84375 
z
" id="Helvetica-44"/>
      <path d="M 6.453125 52.296875 
L 14.796875 52.296875 
L 14.796875 44.875 
Q 18.5 49.46875 22.65625 51.46875 
Q 26.8125 53.46875 31.890625 53.46875 
Q 43.015625 53.46875 46.921875 45.703125 
Q 49.078125 41.453125 49.078125 33.546875 
L 49.078125 0 
L 40.140625 0 
L 40.140625 32.953125 
Q 40.140625 37.75 38.71875 40.671875 
Q 36.375 45.5625 30.21875 45.5625 
Q 27.09375 45.5625 25.09375 44.921875 
Q 21.484375 43.84375 18.75 40.625 
Q 16.546875 38.03125 15.890625 35.265625 
Q 15.234375 32.515625 15.234375 27.390625 
L 15.234375 0 
L 6.453125 0 
z
M 27.09375 53.5625 
z
" id="Helvetica-110"/>
      <path d="M 7.625 71.734375 
L 19.09375 71.734375 
L 55.328125 13.625 
L 55.328125 71.734375 
L 64.546875 71.734375 
L 64.546875 0 
L 53.65625 0 
L 16.890625 58.0625 
L 16.890625 0 
L 7.625 0 
z
M 35.453125 71.734375 
z
" id="Helvetica-78"/>
      <path d="M 28.65625 26.375 
Q 19.28125 27.25 16.015625 34.28125 
Q 14.203125 38.1875 14.203125 45.5625 
L 14.203125 51.03125 
Q 14.203125 57.46875 12.703125 60.796875 
Q 9.96875 66.75 2.046875 67.4375 
L 2.046875 73 
Q 14.65625 71.96875 19.140625 65.1875 
Q 22.078125 60.84375 22.078125 52.046875 
L 22.078125 44.09375 
Q 22.078125 38.625 23.734375 35.59375 
Q 26.765625 30.078125 35.40625 29.15625 
L 35.40625 23.578125 
Q 26.8125 22.703125 23.734375 17 
Q 22.078125 13.875 22.078125 8.640625 
L 22.078125 -1.421875 
Q 22.078125 -11.28125 16.375 -15.375 
Q 10.6875 -19.484375 2.046875 -20.40625 
L 2.046875 -14.703125 
Q 7.28125 -14.015625 10.734375 -10.515625 
Q 14.203125 -7.03125 14.203125 -0.25 
L 14.203125 7.125 
Q 14.203125 14.15625 16.015625 18.171875 
Q 19.34375 25.53125 28.65625 26.375 
z
" id="Helvetica-125"/>
      <path id="Helvetica-32"/>
      <path d="M 11.671875 16.40625 
Q 12.0625 12.015625 13.875 9.671875 
Q 17.1875 5.421875 25.390625 5.421875 
Q 30.28125 5.421875 33.984375 7.546875 
Q 37.703125 9.671875 37.703125 14.109375 
Q 37.703125 17.484375 34.71875 19.234375 
Q 32.8125 20.3125 27.203125 21.734375 
L 20.21875 23.484375 
Q 13.53125 25.140625 10.359375 27.203125 
Q 4.6875 30.765625 4.6875 37.0625 
Q 4.6875 44.484375 10.03125 49.0625 
Q 15.375 53.65625 24.421875 53.65625 
Q 36.234375 53.65625 41.453125 46.734375 
Q 44.734375 42.328125 44.625 37.25 
L 36.328125 37.25 
Q 36.078125 40.234375 34.234375 42.671875 
Q 31.203125 46.140625 23.734375 46.140625 
Q 18.75 46.140625 16.1875 44.234375 
Q 13.625 42.328125 13.625 39.203125 
Q 13.625 35.796875 17 33.734375 
Q 18.953125 32.515625 22.75 31.59375 
L 28.5625 30.171875 
Q 38.03125 27.875 41.265625 25.734375 
Q 46.390625 22.359375 46.390625 15.140625 
Q 46.390625 8.15625 41.09375 3.078125 
Q 35.796875 -2 24.953125 -2 
Q 13.28125 -2 8.421875 3.296875 
Q 3.5625 8.59375 3.21875 16.40625 
z
M 24.65625 53.5625 
z
" id="Helvetica-115"/>
      <path d="M 8.203125 66.890625 
L 17.09375 66.890625 
L 17.09375 52.296875 
L 25.4375 52.296875 
L 25.4375 45.125 
L 17.09375 45.125 
L 17.09375 10.984375 
Q 17.09375 8.25 18.953125 7.328125 
Q 19.96875 6.78125 22.359375 6.78125 
Q 23 6.78125 23.734375 6.8125 
Q 24.46875 6.84375 25.4375 6.9375 
L 25.4375 0 
Q 23.921875 -0.4375 22.28125 -0.625 
Q 20.65625 -0.828125 18.75 -0.828125 
Q 12.59375 -0.828125 10.390625 2.3125 
Q 8.203125 5.46875 8.203125 10.5 
L 8.203125 45.125 
L 1.125 45.125 
L 1.125 52.296875 
L 8.203125 52.296875 
z
" id="Helvetica-116"/>
      <path d="M 28.21875 53.46875 
Q 33.796875 53.46875 39.015625 50.859375 
Q 44.234375 48.25 46.96875 44.09375 
Q 49.609375 40.140625 50.484375 34.859375 
Q 51.265625 31.25 51.265625 23.34375 
L 12.9375 23.34375 
Q 13.1875 15.375 16.703125 10.5625 
Q 20.21875 5.765625 27.59375 5.765625 
Q 34.46875 5.765625 38.578125 10.296875 
Q 40.921875 12.9375 41.890625 16.40625 
L 50.53125 16.40625 
Q 50.203125 13.53125 48.265625 9.984375 
Q 46.34375 6.453125 43.953125 4.203125 
Q 39.9375 0.296875 34.03125 -1.078125 
Q 30.859375 -1.859375 26.859375 -1.859375 
Q 17.09375 -1.859375 10.296875 5.25 
Q 3.515625 12.359375 3.515625 25.140625 
Q 3.515625 37.75 10.34375 45.609375 
Q 17.1875 53.46875 28.21875 53.46875 
z
M 42.234375 30.328125 
Q 41.703125 36.03125 39.75 39.453125 
Q 36.140625 45.796875 27.6875 45.796875 
Q 21.625 45.796875 17.515625 41.421875 
Q 13.421875 37.0625 13.1875 30.328125 
z
M 27.390625 53.5625 
z
" id="Helvetica-101"/>
     </defs>
     <g transform="translate(71.013125 184.320838)scale(0.08 -0.08)">
      <use xlink:href="#Helvetica-79"/>
      <use x="77.783203" xlink:href="#Helvetica-8211"/>
      <use x="133.398438" xlink:href="#Helvetica-123"/>
      <use x="166.796875" xlink:href="#Helvetica-76"/>
      <use x="222.412109" xlink:href="#Helvetica-105"/>
      <use x="244.628906" xlink:href="#Helvetica-44"/>
      <use x="272.412109" xlink:href="#Helvetica-77"/>
      <use x="355.712891" xlink:href="#Helvetica-110"/>
      <use x="411.328125" xlink:href="#Helvetica-44"/>
      <use x="439.111328" xlink:href="#Helvetica-78"/>
      <use x="511.328125" xlink:href="#Helvetica-105"/>
      <use x="533.544922" xlink:href="#Helvetica-125"/>
      <use x="566.943359" xlink:href="#Helvetica-32"/>
      <use x="594.726562" xlink:href="#Helvetica-115"/>
      <use x="644.726562" xlink:href="#Helvetica-105"/>
      <use x="666.943359" xlink:href="#Helvetica-116"/>
      <use x="694.726562" xlink:href="#Helvetica-101"/>
      <use x="750.341797" xlink:href="#Helvetica-115"/>
     </g>
    </g>
   </g>
   <g id="matplotlib.axis_2">
    <g id="ytick_1">
     <g id="line2d_8">
      <defs>
       <path d="M 0 0 
L -3.5 0 
" id="mb81d08fdd8" style="stroke:#000000;stroke-width:0.8;"/>
      </defs>
      <g>
       <use style="stroke:#000000;stroke-width:0.8;" x="34.98625" xlink:href="#mb81d08fdd8" y="130.462818"/>
      </g>
     </g>
     <g id="text_9">
      <!-- −6 -->
      <defs>
       <path d="M 55.421875 29.59375 
L 55.421875 21.390625 
L 4.5 21.390625 
L 4.5 29.59375 
z
" id="Helvetica-8722"/>
      </defs>
      <g transform="translate(18.865 133.332193)scale(0.08 -0.08)">
       <use xlink:href="#Helvetica-8722"/>
       <use x="58.398438" xlink:href="#Helvetica-54"/>
      </g>
     </g>
    </g>
    <g id="ytick_2">
     <g id="line2d_9">
      <g>
       <use style="stroke:#000000;stroke-width:0.8;" x="34.98625" xlink:href="#mb81d08fdd8" y="110.397244"/>
      </g>
     </g>
     <g id="text_10">
      <!-- −4 -->
      <g transform="translate(18.865 113.266619)scale(0.08 -0.08)">
       <use xlink:href="#Helvetica-8722"/>
       <use x="58.398438" xlink:href="#Helvetica-52"/>
      </g>
     </g>
    </g>
    <g id="ytick_3">
     <g id="line2d_10">
      <g>
       <use style="stroke:#000000;stroke-width:0.8;" x="34.98625" xlink:href="#mb81d08fdd8" y="90.33167"/>
      </g>
     </g>
     <g id="text_11">
      <!-- −2 -->
      <g transform="translate(18.865 93.201045)scale(0.08 -0.08)">
       <use xlink:href="#Helvetica-8722"/>
       <use x="58.398438" xlink:href="#Helvetica-50"/>
      </g>
     </g>
    </g>
    <g id="ytick_4">
     <g id="line2d_11">
      <g>
       <use style="stroke:#000000;stroke-width:0.8;" x="34.98625" xlink:href="#mb81d08fdd8" y="70.266096"/>
      </g>
     </g>
     <g id="text_12">
      <!-- 0 -->
      <g transform="translate(23.5375 73.135471)scale(0.08 -0.08)">
       <use xlink:href="#Helvetica-48"/>
      </g>
     </g>
    </g>
    <g id="ytick_5">
     <g id="line2d_12">
      <g>
       <use style="stroke:#000000;stroke-width:0.8;" x="34.98625" xlink:href="#mb81d08fdd8" y="50.200523"/>
      </g>
     </g>
     <g id="text_13">
      <!-- 2 -->
      <g transform="translate(23.5375 53.069898)scale(0.08 -0.08)">
       <use xlink:href="#Helvetica-50"/>
      </g>
     </g>
    </g>
    <g id="ytick_6">
     <g id="line2d_13">
      <g>
       <use style="stroke:#000000;stroke-width:0.8;" x="34.98625" xlink:href="#mb81d08fdd8" y="30.134949"/>
      </g>
     </g>
     <g id="text_14">
      <!-- 4 -->
      <g transform="translate(23.5375 33.004324)scale(0.08 -0.08)">
       <use xlink:href="#Helvetica-52"/>
      </g>
     </g>
    </g>
    <g id="ytick_7">
     <g id="line2d_14">
      <g>
       <use style="stroke:#000000;stroke-width:0.8;" x="34.98625" xlink:href="#mb81d08fdd8" y="10.069375"/>
      </g>
     </g>
     <g id="text_15">
      <!-- 6 -->
      <g transform="translate(23.5375 12.93875)scale(0.08 -0.08)">
       <use xlink:href="#Helvetica-54"/>
      </g>
     </g>
    </g>
    <g id="text_16">
     <!-- O vacancy formation energy (eV) -->
     <defs>
      <path d="M 10.75 52.296875 
L 24.703125 9.71875 
L 39.3125 52.296875 
L 48.921875 52.296875 
L 29.203125 0 
L 19.828125 0 
L 0.53125 52.296875 
z
" id="Helvetica-118"/>
      <path d="M 13.1875 13.921875 
Q 13.1875 10.109375 15.96875 7.90625 
Q 18.75 5.71875 22.5625 5.71875 
Q 27.203125 5.71875 31.546875 7.859375 
Q 38.875 11.421875 38.875 19.53125 
L 38.875 26.609375 
Q 37.25 25.59375 34.703125 24.90625 
Q 32.171875 24.21875 29.734375 23.921875 
L 24.421875 23.25 
Q 19.625 22.609375 17.234375 21.234375 
Q 13.1875 18.953125 13.1875 13.921875 
z
M 34.46875 31.6875 
Q 37.5 32.078125 38.53125 34.234375 
Q 39.109375 35.40625 39.109375 37.59375 
Q 39.109375 42.09375 35.90625 44.109375 
Q 32.71875 46.140625 26.765625 46.140625 
Q 19.875 46.140625 17 42.4375 
Q 15.375 40.375 14.890625 36.328125 
L 6.6875 36.328125 
Q 6.9375 46 12.96875 49.78125 
Q 19 53.5625 26.953125 53.5625 
Q 36.1875 53.5625 41.9375 50.046875 
Q 47.65625 46.53125 47.65625 39.109375 
L 47.65625 8.984375 
Q 47.65625 7.625 48.21875 6.78125 
Q 48.78125 5.953125 50.59375 5.953125 
Q 51.171875 5.953125 51.90625 6.03125 
Q 52.640625 6.109375 53.46875 6.25 
L 53.46875 -0.25 
Q 51.421875 -0.828125 50.34375 -0.96875 
Q 49.265625 -1.125 47.40625 -1.125 
Q 42.875 -1.125 40.828125 2.09375 
Q 39.75 3.8125 39.3125 6.9375 
Q 36.625 3.421875 31.59375 0.828125 
Q 26.5625 -1.765625 20.515625 -1.765625 
Q 13.234375 -1.765625 8.609375 2.65625 
Q 4 7.078125 4 13.71875 
Q 4 21 8.546875 25 
Q 13.09375 29 20.453125 29.9375 
z
M 27.203125 53.5625 
z
" id="Helvetica-97"/>
      <path d="M 26.609375 53.8125 
Q 35.453125 53.8125 40.984375 49.515625 
Q 46.53125 45.21875 47.65625 34.71875 
L 39.109375 34.71875 
Q 38.328125 39.546875 35.546875 42.75 
Q 32.765625 45.953125 26.609375 45.953125 
Q 18.21875 45.953125 14.59375 37.75 
Q 12.25 32.421875 12.25 24.609375 
Q 12.25 16.75 15.5625 11.375 
Q 18.890625 6 26.03125 6 
Q 31.5 6 34.6875 9.34375 
Q 37.890625 12.703125 39.109375 18.5 
L 47.65625 18.5 
Q 46.1875 8.109375 40.328125 3.296875 
Q 34.46875 -1.515625 25.34375 -1.515625 
Q 15.09375 -1.515625 8.984375 5.984375 
Q 2.875 13.484375 2.875 24.703125 
Q 2.875 38.484375 9.5625 46.140625 
Q 16.265625 53.8125 26.609375 53.8125 
z
M 25.25 53.5625 
z
" id="Helvetica-99"/>
      <path d="M 39.109375 52.296875 
L 48.828125 52.296875 
Q 46.96875 47.265625 40.578125 29.34375 
Q 35.796875 15.875 32.5625 7.375 
Q 24.953125 -12.640625 21.828125 -17.03125 
Q 18.703125 -21.4375 11.078125 -21.4375 
Q 9.234375 -21.4375 8.234375 -21.28125 
Q 7.234375 -21.140625 5.765625 -20.75 
L 5.765625 -12.75 
Q 8.0625 -13.375 9.078125 -13.515625 
Q 10.109375 -13.671875 10.890625 -13.671875 
Q 13.328125 -13.671875 14.46875 -12.859375 
Q 15.625 -12.0625 16.40625 -10.890625 
Q 16.65625 -10.5 18.15625 -6.875 
Q 19.671875 -3.265625 20.359375 -1.515625 
L 1.03125 52.296875 
L 10.984375 52.296875 
L 25 9.71875 
z
M 24.953125 53.5625 
z
" id="Helvetica-121"/>
      <path d="M 8.640625 60.25 
Q 8.84375 65.71875 10.546875 68.265625 
Q 13.625 72.75 22.40625 72.75 
Q 23.25 72.75 24.125 72.703125 
Q 25 72.65625 26.125 72.5625 
L 26.125 64.546875 
Q 24.75 64.65625 24.140625 64.671875 
Q 23.53125 64.703125 23 64.703125 
Q 19 64.703125 18.21875 62.625 
Q 17.4375 60.546875 17.4375 52.046875 
L 26.125 52.046875 
L 26.125 45.125 
L 17.328125 45.125 
L 17.328125 0 
L 8.640625 0 
L 8.640625 45.125 
L 1.375 45.125 
L 1.375 52.046875 
L 8.640625 52.046875 
L 8.640625 60.25 
z
" id="Helvetica-102"/>
      <path d="M 27.203125 5.671875 
Q 35.9375 5.671875 39.1875 12.28125 
Q 42.4375 18.890625 42.4375 27 
Q 42.4375 34.328125 40.09375 38.921875 
Q 36.375 46.140625 27.296875 46.140625 
Q 19.234375 46.140625 15.578125 39.984375 
Q 11.921875 33.84375 11.921875 25.140625 
Q 11.921875 16.796875 15.578125 11.234375 
Q 19.234375 5.671875 27.203125 5.671875 
z
M 27.546875 53.8125 
Q 37.640625 53.8125 44.625 47.0625 
Q 51.609375 40.328125 51.609375 27.25 
Q 51.609375 14.59375 45.453125 6.34375 
Q 39.3125 -1.90625 26.375 -1.90625 
Q 15.578125 -1.90625 9.21875 5.390625 
Q 2.875 12.703125 2.875 25 
Q 2.875 38.1875 9.5625 46 
Q 16.265625 53.8125 27.546875 53.8125 
z
M 27.25 53.5625 
z
" id="Helvetica-111"/>
      <path d="M 6.6875 52.296875 
L 15.046875 52.296875 
L 15.046875 43.265625 
Q 16.0625 45.90625 20.0625 49.6875 
Q 24.078125 53.46875 29.296875 53.46875 
Q 29.546875 53.46875 30.125 53.421875 
Q 30.71875 53.375 32.125 53.21875 
L 32.125 43.953125 
Q 31.34375 44.09375 30.6875 44.140625 
Q 30.03125 44.1875 29.25 44.1875 
Q 22.609375 44.1875 19.046875 39.90625 
Q 15.484375 35.640625 15.484375 30.078125 
L 15.484375 0 
L 6.6875 0 
z
" id="Helvetica-114"/>
      <path d="M 6.453125 52.296875 
L 15.140625 52.296875 
L 15.140625 44.875 
Q 18.265625 48.734375 20.796875 50.484375 
Q 25.140625 53.46875 30.671875 53.46875 
Q 36.921875 53.46875 40.71875 50.390625 
Q 42.875 48.640625 44.625 45.21875 
Q 47.5625 49.421875 51.515625 51.4375 
Q 55.46875 53.46875 60.40625 53.46875 
Q 70.953125 53.46875 74.75 45.84375 
Q 76.8125 41.75 76.8125 34.8125 
L 76.8125 0 
L 67.671875 0 
L 67.671875 36.328125 
Q 67.671875 41.546875 65.0625 43.5 
Q 62.453125 45.453125 58.6875 45.453125 
Q 53.515625 45.453125 49.78125 41.984375 
Q 46.046875 38.53125 46.046875 30.421875 
L 46.046875 0 
L 37.109375 0 
L 37.109375 34.125 
Q 37.109375 39.453125 35.84375 41.890625 
Q 33.84375 45.5625 28.375 45.5625 
Q 23.390625 45.5625 19.3125 41.703125 
Q 15.234375 37.84375 15.234375 27.734375 
L 15.234375 0 
L 6.453125 0 
z
" id="Helvetica-109"/>
      <path d="M 24.90625 53.21875 
Q 31.0625 53.21875 35.640625 50.203125 
Q 38.140625 48.484375 40.71875 45.21875 
L 40.71875 51.8125 
L 48.828125 51.8125 
L 48.828125 4.25 
Q 48.828125 -5.71875 45.90625 -11.46875 
Q 40.4375 -22.125 25.25 -22.125 
Q 16.796875 -22.125 11.03125 -18.328125 
Q 5.28125 -14.546875 4.59375 -6.5 
L 13.53125 -6.5 
Q 14.15625 -10.015625 16.0625 -11.921875 
Q 19.046875 -14.84375 25.4375 -14.84375 
Q 35.546875 -14.84375 38.671875 -7.71875 
Q 40.53125 -3.515625 40.375 7.28125 
Q 37.75 3.265625 34.03125 1.3125 
Q 30.328125 -0.640625 24.21875 -0.640625 
Q 15.71875 -0.640625 9.34375 5.390625 
Q 2.984375 11.421875 2.984375 25.34375 
Q 2.984375 38.484375 9.40625 45.84375 
Q 15.828125 53.21875 24.90625 53.21875 
z
M 40.71875 26.375 
Q 40.71875 36.078125 36.71875 40.765625 
Q 32.71875 45.453125 26.515625 45.453125 
Q 17.234375 45.453125 13.8125 36.765625 
Q 12.015625 32.125 12.015625 24.609375 
Q 12.015625 15.765625 15.59375 11.15625 
Q 19.1875 6.546875 25.25 6.546875 
Q 34.71875 6.546875 38.578125 15.09375 
Q 40.71875 19.921875 40.71875 26.375 
z
M 25.921875 53.5625 
z
" id="Helvetica-103"/>
      <path d="M 29.59375 72.90625 
Q 21.921875 58.015625 19.625 50.984375 
Q 16.15625 40.28125 16.15625 26.265625 
Q 16.15625 12.109375 20.125 0.390625 
Q 22.5625 -6.84375 29.734375 -20.40625 
L 23.828125 -20.40625 
Q 16.703125 -9.28125 14.984375 -6.203125 
Q 13.28125 -3.125 11.28125 2.15625 
Q 8.546875 9.375 7.46875 17.578125 
Q 6.9375 21.828125 6.9375 25.6875 
Q 6.9375 40.140625 11.46875 51.421875 
Q 14.359375 58.59375 23.484375 72.90625 
z
" id="Helvetica-40"/>
      <path d="M 13.28125 71.734375 
L 33.890625 10.640625 
L 54.25 71.734375 
L 65.140625 71.734375 
L 38.96875 0 
L 28.65625 0 
L 2.546875 71.734375 
z
" id="Helvetica-86"/>
      <path d="M 3.46875 -20.40625 
Q 11.234375 -5.28125 13.484375 1.65625 
Q 16.890625 12.15625 16.890625 26.265625 
Q 16.890625 40.375 12.9375 52.09375 
Q 10.5 59.328125 3.328125 72.90625 
L 9.234375 72.90625 
Q 16.75 60.890625 18.328125 58.078125 
Q 19.921875 55.28125 21.78125 50.34375 
Q 24.125 44.234375 25.125 38.28125 
Q 26.125 32.328125 26.125 26.8125 
Q 26.125 12.359375 21.53125 1.03125 
Q 18.65625 -6.25 9.578125 -20.40625 
z
" id="Helvetica-41"/>
     </defs>
     <g transform="translate(13.095 128.953596)rotate(-90)scale(0.08 -0.08)">
      <use xlink:href="#Helvetica-79"/>
      <use x="77.783203" xlink:href="#Helvetica-32"/>
      <use x="105.566406" xlink:href="#Helvetica-118"/>
      <use x="155.566406" xlink:href="#Helvetica-97"/>
      <use x="211.181641" xlink:href="#Helvetica-99"/>
      <use x="261.181641" xlink:href="#Helvetica-97"/>
      <use x="316.796875" xlink:href="#Helvetica-110"/>
      <use x="372.412109" xlink:href="#Helvetica-99"/>
      <use x="422.412109" xlink:href="#Helvetica-121"/>
      <use x="472.412109" xlink:href="#Helvetica-32"/>
      <use x="500.195312" xlink:href="#Helvetica-102"/>
      <use x="527.978516" xlink:href="#Helvetica-111"/>
      <use x="583.59375" xlink:href="#Helvetica-114"/>
      <use x="616.894531" xlink:href="#Helvetica-109"/>
      <use x="700.195312" xlink:href="#Helvetica-97"/>
      <use x="755.810547" xlink:href="#Helvetica-116"/>
      <use x="783.59375" xlink:href="#Helvetica-105"/>
      <use x="805.810547" xlink:href="#Helvetica-111"/>
      <use x="861.425781" xlink:href="#Helvetica-110"/>
      <use x="917.041016" xlink:href="#Helvetica-32"/>
      <use x="944.824219" xlink:href="#Helvetica-101"/>
      <use x="1000.439453" xlink:href="#Helvetica-110"/>
      <use x="1056.054688" xlink:href="#Helvetica-101"/>
      <use x="1111.669922" xlink:href="#Helvetica-114"/>
      <use x="1144.970703" xlink:href="#Helvetica-103"/>
      <use x="1200.585938" xlink:href="#Helvetica-121"/>
      <use x="1250.585938" xlink:href="#Helvetica-32"/>
      <use x="1278.369141" xlink:href="#Helvetica-40"/>
      <use x="1311.669922" xlink:href="#Helvetica-101"/>
      <use x="1367.285156" xlink:href="#Helvetica-86"/>
      <use x="1433.984375" xlink:href="#Helvetica-41"/>
     </g>
    </g>
   </g>
   <g id="line2d_15">
    <path clip-path="url(#p1f3d6f7df2)" d="M 44.70625 109.170516 
L 44.70625 112.621354 
" style="fill:none;stroke:#000000;stroke-linecap:square;"/>
   </g>
   <g id="line2d_16">
    <path clip-path="url(#p1f3d6f7df2)" d="M 44.70625 102.268839 
L 44.70625 98.818001 
" style="fill:none;stroke:#000000;stroke-linecap:square;"/>
   </g>
   <g id="line2d_17">
    <path clip-path="url(#p1f3d6f7df2)" d="M 42.27625 112.621354 
L 47.13625 112.621354 
" style="fill:none;stroke:#000000;stroke-linecap:square;"/>
   </g>
   <g id="line2d_18">
    <path clip-path="url(#p1f3d6f7df2)" d="M 42.27625 98.818001 
L 47.13625 98.818001 
" style="fill:none;stroke:#000000;stroke-linecap:square;"/>
   </g>
   <g id="line2d_19"/>
   <g id="line2d_20">
    <path clip-path="url(#p1f3d6f7df2)" d="M 64.14625 76.887614 
L 64.14625 84.46831 
" style="fill:none;stroke:#000000;stroke-linecap:square;"/>
   </g>
   <g id="line2d_21">
    <path clip-path="url(#p1f3d6f7df2)" d="M 64.14625 68.308845 
L 64.14625 68.008301 
" style="fill:none;stroke:#000000;stroke-linecap:square;"/>
   </g>
   <g id="line2d_22">
    <path clip-path="url(#p1f3d6f7df2)" d="M 61.71625 84.46831 
L 66.57625 84.46831 
" style="fill:none;stroke:#000000;stroke-linecap:square;"/>
   </g>
   <g id="line2d_23">
    <path clip-path="url(#p1f3d6f7df2)" d="M 61.71625 68.008301 
L 66.57625 68.008301 
" style="fill:none;stroke:#000000;stroke-linecap:square;"/>
   </g>
   <g id="line2d_24"/>
   <g id="line2d_25">
    <path clip-path="url(#p1f3d6f7df2)" d="M 83.58625 40.40536 
L 83.58625 44.537627 
" style="fill:none;stroke:#000000;stroke-linecap:square;"/>
   </g>
   <g id="line2d_26">
    <path clip-path="url(#p1f3d6f7df2)" d="M 83.58625 35.220258 
L 83.58625 34.167422 
" style="fill:none;stroke:#000000;stroke-linecap:square;"/>
   </g>
   <g id="line2d_27">
    <path clip-path="url(#p1f3d6f7df2)" d="M 81.15625 44.537627 
L 86.01625 44.537627 
" style="fill:none;stroke:#000000;stroke-linecap:square;"/>
   </g>
   <g id="line2d_28">
    <path clip-path="url(#p1f3d6f7df2)" d="M 81.15625 34.167422 
L 86.01625 34.167422 
" style="fill:none;stroke:#000000;stroke-linecap:square;"/>
   </g>
   <g id="line2d_29"/>
   <g id="line2d_30">
    <path clip-path="url(#p1f3d6f7df2)" d="M 103.02625 29.955203 
L 103.02625 31.674073 
" style="fill:none;stroke:#000000;stroke-linecap:square;"/>
   </g>
   <g id="line2d_31">
    <path clip-path="url(#p1f3d6f7df2)" d="M 103.02625 24.802864 
L 103.02625 24.218768 
" style="fill:none;stroke:#000000;stroke-linecap:square;"/>
   </g>
   <g id="line2d_32">
    <path clip-path="url(#p1f3d6f7df2)" d="M 100.59625 31.674073 
L 105.45625 31.674073 
" style="fill:none;stroke:#000000;stroke-linecap:square;"/>
   </g>
   <g id="line2d_33">
    <path clip-path="url(#p1f3d6f7df2)" d="M 100.59625 24.218768 
L 105.45625 24.218768 
" style="fill:none;stroke:#000000;stroke-linecap:square;"/>
   </g>
   <g id="line2d_34"/>
   <g id="line2d_35">
    <path clip-path="url(#p1f3d6f7df2)" d="M 0 0 
" style="fill:none;stroke:#000000;stroke-linecap:square;"/>
   </g>
   <g id="line2d_36">
    <path clip-path="url(#p1f3d6f7df2)" d="M 0 0 
" style="fill:none;stroke:#000000;stroke-linecap:square;"/>
   </g>
   <g id="line2d_37">
    <path clip-path="url(#p1f3d6f7df2)" d="M 0 0 
" style="fill:none;stroke:#000000;stroke-linecap:square;"/>
   </g>
   <g id="line2d_38">
    <path clip-path="url(#p1f3d6f7df2)" d="M 0 0 
" style="fill:none;stroke:#000000;stroke-linecap:square;"/>
   </g>
   <g id="line2d_39"/>
   <g id="line2d_40">
    <path clip-path="url(#p1f3d6f7df2)" d="M 0 0 
" style="fill:none;stroke:#000000;stroke-linecap:square;"/>
   </g>
   <g id="line2d_41">
    <path clip-path="url(#p1f3d6f7df2)" d="M 0 0 
" style="fill:none;stroke:#000000;stroke-linecap:square;"/>
   </g>
   <g id="line2d_42">
    <path clip-path="url(#p1f3d6f7df2)" d="M 0 0 
" style="fill:none;stroke:#000000;stroke-linecap:square;"/>
   </g>
   <g id="line2d_43">
    <path clip-path="url(#p1f3d6f7df2)" d="M 0 0 
" style="fill:none;stroke:#000000;stroke-linecap:square;"/>
   </g>
   <g id="line2d_44"/>
   <g id="line2d_45">
    <path clip-path="url(#p1f3d6f7df2)" d="M 0 0 
" style="fill:none;stroke:#000000;stroke-linecap:square;"/>
   </g>
   <g id="line2d_46">
    <path clip-path="url(#p1f3d6f7df2)" d="M 0 0 
" style="fill:none;stroke:#000000;stroke-linecap:square;"/>
   </g>
   <g id="line2d_47">
    <path clip-path="url(#p1f3d6f7df2)" d="M 0 0 
" style="fill:none;stroke:#000000;stroke-linecap:square;"/>
   </g>
   <g id="line2d_48">
    <path clip-path="url(#p1f3d6f7df2)" d="M 0 0 
" style="fill:none;stroke:#000000;stroke-linecap:square;"/>
   </g>
   <g id="line2d_49"/>
   <g id="line2d_50">
    <defs>
     <path d="M 0 1.5 
C 0.397805 1.5 0.77937 1.341951 1.06066 1.06066 
C 1.341951 0.77937 1.5 0.397805 1.5 0 
C 1.5 -0.397805 1.341951 -0.77937 1.06066 -1.06066 
C 0.77937 -1.341951 0.397805 -1.5 0 -1.5 
C -0.397805 -1.5 -0.77937 -1.341951 -1.06066 -1.06066 
C -1.341951 -0.77937 -1.5 -0.397805 -1.5 0 
C -1.5 0.397805 -1.341951 0.77937 -1.06066 1.06066 
C -0.77937 1.341951 -0.397805 1.5 0 1.5 
z
" id="m454544a325" style="stroke:#1f77b4;"/>
    </defs>
    <g clip-path="url(#p1f3d6f7df2)">
     <use style="fill:#1f77b4;stroke:#1f77b4;" x="44.70625" xlink:href="#m454544a325" y="112.621354"/>
     <use style="fill:#1f77b4;stroke:#1f77b4;" x="44.70625" xlink:href="#m454544a325" y="98.818001"/>
    </g>
   </g>
   <g id="line2d_51">
    <defs>
     <path d="M 0 1.5 
C 0.397805 1.5 0.77937 1.341951 1.06066 1.06066 
C 1.341951 0.77937 1.5 0.397805 1.5 0 
C 1.5 -0.397805 1.341951 -0.77937 1.06066 -1.06066 
C 0.77937 -1.341951 0.397805 -1.5 0 -1.5 
C -0.397805 -1.5 -0.77937 -1.341951 -1.06066 -1.06066 
C -1.341951 -0.77937 -1.5 -0.397805 -1.5 0 
C -1.5 0.397805 -1.341951 0.77937 -1.06066 1.06066 
C -0.77937 1.341951 -0.397805 1.5 0 1.5 
z
" id="m99e50fbec4" style="stroke:#ff7f0e;"/>
    </defs>
    <g clip-path="url(#p1f3d6f7df2)">
     <use style="fill:#ff7f0e;stroke:#ff7f0e;" x="64.14625" xlink:href="#m99e50fbec4" y="68.008301"/>
     <use style="fill:#ff7f0e;stroke:#ff7f0e;" x="64.14625" xlink:href="#m99e50fbec4" y="68.308845"/>
     <use style="fill:#ff7f0e;stroke:#ff7f0e;" x="64.14625" xlink:href="#m99e50fbec4" y="74.409286"/>
     <use style="fill:#ff7f0e;stroke:#ff7f0e;" x="64.14625" xlink:href="#m99e50fbec4" y="76.887614"/>
     <use style="fill:#ff7f0e;stroke:#ff7f0e;" x="64.14625" xlink:href="#m99e50fbec4" y="84.46831"/>
    </g>
   </g>
   <g id="line2d_52">
    <defs>
     <path d="M 0 1.5 
C 0.397805 1.5 0.77937 1.341951 1.06066 1.06066 
C 1.341951 0.77937 1.5 0.397805 1.5 0 
C 1.5 -0.397805 1.341951 -0.77937 1.06066 -1.06066 
C 0.77937 -1.341951 0.397805 -1.5 0 -1.5 
C -0.397805 -1.5 -0.77937 -1.341951 -1.06066 -1.06066 
C -1.341951 -0.77937 -1.5 -0.397805 -1.5 0 
C -1.5 0.397805 -1.341951 0.77937 -1.06066 1.06066 
C -0.77937 1.341951 -0.397805 1.5 0 1.5 
z
" id="m6971c6f0ce" style="stroke:#2ca02c;"/>
    </defs>
    <g clip-path="url(#p1f3d6f7df2)">
     <use style="fill:#2ca02c;stroke:#2ca02c;" x="83.58625" xlink:href="#m6971c6f0ce" y="36.273094"/>
     <use style="fill:#2ca02c;stroke:#2ca02c;" x="83.58625" xlink:href="#m6971c6f0ce" y="44.537627"/>
     <use style="fill:#2ca02c;stroke:#2ca02c;" x="83.58625" xlink:href="#m6971c6f0ce" y="34.167422"/>
    </g>
   </g>
   <g id="line2d_53">
    <defs>
     <path d="M 0 1.5 
C 0.397805 1.5 0.77937 1.341951 1.06066 1.06066 
C 1.341951 0.77937 1.5 0.397805 1.5 0 
C 1.5 -0.397805 1.341951 -0.77937 1.06066 -1.06066 
C 0.77937 -1.341951 0.397805 -1.5 0 -1.5 
C -0.397805 -1.5 -0.77937 -1.341951 -1.06066 -1.06066 
C -1.341951 -0.77937 -1.5 -0.397805 -1.5 0 
C -1.5 0.397805 -1.341951 0.77937 -1.06066 1.06066 
C -0.77937 1.341951 -0.397805 1.5 0 1.5 
z
" id="md4b6eb23a3" style="stroke:#d62728;"/>
    </defs>
    <g clip-path="url(#p1f3d6f7df2)">
     <use style="fill:#d62728;stroke:#d62728;" x="103.02625" xlink:href="#md4b6eb23a3" y="24.997562"/>
     <use style="fill:#d62728;stroke:#d62728;" x="103.02625" xlink:href="#md4b6eb23a3" y="31.674073"/>
     <use style="fill:#d62728;stroke:#d62728;" x="103.02625" xlink:href="#md4b6eb23a3" y="24.218768"/>
     <use style="fill:#d62728;stroke:#d62728;" x="103.02625" xlink:href="#md4b6eb23a3" y="29.382246"/>
    </g>
   </g>
   <g id="line2d_54">
    <path clip-path="url(#p1f3d6f7df2)" d="M 5.82625 70.266096 
L 179.26625 70.266096 
" style="fill:none;stroke:#000000;stroke-dasharray:2.775,1.2;stroke-dashoffset:0;stroke-opacity:0.55;stroke-width:0.75;"/>
   </g>
   <g id="patch_3">
    <path clip-path="url(#p1f3d6f7df2)" d="M 39.84625 109.170516 
L 49.56625 109.170516 
L 49.56625 102.268839 
L 39.84625 102.268839 
L 39.84625 109.170516 
z
" style="fill:#1f77b4;opacity:0.65;stroke:#000000;stroke-linejoin:miter;"/>
   </g>
   <g id="patch_4">
    <path clip-path="url(#p1f3d6f7df2)" d="M 59.28625 76.887614 
L 69.00625 76.887614 
L 69.00625 68.308845 
L 59.28625 68.308845 
L 59.28625 76.887614 
z
" style="fill:#ff7f0e;opacity:0.65;stroke:#000000;stroke-linejoin:miter;"/>
   </g>
   <g id="patch_5">
    <path clip-path="url(#p1f3d6f7df2)" d="M 78.72625 40.40536 
L 88.44625 40.40536 
L 88.44625 35.220258 
L 78.72625 35.220258 
L 78.72625 40.40536 
z
" style="fill:#2ca02c;opacity:0.65;stroke:#000000;stroke-linejoin:miter;"/>
   </g>
   <g id="patch_6">
    <path clip-path="url(#p1f3d6f7df2)" d="M 98.16625 29.955203 
L 107.88625 29.955203 
L 107.88625 24.802864 
L 98.16625 24.802864 
L 98.16625 29.955203 
z
" style="fill:#d62728;opacity:0.65;stroke:#000000;stroke-linejoin:miter;"/>
   </g>
   <g id="patch_7">
    <path clip-path="url(#p1f3d6f7df2)" d="z
" style="fill:#9467bd;opacity:0.65;stroke:#000000;stroke-linejoin:miter;"/>
   </g>
   <g id="patch_8">
    <path clip-path="url(#p1f3d6f7df2)" d="z
" style="fill:#8c564b;opacity:0.65;stroke:#000000;stroke-linejoin:miter;"/>
   </g>
   <g id="patch_9">
    <path clip-path="url(#p1f3d6f7df2)" d="z
" style="fill:#e377c2;opacity:0.65;stroke:#000000;stroke-linejoin:miter;"/>
   </g>
   <g id="line2d_55">
    <path clip-path="url(#p1f3d6f7df2)" d="M 39.84625 105.719678 
L 49.56625 105.719678 
" style="fill:none;stroke:#808080;stroke-linecap:square;"/>
   </g>
   <g id="line2d_56">
    <path clip-path="url(#p1f3d6f7df2)" d="M 59.28625 74.409286 
L 69.00625 74.409286 
" style="fill:none;stroke:#808080;stroke-linecap:square;"/>
   </g>
   <g id="line2d_57">
    <path clip-path="url(#p1f3d6f7df2)" d="M 78.72625 36.273094 
L 88.44625 36.273094 
" style="fill:none;stroke:#808080;stroke-linecap:square;"/>
   </g>
   <g id="line2d_58">
    <path clip-path="url(#p1f3d6f7df2)" d="M 98.16625 27.189904 
L 107.88625 27.189904 
" style="fill:none;stroke:#808080;stroke-linecap:square;"/>
   </g>
   <g id="line2d_59">
    <path clip-path="url(#p1f3d6f7df2)" d="M 0 0 
" style="fill:none;stroke:#808080;stroke-linecap:square;"/>
   </g>
   <g id="line2d_60">
    <path clip-path="url(#p1f3d6f7df2)" d="M 0 0 
" style="fill:none;stroke:#808080;stroke-linecap:square;"/>
   </g>
   <g id="line2d_61">
    <path clip-path="url(#p1f3d6f7df2)" d="M 0 0 
" style="fill:none;stroke:#808080;stroke-linecap:square;"/>
   </g>
   <g id="patch_10">
    <path d="M 34.98625 131.466096 
L 34.98625 9.066096 
" style="fill:none;stroke:#000000;stroke-linecap:square;stroke-linejoin:miter;stroke-width:0.75;"/>
   </g>
   <g id="patch_11">
    <path d="M 171.06625 131.466096 
L 171.06625 9.066096 
" style="fill:none;stroke:#000000;stroke-linecap:square;stroke-linejoin:miter;stroke-width:0.75;"/>
   </g>
   <g id="patch_12">
    <path d="M 34.98625 131.466096 
L 171.06625 131.466096 
" style="fill:none;stroke:#000000;stroke-linecap:square;stroke-linejoin:miter;stroke-width:0.75;"/>
   </g>
   <g id="patch_13">
    <path d="M 34.98625 9.066096 
L 171.06625 9.066096 
" style="fill:none;stroke:#000000;stroke-linecap:square;stroke-linejoin:miter;stroke-width:0.75;"/>
   </g>
  </g>
 </g>
 <defs>
  <clipPath id="p1f3d6f7df2">
   <rect height="122.4" width="136.08" x="34.98625" y="9.066096"/>
  </clipPath>
 </defs>
</svg>
