<?xml version="1.0" encoding="utf-8" standalone="no"?>
<!DOCTYPE svg PUBLIC "-//W3C//DTD SVG 1.1//EN"
  "http://www.w3.org/Graphics/SVG/1.1/DTD/svg11.dtd">
<!-- Created with matplotlib (https://matplotlib.org/) -->
<svg height="172.940625pt" version="1.1" viewBox="0 0 184.3775 172.940625" width="184.3775pt" xmlns="http://www.w3.org/2000/svg" xmlns:xlink="http://www.w3.org/1999/xlink">
 <defs>
  <style type="text/css">
*{stroke-linecap:butt;stroke-linejoin:round;}
  </style>
 </defs>
 <g id="figure_1">
  <g id="patch_1">
   <path d="M 0 172.940625 
L 184.3775 172.940625 
L 184.3775 0 
L 0 0 
z
" style="fill:#ffffff;"/>
  </g>
  <g id="axes_1">
   <g id="patch_2">
    <path d="M 47.5775 139.669375 
L 177.1775 139.669375 
L 177.1775 10.069375 
L 47.5775 10.069375 
z
" style="fill:#ffffff;"/>
   </g>
   <g id="matplotlib.axis_1">
    <g id="xtick_1">
     <g id="line2d_1">
      <defs>
       <path d="M 0 0 
L 0 3.5 
" id="md0efa85a14" style="stroke:#000000;stroke-width:0.8;"/>
      </defs>
      <g>
       <use style="stroke:#000000;stroke-width:0.8;" x="63.7775" xlink:href="#md0efa85a14" y="139.669375"/>
      </g>
     </g>
     <g id="text_1">
      <!-- 0 -->
      <defs>
       <path d="M 27.046875 69.921875 
Q 40.625 69.921875 46.6875 58.734375 
Q 51.375 50.09375 51.375 35.0625 
Q 51.375 20.796875 47.125 11.46875 
Q 40.96875 -1.90625 27 -1.90625 
Q 14.40625 -1.90625 8.25 9.03125 
Q 3.125 18.171875 3.125 33.546875 
Q 3.125 45.453125 6.203125 54 
Q 11.96875 69.921875 27.046875 69.921875 
z
M 26.953125 6.109375 
Q 33.796875 6.109375 37.84375 12.15625 
Q 41.890625 18.21875 41.890625 34.71875 
Q 41.890625 46.625 38.953125 54.3125 
Q 36.03125 62.015625 27.59375 62.015625 
Q 19.828125 62.015625 16.234375 54.703125 
Q 12.640625 47.40625 12.640625 33.203125 
Q 12.640625 22.515625 14.9375 16.015625 
Q 18.453125 6.109375 26.953125 6.109375 
z
" id="Helvetica-48"/>
      </defs>
      <g transform="translate(61.553125 152.408125)scale(0.08 -0.08)">
       <use xlink:href="#Helvetica-48"/>
      </g>
     </g>
    </g>
    <g id="xtick_2">
     <g id="line2d_2">
      <g>
       <use style="stroke:#000000;stroke-width:0.8;" x="96.1775" xlink:href="#md0efa85a14" y="139.669375"/>
      </g>
     </g>
     <g id="text_2">
      <!-- 2.08 -->
      <defs>
       <path d="M 3.125 0 
Q 3.609375 9.03125 6.859375 15.71875 
Q 10.109375 22.40625 19.53125 27.875 
L 28.90625 33.296875 
Q 35.203125 36.96875 37.75 39.546875 
Q 41.75 43.609375 41.75 48.828125 
Q 41.75 54.9375 38.078125 58.515625 
Q 34.421875 62.109375 28.328125 62.109375 
Q 19.28125 62.109375 15.828125 55.28125 
Q 13.96875 51.609375 13.765625 45.125 
L 4.828125 45.125 
Q 4.984375 54.25 8.203125 60.015625 
Q 13.921875 70.171875 28.375 70.171875 
Q 40.375 70.171875 45.921875 63.671875 
Q 51.46875 57.171875 51.46875 49.21875 
Q 51.46875 40.828125 45.5625 34.859375 
Q 42.140625 31.390625 33.296875 26.46875 
L 26.609375 22.75 
Q 21.828125 20.125 19.09375 17.71875 
Q 14.203125 13.484375 12.9375 8.296875 
L 51.125 8.296875 
L 51.125 0 
L 3.125 0 
z
" id="Helvetica-50"/>
       <path d="M 8.546875 10.640625 
L 18.75 10.640625 
L 18.75 0 
L 8.546875 0 
z
" id="Helvetica-46"/>
       <path d="M 27.203125 40.625 
Q 33.015625 40.625 36.28125 43.875 
Q 39.546875 47.125 39.546875 51.609375 
Q 39.546875 55.515625 36.421875 58.78125 
Q 33.296875 62.0625 26.90625 62.0625 
Q 20.5625 62.0625 17.71875 58.78125 
Q 14.890625 55.515625 14.890625 51.125 
Q 14.890625 46.1875 18.546875 43.40625 
Q 22.21875 40.625 27.203125 40.625 
z
M 27.734375 6 
Q 33.84375 6 37.859375 9.296875 
Q 41.890625 12.59375 41.890625 19.140625 
Q 41.890625 25.921875 37.734375 29.4375 
Q 33.59375 32.953125 27.09375 32.953125 
Q 20.796875 32.953125 16.8125 29.359375 
Q 12.84375 25.78125 12.84375 19.4375 
Q 12.84375 13.96875 16.484375 9.984375 
Q 20.125 6 27.734375 6 
z
M 15.234375 37.25 
Q 11.578125 38.8125 9.515625 40.921875 
Q 5.671875 44.828125 5.671875 51.078125 
Q 5.671875 58.890625 11.328125 64.5 
Q 17 70.125 27.390625 70.125 
Q 37.453125 70.125 43.15625 64.8125 
Q 48.875 59.515625 48.875 52.4375 
Q 48.875 45.90625 45.5625 41.84375 
Q 43.703125 39.546875 39.796875 37.359375 
Q 44.140625 35.359375 46.625 32.765625 
Q 51.265625 27.875 51.265625 20.0625 
Q 51.265625 10.84375 45.0625 4.421875 
Q 38.875 -2 27.546875 -2 
Q 17.328125 -2 10.265625 3.53125 
Q 3.21875 9.078125 3.21875 19.625 
Q 3.21875 25.828125 6.25 30.34375 
Q 9.28125 34.859375 15.234375 37.25 
z
" id="Helvetica-56"/>
      </defs>
      <g transform="translate(88.393125 152.408125)scale(0.08 -0.08)">
       <use xlink:href="#Helvetica-50"/>
       <use x="55.615234" xlink:href="#Helvetica-46"/>
       <use x="83.398438" xlink:href="#Helvetica-48"/>
       <use x="139.013672" xlink:href="#Helvetica-56"/>
      </g>
     </g>
    </g>
    <g id="xtick_3">
     <g id="line2d_3">
      <g>
       <use style="stroke:#000000;stroke-width:0.8;" x="128.5775" xlink:href="#md0efa85a14" y="139.669375"/>
      </g>
     </g>
     <g id="text_3">
      <!-- 4.17 -->
      <defs>
       <path d="M 33.0625 24.75 
L 33.0625 56.453125 
L 10.640625 24.75 
z
M 33.203125 0 
L 33.203125 17.09375 
L 2.546875 17.09375 
L 2.546875 25.6875 
L 34.578125 70.125 
L 42 70.125 
L 42 24.75 
L 52.296875 24.75 
L 52.296875 17.09375 
L 42 17.09375 
L 42 0 
z
" id="Helvetica-52"/>
       <path d="M 9.578125 49.515625 
L 9.578125 56.25 
Q 19.09375 57.171875 22.84375 59.34375 
Q 26.609375 61.53125 28.46875 69.625 
L 35.40625 69.625 
L 35.40625 0 
L 26.03125 0 
L 26.03125 49.515625 
z
" id="Helvetica-49"/>
       <path d="M 52.296875 68.75 
L 52.296875 61.078125 
Q 48.921875 57.8125 43.328125 49.703125 
Q 37.75 41.609375 33.453125 32.234375 
Q 29.203125 23.09375 27 15.578125 
Q 25.59375 10.75 23.34375 0 
L 13.625 0 
Q 16.9375 20.015625 28.265625 39.84375 
Q 34.96875 51.46875 42.328125 59.90625 
L 3.65625 59.90625 
L 3.65625 68.75 
z
" id="Helvetica-55"/>
      </defs>
      <g transform="translate(120.793125 152.408125)scale(0.08 -0.08)">
       <use xlink:href="#Helvetica-52"/>
       <use x="55.615234" xlink:href="#Helvetica-46"/>
       <use x="83.398438" xlink:href="#Helvetica-49"/>
       <use x="139.013672" xlink:href="#Helvetica-55"/>
      </g>
     </g>
    </g>
    <g id="xtick_4">
     <g id="line2d_4">
      <g>
       <use style="stroke:#000000;stroke-width:0.8;" x="160.9775" xlink:href="#md0efa85a14" y="139.669375"/>
      </g>
     </g>
     <g id="text_4">
      <!-- 6.25 -->
      <defs>
       <path d="M 29.25 70.21875 
Q 40.96875 70.21875 45.578125 64.140625 
Q 50.203125 58.0625 50.203125 51.609375 
L 41.5 51.609375 
Q 40.71875 55.765625 39.015625 58.109375 
Q 35.84375 62.5 29.390625 62.5 
Q 22.015625 62.5 17.671875 55.6875 
Q 13.328125 48.875 12.84375 36.1875 
Q 15.875 40.625 20.453125 42.828125 
Q 24.65625 44.78125 29.828125 44.78125 
Q 38.625 44.78125 45.15625 39.15625 
Q 51.703125 33.546875 51.703125 22.40625 
Q 51.703125 12.890625 45.5 5.53125 
Q 39.3125 -1.8125 27.828125 -1.8125 
Q 18.015625 -1.8125 10.890625 5.640625 
Q 3.765625 13.09375 3.765625 30.71875 
Q 3.765625 43.75 6.9375 52.828125 
Q 13.03125 70.21875 29.25 70.21875 
z
M 28.609375 6 
Q 35.546875 6 38.984375 10.65625 
Q 42.4375 15.328125 42.4375 21.6875 
Q 42.4375 27.046875 39.359375 31.90625 
Q 36.28125 36.765625 28.171875 36.765625 
Q 22.515625 36.765625 18.234375 33 
Q 13.96875 29.25 13.96875 21.6875 
Q 13.96875 15.046875 17.84375 10.515625 
Q 21.734375 6 28.609375 6 
z
" id="Helvetica-54"/>
       <path d="M 12.359375 17.828125 
Q 13.234375 10.296875 19.34375 7.421875 
Q 22.46875 5.953125 26.5625 5.953125 
Q 34.375 5.953125 38.125 10.9375 
Q 41.890625 15.921875 41.890625 21.96875 
Q 41.890625 29.296875 37.421875 33.296875 
Q 32.953125 37.3125 26.703125 37.3125 
Q 22.171875 37.3125 18.921875 35.546875 
Q 15.671875 33.796875 13.375 30.671875 
L 5.765625 31.109375 
L 11.078125 68.75 
L 47.40625 68.75 
L 47.40625 60.25 
L 17.671875 60.25 
L 14.703125 40.828125 
Q 17.140625 42.671875 19.34375 43.609375 
Q 23.25 45.21875 28.375 45.21875 
Q 37.984375 45.21875 44.671875 39.015625 
Q 51.375 32.8125 51.375 23.296875 
Q 51.375 13.375 45.234375 5.796875 
Q 39.109375 -1.765625 25.6875 -1.765625 
Q 17.140625 -1.765625 10.5625 3.046875 
Q 4 7.859375 3.21875 17.828125 
z
" id="Helvetica-53"/>
      </defs>
      <g transform="translate(153.193125 152.408125)scale(0.08 -0.08)">
       <use xlink:href="#Helvetica-54"/>
       <use x="55.615234" xlink:href="#Helvetica-46"/>
       <use x="83.398438" xlink:href="#Helvetica-50"/>
       <use x="139.013672" xlink:href="#Helvetica-53"/>
      </g>
     </g>
    </g>
    <g id="text_5">
     <!-- Oxygen deficiency (%) -->
     <defs>
      <path d="M 38.578125 73.6875 
Q 57.5625 73.6875 66.703125 61.46875 
Q 73.828125 51.953125 73.828125 37.109375 
Q 73.828125 21.046875 65.671875 10.40625 
Q 56.109375 -2.09375 38.375 -2.09375 
Q 21.828125 -2.09375 12.359375 8.84375 
Q 3.90625 19.390625 3.90625 35.5 
Q 3.90625 50.046875 11.140625 60.40625 
Q 20.40625 73.6875 38.578125 73.6875 
z
M 39.546875 6.59375 
Q 52.390625 6.59375 58.125 15.796875 
Q 63.875 25 63.875 36.96875 
Q 63.875 49.609375 57.25 57.328125 
Q 50.640625 65.046875 39.15625 65.046875 
Q 28.03125 65.046875 21 57.390625 
Q 13.96875 49.75 13.96875 34.859375 
Q 13.96875 22.953125 20 14.765625 
Q 26.03125 6.59375 39.546875 6.59375 
z
M 38.875 73.6875 
z
" id="Helvetica-79"/>
      <path d="M 1.46875 52.296875 
L 12.84375 52.296875 
L 24.859375 33.890625 
L 37.015625 52.296875 
L 47.703125 52.046875 
L 30.078125 26.8125 
L 48.484375 0 
L 37.25 0 
L 24.265625 19.625 
L 11.671875 0 
L 0.53125 0 
L 18.953125 26.8125 
z
" id="Helvetica-120"/>
      <path d="M 39.109375 52.296875 
L 48.828125 52.296875 
Q 46.96875 47.265625 40.578125 29.34375 
Q 35.796875 15.875 32.5625 7.375 
Q 24.953125 -12.640625 21.828125 -17.03125 
Q 18.703125 -21.4375 11.078125 -21.4375 
Q 9.234375 -21.4375 8.234375 -21.28125 
Q 7.234375 -21.140625 5.765625 -20.75 
L 5.765625 -12.75 
Q 8.0625 -13.375 9.078125 -13.515625 
Q 10.109375 -13.671875 10.890625 -13.671875 
Q 13.328125 -13.671875 14.46875 -12.859375 
Q 15.625 -12.0625 16.40625 -10.890625 
Q 16.65625 -10.5 18.15625 -6.875 
Q 19.671875 -3.265625 20.359375 -1.515625 
L 1.03125 52.296875 
L 10.984375 52.296875 
L 25 9.71875 
z
M 24.953125 53.5625 
z
" id="Helvetica-121"/>
      <path d="M 24.90625 53.21875 
Q 31.0625 53.21875 35.640625 50.203125 
Q 38.140625 48.484375 40.71875 45.21875 
L 40.71875 51.8125 
L 48.828125 51.8125 
L 48.828125 4.25 
Q 48.828125 -5.71875 45.90625 -11.46875 
Q 40.4375 -22.125 25.25 -22.125 
Q 16.796875 -22.125 11.03125 -18.328125 
Q 5.28125 -14.546875 4.59375 -6.5 
L 13.53125 -6.5 
Q 14.15625 -10.015625 16.0625 -11.921875 
Q 19.046875 -14.84375 25.4375 -14.84375 
Q 35.546875 -14.84375 38.671875 -7.71875 
Q 40.53125 -3.515625 40.375 7.28125 
Q 37.75 3.265625 34.03125 1.3125 
Q 30.328125 -0.640625 24.21875 -0.640625 
Q 15.71875 -0.640625 9.34375 5.390625 
Q 2.984375 11.421875 2.984375 25.34375 
Q 2.984375 38.484375 9.40625 45.84375 
Q 15.828125 53.21875 24.90625 53.21875 
z
M 40.71875 26.375 
Q 40.71875 36.078125 36.71875 40.765625 
Q 32.71875 45.453125 26.515625 45.453125 
Q 17.234375 45.453125 13.8125 36.765625 
Q 12.015625 32.125 12.015625 24.609375 
Q 12.015625 15.765625 15.59375 11.15625 
Q 19.1875 6.546875 25.25 6.546875 
Q 34.71875 6.546875 38.578125 15.09375 
Q 40.71875 19.921875 40.71875 26.375 
z
M 25.921875 53.5625 
z
" id="Helvetica-103"/>
      <path d="M 28.21875 53.46875 
Q 33.796875 53.46875 39.015625 50.859375 
Q 44.234375 48.25 46.96875 44.09375 
Q 49.609375 40.140625 50.484375 34.859375 
Q 51.265625 31.25 51.265625 23.34375 
L 12.9375 23.34375 
Q 13.1875 15.375 16.703125 10.5625 
Q 20.21875 5.765625 27.59375 5.765625 
Q 34.46875 5.765625 38.578125 10.296875 
Q 40.921875 12.9375 41.890625 16.40625 
L 50.53125 16.40625 
Q 50.203125 13.53125 48.265625 9.984375 
Q 46.34375 6.453125 43.953125 4.203125 
Q 39.9375 0.296875 34.03125 -1.078125 
Q 30.859375 -1.859375 26.859375 -1.859375 
Q 17.09375 -1.859375 10.296875 5.25 
Q 3.515625 12.359375 3.515625 25.140625 
Q 3.515625 37.75 10.34375 45.609375 
Q 17.1875 53.46875 28.21875 53.46875 
z
M 42.234375 30.328125 
Q 41.703125 36.03125 39.75 39.453125 
Q 36.140625 45.796875 27.6875 45.796875 
Q 21.625 45.796875 17.515625 41.421875 
Q 13.421875 37.0625 13.1875 30.328125 
z
M 27.390625 53.5625 
z
" id="Helvetica-101"/>
      <path d="M 6.453125 52.296875 
L 14.796875 52.296875 
L 14.796875 44.875 
Q 18.5 49.46875 22.65625 51.46875 
Q 26.8125 53.46875 31.890625 53.46875 
Q 43.015625 53.46875 46.921875 45.703125 
Q 49.078125 41.453125 49.078125 33.546875 
L 49.078125 0 
L 40.140625 0 
L 40.140625 32.953125 
Q 40.140625 37.75 38.71875 40.671875 
Q 36.375 45.5625 30.21875 45.5625 
Q 27.09375 45.5625 25.09375 44.921875 
Q 21.484375 43.84375 18.75 40.625 
Q 16.546875 38.03125 15.890625 35.265625 
Q 15.234375 32.515625 15.234375 27.390625 
L 15.234375 0 
L 6.453125 0 
z
M 27.09375 53.5625 
z
" id="Helvetica-110"/>
      <path id="Helvetica-32"/>
      <path d="M 12.015625 25.53125 
Q 12.015625 17.140625 15.578125 11.46875 
Q 19.140625 5.8125 27 5.8125 
Q 33.109375 5.8125 37.03125 11.0625 
Q 40.96875 16.3125 40.96875 26.125 
Q 40.96875 36.03125 36.90625 40.796875 
Q 32.859375 45.5625 26.90625 45.5625 
Q 20.265625 45.5625 16.140625 40.484375 
Q 12.015625 35.40625 12.015625 25.53125 
z
M 25.25 53.21875 
Q 31.25 53.21875 35.296875 50.6875 
Q 37.640625 49.21875 40.625 45.5625 
L 40.625 71.96875 
L 49.078125 71.96875 
L 49.078125 0 
L 41.15625 0 
L 41.15625 7.28125 
Q 38.09375 2.4375 33.890625 0.28125 
Q 29.6875 -1.859375 24.265625 -1.859375 
Q 15.53125 -1.859375 9.125 5.484375 
Q 2.734375 12.84375 2.734375 25.046875 
Q 2.734375 36.46875 8.5625 44.84375 
Q 14.40625 53.21875 25.25 53.21875 
z
" id="Helvetica-100"/>
      <path d="M 8.640625 60.25 
Q 8.84375 65.71875 10.546875 68.265625 
Q 13.625 72.75 22.40625 72.75 
Q 23.25 72.75 24.125 72.703125 
Q 25 72.65625 26.125 72.5625 
L 26.125 64.546875 
Q 24.75 64.65625 24.140625 64.671875 
Q 23.53125 64.703125 23 64.703125 
Q 19 64.703125 18.21875 62.625 
Q 17.4375 60.546875 17.4375 52.046875 
L 26.125 52.046875 
L 26.125 45.125 
L 17.328125 45.125 
L 17.328125 0 
L 8.640625 0 
L 8.640625 45.125 
L 1.375 45.125 
L 1.375 52.046875 
L 8.640625 52.046875 
L 8.640625 60.25 
z
" id="Helvetica-102"/>
      <path d="M 6.453125 52.046875 
L 15.375 52.046875 
L 15.375 0 
L 6.453125 0 
z
M 6.453125 71.734375 
L 15.375 71.734375 
L 15.375 61.765625 
L 6.453125 61.765625 
z
" id="Helvetica-105"/>
      <path d="M 26.609375 53.8125 
Q 35.453125 53.8125 40.984375 49.515625 
Q 46.53125 45.21875 47.65625 34.71875 
L 39.109375 34.71875 
Q 38.328125 39.546875 35.546875 42.75 
Q 32.765625 45.953125 26.609375 45.953125 
Q 18.21875 45.953125 14.59375 37.75 
Q 12.25 32.421875 12.25 24.609375 
Q 12.25 16.75 15.5625 11.375 
Q 18.890625 6 26.03125 6 
Q 31.5 6 34.6875 9.34375 
Q 37.890625 12.703125 39.109375 18.5 
L 47.65625 18.5 
Q 46.1875 8.109375 40.328125 3.296875 
Q 34.46875 -1.515625 25.34375 -1.515625 
Q 15.09375 -1.515625 8.984375 5.984375 
Q 2.875 13.484375 2.875 24.703125 
Q 2.875 38.484375 9.5625 46.140625 
Q 16.265625 53.8125 26.609375 53.8125 
z
M 25.25 53.5625 
z
" id="Helvetica-99"/>
      <path d="M 29.59375 72.90625 
Q 21.921875 58.015625 19.625 50.984375 
Q 16.15625 40.28125 16.15625 26.265625 
Q 16.15625 12.109375 20.125 0.390625 
Q 22.5625 -6.84375 29.734375 -20.40625 
L 23.828125 -20.40625 
Q 16.703125 -9.28125 14.984375 -6.203125 
Q 13.28125 -3.125 11.28125 2.15625 
Q 8.546875 9.375 7.46875 17.578125 
Q 6.9375 21.828125 6.9375 25.6875 
Q 6.9375 40.140625 11.46875 51.421875 
Q 14.359375 58.59375 23.484375 72.90625 
z
" id="Helvetica-40"/>
      <path d="M 68.171875 33.984375 
Q 75.203125 33.984375 80.171875 29 
Q 85.15625 24.03125 85.15625 17 
Q 85.15625 9.96875 80.171875 4.984375 
Q 75.203125 0 68.171875 0 
Q 61.078125 0 56.09375 4.984375 
Q 51.125 9.96875 51.125 17 
Q 51.125 24.03125 56.09375 29 
Q 61.078125 33.984375 68.171875 33.984375 
z
M 61.078125 69.625 
L 66.5 69.625 
L 27.390625 -1.859375 
L 21.96875 -1.859375 
z
M 20.21875 40.71875 
Q 24.421875 40.71875 27.375 43.671875 
Q 30.328125 46.625 30.328125 50.78125 
Q 30.328125 54.9375 27.375 57.890625 
Q 24.421875 60.84375 20.21875 60.84375 
Q 16.0625 60.84375 13.109375 57.90625 
Q 10.15625 54.984375 10.15625 50.78125 
Q 10.15625 46.625 13.109375 43.671875 
Q 16.0625 40.71875 20.21875 40.71875 
z
M 20.21875 67.828125 
Q 27.296875 67.828125 32.265625 62.8125 
Q 37.25 57.8125 37.25 50.78125 
Q 37.25 43.75 32.265625 38.765625 
Q 27.296875 33.796875 20.21875 33.796875 
Q 13.1875 33.796875 8.203125 38.765625 
Q 3.21875 43.75 3.21875 50.78125 
Q 3.21875 57.8125 8.203125 62.8125 
Q 13.1875 67.828125 20.21875 67.828125 
z
M 68.171875 6.9375 
Q 72.3125 6.9375 75.265625 9.890625 
Q 78.21875 12.84375 78.21875 17 
Q 78.21875 21.140625 75.265625 24.09375 
Q 72.3125 27.046875 68.171875 27.046875 
Q 63.96875 27.046875 61.015625 24.09375 
Q 58.0625 21.140625 58.0625 17 
Q 58.0625 12.84375 61.015625 9.890625 
Q 63.96875 6.9375 68.171875 6.9375 
z
" id="Helvetica-37"/>
      <path d="M 3.46875 -20.40625 
Q 11.234375 -5.28125 13.484375 1.65625 
Q 16.890625 12.15625 16.890625 26.265625 
Q 16.890625 40.375 12.9375 52.09375 
Q 10.5 59.328125 3.328125 72.90625 
L 9.234375 72.90625 
Q 16.75 60.890625 18.328125 58.078125 
Q 19.921875 55.28125 21.78125 50.34375 
Q 24.125 44.234375 25.125 38.28125 
Q 26.125 32.328125 26.125 26.8125 
Q 26.125 12.359375 21.53125 1.03125 
Q 18.65625 -6.25 9.578125 -20.40625 
z
" id="Helvetica-41"/>
     </defs>
     <g transform="translate(72.36375 163.970625)scale(0.08 -0.08)">
      <use xlink:href="#Helvetica-79"/>
      <use x="77.783203" xlink:href="#Helvetica-120"/>
      <use x="127.783203" xlink:href="#Helvetica-121"/>
      <use x="177.783203" xlink:href="#Helvetica-103"/>
      <use x="233.398438" xlink:href="#Helvetica-101"/>
      <use x="289.013672" xlink:href="#Helvetica-110"/>
      <use x="344.628906" xlink:href="#Helvetica-32"/>
      <use x="372.412109" xlink:href="#Helvetica-100"/>
      <use x="428.027344" xlink:href="#Helvetica-101"/>
      <use x="483.642578" xlink:href="#Helvetica-102"/>
      <use x="511.425781" xlink:href="#Helvetica-105"/>
      <use x="533.642578" xlink:href="#Helvetica-99"/>
      <use x="583.642578" xlink:href="#Helvetica-105"/>
      <use x="605.859375" xlink:href="#Helvetica-101"/>
      <use x="661.474609" xlink:href="#Helvetica-110"/>
      <use x="717.089844" xlink:href="#Helvetica-99"/>
      <use x="767.089844" xlink:href="#Helvetica-121"/>
      <use x="817.089844" xlink:href="#Helvetica-32"/>
      <use x="844.873047" xlink:href="#Helvetica-40"/>
      <use x="878.173828" xlink:href="#Helvetica-37"/>
      <use x="967.089844" xlink:href="#Helvetica-41"/>
     </g>
    </g>
   </g>
   <g id="matplotlib.axis_2">
    <g id="ytick_1">
     <g id="line2d_5">
      <defs>
       <path d="M 0 0 
L -3.5 0 
" id="mf139088e53" style="stroke:#000000;stroke-width:0.8;"/>
      </defs>
      <g>
       <use style="stroke:#000000;stroke-width:0.8;" x="47.5775" xlink:href="#mf139088e53" y="139.669375"/>
      </g>
     </g>
     <g id="text_6">
      <!-- 98.0 -->
      <defs>
       <path d="M 13.28125 16.890625 
Q 13.671875 9.625 18.890625 6.84375 
Q 21.578125 5.375 24.953125 5.375 
Q 31.25 5.375 35.6875 10.625 
Q 40.140625 15.875 42 31.9375 
Q 39.0625 27.296875 34.734375 25.40625 
Q 30.421875 23.53125 25.4375 23.53125 
Q 15.328125 23.53125 9.4375 29.828125 
Q 3.5625 36.140625 3.5625 46.046875 
Q 3.5625 55.5625 9.375 62.78125 
Q 15.1875 70.015625 26.515625 70.015625 
Q 41.796875 70.015625 47.609375 56.25 
Q 50.828125 48.6875 50.828125 37.3125 
Q 50.828125 24.46875 46.96875 14.546875 
Q 40.578125 -1.953125 25.296875 -1.953125 
Q 15.046875 -1.953125 9.71875 3.421875 
Q 4.390625 8.796875 4.390625 16.890625 
z
M 26.609375 31.25 
Q 31.84375 31.25 36.15625 34.6875 
Q 40.484375 38.140625 40.484375 46.734375 
Q 40.484375 54.4375 36.59375 58.21875 
Q 32.71875 62.015625 26.703125 62.015625 
Q 20.265625 62.015625 16.484375 57.6875 
Q 12.703125 53.375 12.703125 46.140625 
Q 12.703125 39.3125 16.015625 35.28125 
Q 19.34375 31.25 26.609375 31.25 
z
" id="Helvetica-57"/>
      </defs>
      <g transform="translate(25.00875 142.53875)scale(0.08 -0.08)">
       <use xlink:href="#Helvetica-57"/>
       <use x="55.615234" xlink:href="#Helvetica-56"/>
       <use x="111.230469" xlink:href="#Helvetica-46"/>
       <use x="139.013672" xlink:href="#Helvetica-48"/>
      </g>
     </g>
    </g>
    <g id="ytick_2">
     <g id="line2d_6">
      <g>
       <use style="stroke:#000000;stroke-width:0.8;" x="47.5775" xlink:href="#mf139088e53" y="118.069375"/>
      </g>
     </g>
     <g id="text_7">
      <!-- 98.5 -->
      <g transform="translate(25.00875 120.93875)scale(0.08 -0.08)">
       <use xlink:href="#Helvetica-57"/>
       <use x="55.615234" xlink:href="#Helvetica-56"/>
       <use x="111.230469" xlink:href="#Helvetica-46"/>
       <use x="139.013672" xlink:href="#Helvetica-53"/>
      </g>
     </g>
    </g>
    <g id="ytick_3">
     <g id="line2d_7">
      <g>
       <use style="stroke:#000000;stroke-width:0.8;" x="47.5775" xlink:href="#mf139088e53" y="96.469375"/>
      </g>
     </g>
     <g id="text_8">
      <!-- 99.0 -->
      <g transform="translate(25.00875 99.33875)scale(0.08 -0.08)">
       <use xlink:href="#Helvetica-57"/>
       <use x="55.615234" xlink:href="#Helvetica-57"/>
       <use x="111.230469" xlink:href="#Helvetica-46"/>
       <use x="139.013672" xlink:href="#Helvetica-48"/>
      </g>
     </g>
    </g>
    <g id="ytick_4">
     <g id="line2d_8">
      <g>
       <use style="stroke:#000000;stroke-width:0.8;" x="47.5775" xlink:href="#mf139088e53" y="74.869375"/>
      </g>
     </g>
     <g id="text_9">
      <!-- 99.5 -->
      <g transform="translate(25.00875 77.73875)scale(0.08 -0.08)">
       <use xlink:href="#Helvetica-57"/>
       <use x="55.615234" xlink:href="#Helvetica-57"/>
       <use x="111.230469" xlink:href="#Helvetica-46"/>
       <use x="139.013672" xlink:href="#Helvetica-53"/>
      </g>
     </g>
    </g>
    <g id="ytick_5">
     <g id="line2d_9">
      <g>
       <use style="stroke:#000000;stroke-width:0.8;" x="47.5775" xlink:href="#mf139088e53" y="53.269375"/>
      </g>
     </g>
     <g id="text_10">
      <!-- 100.0 -->
      <g transform="translate(20.56 56.13875)scale(0.08 -0.08)">
       <use xlink:href="#Helvetica-49"/>
       <use x="55.615234" xlink:href="#Helvetica-48"/>
       <use x="111.230469" xlink:href="#Helvetica-48"/>
       <use x="166.845703" xlink:href="#Helvetica-46"/>
       <use x="194.628906" xlink:href="#Helvetica-48"/>
      </g>
     </g>
    </g>
    <g id="ytick_6">
     <g id="line2d_10">
      <g>
       <use style="stroke:#000000;stroke-width:0.8;" x="47.5775" xlink:href="#mf139088e53" y="31.669375"/>
      </g>
     </g>
     <g id="text_11">
      <!-- 100.5 -->
      <g transform="translate(20.56 34.53875)scale(0.08 -0.08)">
       <use xlink:href="#Helvetica-49"/>
       <use x="55.615234" xlink:href="#Helvetica-48"/>
       <use x="111.230469" xlink:href="#Helvetica-48"/>
       <use x="166.845703" xlink:href="#Helvetica-46"/>
       <use x="194.628906" xlink:href="#Helvetica-53"/>
      </g>
     </g>
    </g>
    <g id="ytick_7">
     <g id="line2d_11">
      <g>
       <use style="stroke:#000000;stroke-width:0.8;" x="47.5775" xlink:href="#mf139088e53" y="10.069375"/>
      </g>
     </g>
     <g id="text_12">
      <!-- 101.0 -->
      <g transform="translate(20.56 12.93875)scale(0.08 -0.08)">
       <use xlink:href="#Helvetica-49"/>
       <use x="55.615234" xlink:href="#Helvetica-48"/>
       <use x="111.230469" xlink:href="#Helvetica-49"/>
       <use x="166.845703" xlink:href="#Helvetica-46"/>
       <use x="194.628906" xlink:href="#Helvetica-48"/>
      </g>
     </g>
    </g>
    <g id="text_13">
     <!-- Unit cell lattice volume (Å$^{3}$) -->
     <defs>
      <path d="M 18.171875 71.734375 
L 18.171875 27.390625 
Q 18.171875 19.578125 21.09375 14.40625 
Q 25.4375 6.59375 35.75 6.59375 
Q 48.09375 6.59375 52.546875 15.046875 
Q 54.9375 19.625 54.9375 27.390625 
L 54.9375 71.734375 
L 64.796875 71.734375 
L 64.796875 31.453125 
Q 64.796875 18.21875 61.234375 11.078125 
Q 54.6875 -1.90625 36.53125 -1.90625 
Q 18.359375 -1.90625 11.859375 11.078125 
Q 8.296875 18.21875 8.296875 31.453125 
L 8.296875 71.734375 
z
M 36.578125 71.734375 
z
" id="Helvetica-85"/>
      <path d="M 8.203125 66.890625 
L 17.09375 66.890625 
L 17.09375 52.296875 
L 25.4375 52.296875 
L 25.4375 45.125 
L 17.09375 45.125 
L 17.09375 10.984375 
Q 17.09375 8.25 18.953125 7.328125 
Q 19.96875 6.78125 22.359375 6.78125 
Q 23 6.78125 23.734375 6.8125 
Q 24.46875 6.84375 25.4375 6.9375 
L 25.4375 0 
Q 23.921875 -0.4375 22.28125 -0.625 
Q 20.65625 -0.828125 18.75 -0.828125 
Q 12.59375 -0.828125 10.390625 2.3125 
Q 8.203125 5.46875 8.203125 10.5 
L 8.203125 45.125 
L 1.125 45.125 
L 1.125 52.296875 
L 8.203125 52.296875 
z
" id="Helvetica-116"/>
      <path d="M 6.6875 71.734375 
L 15.484375 71.734375 
L 15.484375 0 
L 6.6875 0 
z
" id="Helvetica-108"/>
      <path d="M 13.1875 13.921875 
Q 13.1875 10.109375 15.96875 7.90625 
Q 18.75 5.71875 22.5625 5.71875 
Q 27.203125 5.71875 31.546875 7.859375 
Q 38.875 11.421875 38.875 19.53125 
L 38.875 26.609375 
Q 37.25 25.59375 34.703125 24.90625 
Q 32.171875 24.21875 29.734375 23.921875 
L 24.421875 23.25 
Q 19.625 22.609375 17.234375 21.234375 
Q 13.1875 18.953125 13.1875 13.921875 
z
M 34.46875 31.6875 
Q 37.5 32.078125 38.53125 34.234375 
Q 39.109375 35.40625 39.109375 37.59375 
Q 39.109375 42.09375 35.90625 44.109375 
Q 32.71875 46.140625 26.765625 46.140625 
Q 19.875 46.140625 17 42.4375 
Q 15.375 40.375 14.890625 36.328125 
L 6.6875 36.328125 
Q 6.9375 46 12.96875 49.78125 
Q 19 53.5625 26.953125 53.5625 
Q 36.1875 53.5625 41.9375 50.046875 
Q 47.65625 46.53125 47.65625 39.109375 
L 47.65625 8.984375 
Q 47.65625 7.625 48.21875 6.78125 
Q 48.78125 5.953125 50.59375 5.953125 
Q 51.171875 5.953125 51.90625 6.03125 
Q 52.640625 6.109375 53.46875 6.25 
L 53.46875 -0.25 
Q 51.421875 -0.828125 50.34375 -0.96875 
Q 49.265625 -1.125 47.40625 -1.125 
Q 42.875 -1.125 40.828125 2.09375 
Q 39.75 3.8125 39.3125 6.9375 
Q 36.625 3.421875 31.59375 0.828125 
Q 26.5625 -1.765625 20.515625 -1.765625 
Q 13.234375 -1.765625 8.609375 2.65625 
Q 4 7.078125 4 13.71875 
Q 4 21 8.546875 25 
Q 13.09375 29 20.453125 29.9375 
z
M 27.203125 53.5625 
z
" id="Helvetica-97"/>
      <path d="M 10.75 52.296875 
L 24.703125 9.71875 
L 39.3125 52.296875 
L 48.921875 52.296875 
L 29.203125 0 
L 19.828125 0 
L 0.53125 52.296875 
z
" id="Helvetica-118"/>
      <path d="M 27.203125 5.671875 
Q 35.9375 5.671875 39.1875 12.28125 
Q 42.4375 18.890625 42.4375 27 
Q 42.4375 34.328125 40.09375 38.921875 
Q 36.375 46.140625 27.296875 46.140625 
Q 19.234375 46.140625 15.578125 39.984375 
Q 11.921875 33.84375 11.921875 25.140625 
Q 11.921875 16.796875 15.578125 11.234375 
Q 19.234375 5.671875 27.203125 5.671875 
z
M 27.546875 53.8125 
Q 37.640625 53.8125 44.625 47.0625 
Q 51.609375 40.328125 51.609375 27.25 
Q 51.609375 14.59375 45.453125 6.34375 
Q 39.3125 -1.90625 26.375 -1.90625 
Q 15.578125 -1.90625 9.21875 5.390625 
Q 2.875 12.703125 2.875 25 
Q 2.875 38.1875 9.5625 46 
Q 16.265625 53.8125 27.546875 53.8125 
z
M 27.25 53.5625 
z
" id="Helvetica-111"/>
      <path d="M 15.234375 52.296875 
L 15.234375 17.578125 
Q 15.234375 13.578125 16.5 11.03125 
Q 18.84375 6.34375 25.25 6.34375 
Q 34.421875 6.34375 37.75 14.546875 
Q 39.546875 18.953125 39.546875 26.609375 
L 39.546875 52.296875 
L 48.34375 52.296875 
L 48.34375 0 
L 40.046875 0 
L 40.140625 7.71875 
Q 38.421875 4.734375 35.890625 2.6875 
Q 30.859375 -1.421875 23.6875 -1.421875 
Q 12.5 -1.421875 8.453125 6.0625 
Q 6.25 10.0625 6.25 16.75 
L 6.25 52.296875 
z
M 27.296875 53.5625 
z
" id="Helvetica-117"/>
      <path d="M 6.453125 52.296875 
L 15.140625 52.296875 
L 15.140625 44.875 
Q 18.265625 48.734375 20.796875 50.484375 
Q 25.140625 53.46875 30.671875 53.46875 
Q 36.921875 53.46875 40.71875 50.390625 
Q 42.875 48.640625 44.625 45.21875 
Q 47.5625 49.421875 51.515625 51.4375 
Q 55.46875 53.46875 60.40625 53.46875 
Q 70.953125 53.46875 74.75 45.84375 
Q 76.8125 41.75 76.8125 34.8125 
L 76.8125 0 
L 67.671875 0 
L 67.671875 36.328125 
Q 67.671875 41.546875 65.0625 43.5 
Q 62.453125 45.453125 58.6875 45.453125 
Q 53.515625 45.453125 49.78125 41.984375 
Q 46.046875 38.53125 46.046875 30.421875 
L 46.046875 0 
L 37.109375 0 
L 37.109375 34.125 
Q 37.109375 39.453125 35.84375 41.890625 
Q 33.84375 45.5625 28.375 45.5625 
Q 23.390625 45.5625 19.3125 41.703125 
Q 15.234375 37.84375 15.234375 27.734375 
L 15.234375 0 
L 6.453125 0 
z
" id="Helvetica-109"/>
      <path d="M 44.4375 29.390625 
L 33.546875 61.078125 
L 21.96875 29.390625 
z
M 28.46875 71.734375 
L 39.453125 71.734375 
L 65.484375 0 
L 54.828125 0 
L 47.5625 21.484375 
L 19.1875 21.484375 
L 11.421875 0 
L 1.46875 0 
z
M 34.234375 78.65625 
Q 36.765625 78.65625 38.5625 80.46875 
Q 40.375 82.28125 40.375 84.8125 
Q 40.375 87.359375 38.5625 89.15625 
Q 36.765625 90.96875 34.234375 90.96875 
Q 31.734375 90.96875 29.921875 89.15625 
Q 28.125 87.359375 28.125 84.8125 
Q 28.125 82.28125 29.921875 80.46875 
Q 31.734375 78.65625 34.234375 78.65625 
z
M 34.234375 95.015625 
Q 38.421875 95.015625 41.421875 92.015625 
Q 44.4375 89.015625 44.4375 84.8125 
Q 44.4375 80.609375 41.421875 77.609375 
Q 38.421875 74.609375 34.234375 74.609375 
Q 30.03125 74.609375 27.046875 77.609375 
Q 24.078125 80.609375 24.078125 84.8125 
Q 24.078125 89.015625 27.046875 92.015625 
Q 30.03125 95.015625 34.234375 95.015625 
z
" id="Helvetica-197"/>
      <path d="M 25.984375 -1.90625 
Q 13.578125 -1.90625 7.984375 4.90625 
Q 2.390625 11.71875 2.390625 21.484375 
L 11.578125 21.484375 
Q 12.15625 14.703125 14.109375 11.625 
Q 17.53125 6.109375 26.46875 6.109375 
Q 33.40625 6.109375 37.59375 9.8125 
Q 41.796875 13.53125 41.796875 19.390625 
Q 41.796875 26.609375 37.375 29.484375 
Q 32.953125 32.375 25.09375 32.375 
Q 24.21875 32.375 23.3125 32.34375 
Q 22.40625 32.328125 21.484375 32.28125 
L 21.484375 40.046875 
Q 22.859375 39.890625 23.78125 39.84375 
Q 24.703125 39.796875 25.78125 39.796875 
Q 30.71875 39.796875 33.890625 41.359375 
Q 39.453125 44.09375 39.453125 51.125 
Q 39.453125 56.34375 35.734375 59.171875 
Q 32.03125 62.015625 27.09375 62.015625 
Q 18.3125 62.015625 14.9375 56.15625 
Q 13.09375 52.9375 12.84375 46.96875 
L 4.15625 46.96875 
Q 4.15625 54.78125 7.28125 60.25 
Q 12.640625 70.015625 26.171875 70.015625 
Q 36.859375 70.015625 42.71875 65.25 
Q 48.578125 60.5 48.578125 51.46875 
Q 48.578125 45.015625 45.125 41.015625 
Q 42.96875 38.53125 39.546875 37.109375 
Q 45.0625 35.59375 48.15625 31.265625 
Q 51.265625 26.953125 51.265625 20.703125 
Q 51.265625 10.6875 44.671875 4.390625 
Q 38.09375 -1.90625 25.984375 -1.90625 
z
" id="Helvetica-51"/>
     </defs>
     <g transform="translate(14.88 122.829375)rotate(-90)scale(0.08 -0.08)">
      <use transform="translate(0 0.984375)" xlink:href="#Helvetica-85"/>
      <use transform="translate(72.216797 0.984375)" xlink:href="#Helvetica-110"/>
      <use transform="translate(127.832031 0.984375)" xlink:href="#Helvetica-105"/>
      <use transform="translate(150.048828 0.984375)" xlink:href="#Helvetica-116"/>
      <use transform="translate(177.832031 0.984375)" xlink:href="#Helvetica-32"/>
      <use transform="translate(205.615234 0.984375)" xlink:href="#Helvetica-99"/>
      <use transform="translate(255.615234 0.984375)" xlink:href="#Helvetica-101"/>
      <use transform="translate(311.230469 0.984375)" xlink:href="#Helvetica-108"/>
      <use transform="translate(333.447266 0.984375)" xlink:href="#Helvetica-108"/>
      <use transform="translate(355.664062 0.984375)" xlink:href="#Helvetica-32"/>
      <use transform="translate(383.447266 0.984375)" xlink:href="#Helvetica-108"/>
      <use transform="translate(405.664062 0.984375)" xlink:href="#Helvetica-97"/>
      <use transform="translate(461.279297 0.984375)" xlink:href="#Helvetica-116"/>
      <use transform="translate(489.0625 0.984375)" xlink:href="#Helvetica-116"/>
      <use transform="translate(516.845703 0.984375)" xlink:href="#Helvetica-105"/>
      <use transform="translate(539.0625 0.984375)" xlink:href="#Helvetica-99"/>
      <use transform="translate(589.0625 0.984375)" xlink:href="#Helvetica-101"/>
      <use transform="translate(644.677734 0.984375)" xlink:href="#Helvetica-32"/>
      <use transform="translate(672.460938 0.984375)" xlink:href="#Helvetica-118"/>
      <use transform="translate(722.460938 0.984375)" xlink:href="#Helvetica-111"/>
      <use transform="translate(778.076172 0.984375)" xlink:href="#Helvetica-108"/>
      <use transform="translate(800.292969 0.984375)" xlink:href="#Helvetica-117"/>
      <use transform="translate(855.908203 0.984375)" xlink:href="#Helvetica-109"/>
      <use transform="translate(939.208984 0.984375)" xlink:href="#Helvetica-101"/>
      <use transform="translate(994.824219 0.984375)" xlink:href="#Helvetica-32"/>
      <use transform="translate(1022.607422 0.984375)" xlink:href="#Helvetica-40"/>
      <use transform="translate(1055.908203 0.984375)" xlink:href="#Helvetica-197"/>
      <use transform="translate(1123.522617 37.592187)scale(0.7)" xlink:href="#Helvetica-51"/>
      <use transform="translate(1165.068125 0.984375)" xlink:href="#Helvetica-41"/>
     </g>
    </g>
   </g>
   <g id="line2d_12">
    <path clip-path="url(#p50b258e3b8)" d="M 63.7775 93.124006 
L 63.7775 93.124006 
" style="fill:none;stroke:#000000;stroke-linecap:square;stroke-opacity:0.65;"/>
   </g>
   <g id="line2d_13">
    <path clip-path="url(#p50b258e3b8)" d="M 63.7775 93.124006 
L 63.7775 93.124006 
" style="fill:none;stroke:#000000;stroke-linecap:square;stroke-opacity:0.65;"/>
   </g>
   <g id="line2d_14">
    <path clip-path="url(#p50b258e3b8)" d="M 60.1325 93.124006 
L 67.4225 93.124006 
" style="fill:none;stroke:#000000;stroke-linecap:square;"/>
   </g>
   <g id="line2d_15">
    <path clip-path="url(#p50b258e3b8)" d="M 60.1325 93.124006 
L 67.4225 93.124006 
" style="fill:none;stroke:#000000;stroke-linecap:square;"/>
   </g>
   <g id="line2d_16"/>
   <g id="line2d_17">
    <path clip-path="url(#p50b258e3b8)" d="M 96.1775 74.314069 
L 96.1775 99.374853 
" style="fill:none;stroke:#000000;stroke-linecap:square;stroke-opacity:0.65;"/>
   </g>
   <g id="line2d_18">
    <path clip-path="url(#p50b258e3b8)" d="M 96.1775 53.949499 
L 96.1775 30.868226 
" style="fill:none;stroke:#000000;stroke-linecap:square;stroke-opacity:0.65;"/>
   </g>
   <g id="line2d_19">
    <path clip-path="url(#p50b258e3b8)" d="M 92.5325 99.374853 
L 99.8225 99.374853 
" style="fill:none;stroke:#000000;stroke-linecap:square;"/>
   </g>
   <g id="line2d_20">
    <path clip-path="url(#p50b258e3b8)" d="M 92.5325 30.868226 
L 99.8225 30.868226 
" style="fill:none;stroke:#000000;stroke-linecap:square;"/>
   </g>
   <g id="line2d_21">
    <defs>
     <path d="M 0 0.5 
C 0.132602 0.5 0.25979 0.447317 0.353553 0.353553 
C 0.447317 0.25979 0.5 0.132602 0.5 0 
C 0.5 -0.132602 0.447317 -0.25979 0.353553 -0.353553 
C 0.25979 -0.447317 0.132602 -0.5 0 -0.5 
C -0.132602 -0.5 -0.25979 -0.447317 -0.353553 -0.353553 
C -0.447317 -0.25979 -0.5 -0.132602 -0.5 0 
C -0.5 0.132602 -0.447317 0.25979 -0.353553 0.353553 
C -0.25979 0.447317 -0.132602 0.5 0 0.5 
z
" id="m2747f653f7" style="stroke:#000000;stroke-opacity:0.65;"/>
    </defs>
    <g clip-path="url(#p50b258e3b8)">
     <use style="fill:#808080;fill-opacity:0.65;stroke:#000000;stroke-opacity:0.65;" x="96.1775" xlink:href="#m2747f653f7" y="113.170249"/>
    </g>
   </g>
   <g id="line2d_22">
    <path clip-path="url(#p50b258e3b8)" d="M 128.5775 58.039742 
L 128.5775 65.167724 
" style="fill:none;stroke:#000000;stroke-linecap:square;stroke-opacity:0.65;"/>
   </g>
   <g id="line2d_23">
    <path clip-path="url(#p50b258e3b8)" d="M 128.5775 49.780132 
L 128.5775 48.648504 
" style="fill:none;stroke:#000000;stroke-linecap:square;stroke-opacity:0.65;"/>
   </g>
   <g id="line2d_24">
    <path clip-path="url(#p50b258e3b8)" d="M 124.9325 65.167724 
L 132.2225 65.167724 
" style="fill:none;stroke:#000000;stroke-linecap:square;"/>
   </g>
   <g id="line2d_25">
    <path clip-path="url(#p50b258e3b8)" d="M 124.9325 48.648504 
L 132.2225 48.648504 
" style="fill:none;stroke:#000000;stroke-linecap:square;"/>
   </g>
   <g id="line2d_26"/>
   <g id="line2d_27">
    <path clip-path="url(#p50b258e3b8)" d="M 160.9775 30.732408 
L 160.9775 30.732408 
" style="fill:none;stroke:#000000;stroke-linecap:square;stroke-opacity:0.65;"/>
   </g>
   <g id="line2d_28">
    <path clip-path="url(#p50b258e3b8)" d="M 160.9775 30.732408 
L 160.9775 30.732408 
" style="fill:none;stroke:#000000;stroke-linecap:square;stroke-opacity:0.65;"/>
   </g>
   <g id="line2d_29">
    <path clip-path="url(#p50b258e3b8)" d="M 157.3325 30.732408 
L 164.6225 30.732408 
" style="fill:none;stroke:#000000;stroke-linecap:square;"/>
   </g>
   <g id="line2d_30">
    <path clip-path="url(#p50b258e3b8)" d="M 157.3325 30.732408 
L 164.6225 30.732408 
" style="fill:none;stroke:#000000;stroke-linecap:square;"/>
   </g>
   <g id="line2d_31"/>
   <g id="line2d_32">
    <defs>
     <path d="M 0 1.5 
C 0.397805 1.5 0.77937 1.341951 1.06066 1.06066 
C 1.341951 0.77937 1.5 0.397805 1.5 0 
C 1.5 -0.397805 1.341951 -0.77937 1.06066 -1.06066 
C 0.77937 -1.341951 0.397805 -1.5 0 -1.5 
C -0.397805 -1.5 -0.77937 -1.341951 -1.06066 -1.06066 
C -1.341951 -0.77937 -1.5 -0.397805 -1.5 0 
C -1.5 0.397805 -1.341951 0.77937 -1.06066 1.06066 
C -0.77937 1.341951 -0.397805 1.5 0 1.5 
z
" id="md5ead470b7" style="stroke:#1f77b4;"/>
    </defs>
    <g clip-path="url(#p50b258e3b8)">
     <use style="fill:#1f77b4;stroke:#1f77b4;" x="63.7775" xlink:href="#md5ead470b7" y="93.124006"/>
    </g>
   </g>
   <g id="line2d_33">
    <defs>
     <path d="M 0 1.5 
C 0.397805 1.5 0.77937 1.341951 1.06066 1.06066 
C 1.341951 0.77937 1.5 0.397805 1.5 0 
C 1.5 -0.397805 1.341951 -0.77937 1.06066 -1.06066 
C 0.77937 -1.341951 0.397805 -1.5 0 -1.5 
C -0.397805 -1.5 -0.77937 -1.341951 -1.06066 -1.06066 
C -1.341951 -0.77937 -1.5 -0.397805 -1.5 0 
C -1.5 0.397805 -1.341951 0.77937 -1.06066 1.06066 
C -0.77937 1.341951 -0.397805 1.5 0 1.5 
z
" id="mc715d73717" style="stroke:#ff7f0e;"/>
    </defs>
    <g clip-path="url(#p50b258e3b8)">
     <use style="fill:#ff7f0e;stroke:#ff7f0e;" x="96.1775" xlink:href="#mc715d73717" y="66.50219"/>
     <use style="fill:#ff7f0e;stroke:#ff7f0e;" x="96.1775" xlink:href="#mc715d73717" y="113.170249"/>
     <use style="fill:#ff7f0e;stroke:#ff7f0e;" x="96.1775" xlink:href="#mc715d73717" y="99.374853"/>
     <use style="fill:#ff7f0e;stroke:#ff7f0e;" x="96.1775" xlink:href="#mc715d73717" y="59.529782"/>
     <use style="fill:#ff7f0e;stroke:#ff7f0e;" x="96.1775" xlink:href="#mc715d73717" y="68.388669"/>
     <use style="fill:#ff7f0e;stroke:#ff7f0e;" x="96.1775" xlink:href="#mc715d73717" y="82.217742"/>
     <use style="fill:#ff7f0e;stroke:#ff7f0e;" x="96.1775" xlink:href="#mc715d73717" y="80.912595"/>
     <use style="fill:#ff7f0e;stroke:#ff7f0e;" x="96.1775" xlink:href="#mc715d73717" y="61.198118"/>
     <use style="fill:#ff7f0e;stroke:#ff7f0e;" x="96.1775" xlink:href="#mc715d73717" y="60.220436"/>
     <use style="fill:#ff7f0e;stroke:#ff7f0e;" x="96.1775" xlink:href="#mc715d73717" y="44.392004"/>
     <use style="fill:#ff7f0e;stroke:#ff7f0e;" x="96.1775" xlink:href="#mc715d73717" y="76.383574"/>
     <use style="fill:#ff7f0e;stroke:#ff7f0e;" x="96.1775" xlink:href="#mc715d73717" y="61.010501"/>
     <use style="fill:#ff7f0e;stroke:#ff7f0e;" x="96.1775" xlink:href="#mc715d73717" y="52.076336"/>
     <use style="fill:#ff7f0e;stroke:#ff7f0e;" x="96.1775" xlink:href="#mc715d73717" y="71.042001"/>
     <use style="fill:#ff7f0e;stroke:#ff7f0e;" x="96.1775" xlink:href="#mc715d73717" y="68.302065"/>
     <use style="fill:#ff7f0e;stroke:#ff7f0e;" x="96.1775" xlink:href="#mc715d73717" y="60.725234"/>
     <use style="fill:#ff7f0e;stroke:#ff7f0e;" x="96.1775" xlink:href="#mc715d73717" y="59.732312"/>
     <use style="fill:#ff7f0e;stroke:#ff7f0e;" x="96.1775" xlink:href="#mc715d73717" y="84.367359"/>
     <use style="fill:#ff7f0e;stroke:#ff7f0e;" x="96.1775" xlink:href="#mc715d73717" y="44.924958"/>
     <use style="fill:#ff7f0e;stroke:#ff7f0e;" x="96.1775" xlink:href="#mc715d73717" y="58.236838"/>
     <use style="fill:#ff7f0e;stroke:#ff7f0e;" x="96.1775" xlink:href="#mc715d73717" y="73.53943"/>
     <use style="fill:#ff7f0e;stroke:#ff7f0e;" x="96.1775" xlink:href="#mc715d73717" y="89.198157"/>
     <use style="fill:#ff7f0e;stroke:#ff7f0e;" x="96.1775" xlink:href="#mc715d73717" y="52.181047"/>
     <use style="fill:#ff7f0e;stroke:#ff7f0e;" x="96.1775" xlink:href="#mc715d73717" y="52.491153"/>
     <use style="fill:#ff7f0e;stroke:#ff7f0e;" x="96.1775" xlink:href="#mc715d73717" y="95.221045"/>
     <use style="fill:#ff7f0e;stroke:#ff7f0e;" x="96.1775" xlink:href="#mc715d73717" y="71.446848"/>
     <use style="fill:#ff7f0e;stroke:#ff7f0e;" x="96.1775" xlink:href="#mc715d73717" y="73.863539"/>
     <use style="fill:#ff7f0e;stroke:#ff7f0e;" x="96.1775" xlink:href="#mc715d73717" y="57.534091"/>
     <use style="fill:#ff7f0e;stroke:#ff7f0e;" x="96.1775" xlink:href="#mc715d73717" y="75.66566"/>
     <use style="fill:#ff7f0e;stroke:#ff7f0e;" x="96.1775" xlink:href="#mc715d73717" y="36.329942"/>
     <use style="fill:#ff7f0e;stroke:#ff7f0e;" x="96.1775" xlink:href="#mc715d73717" y="68.581516"/>
     <use style="fill:#ff7f0e;stroke:#ff7f0e;" x="96.1775" xlink:href="#mc715d73717" y="48.254482"/>
     <use style="fill:#ff7f0e;stroke:#ff7f0e;" x="96.1775" xlink:href="#mc715d73717" y="54.02117"/>
     <use style="fill:#ff7f0e;stroke:#ff7f0e;" x="96.1775" xlink:href="#mc715d73717" y="72.086354"/>
     <use style="fill:#ff7f0e;stroke:#ff7f0e;" x="96.1775" xlink:href="#mc715d73717" y="38.351983"/>
     <use style="fill:#ff7f0e;stroke:#ff7f0e;" x="96.1775" xlink:href="#mc715d73717" y="58.697412"/>
     <use style="fill:#ff7f0e;stroke:#ff7f0e;" x="96.1775" xlink:href="#mc715d73717" y="82.269715"/>
     <use style="fill:#ff7f0e;stroke:#ff7f0e;" x="96.1775" xlink:href="#mc715d73717" y="88.48262"/>
     <use style="fill:#ff7f0e;stroke:#ff7f0e;" x="96.1775" xlink:href="#mc715d73717" y="53.734486"/>
     <use style="fill:#ff7f0e;stroke:#ff7f0e;" x="96.1775" xlink:href="#mc715d73717" y="55.231227"/>
     <use style="fill:#ff7f0e;stroke:#ff7f0e;" x="96.1775" xlink:href="#mc715d73717" y="83.09412"/>
     <use style="fill:#ff7f0e;stroke:#ff7f0e;" x="96.1775" xlink:href="#mc715d73717" y="57.082337"/>
     <use style="fill:#ff7f0e;stroke:#ff7f0e;" x="96.1775" xlink:href="#mc715d73717" y="57.640007"/>
     <use style="fill:#ff7f0e;stroke:#ff7f0e;" x="96.1775" xlink:href="#mc715d73717" y="48.751371"/>
     <use style="fill:#ff7f0e;stroke:#ff7f0e;" x="96.1775" xlink:href="#mc715d73717" y="64.170173"/>
     <use style="fill:#ff7f0e;stroke:#ff7f0e;" x="96.1775" xlink:href="#mc715d73717" y="48.166925"/>
     <use style="fill:#ff7f0e;stroke:#ff7f0e;" x="96.1775" xlink:href="#mc715d73717" y="55.931772"/>
     <use style="fill:#ff7f0e;stroke:#ff7f0e;" x="96.1775" xlink:href="#mc715d73717" y="30.868226"/>
    </g>
   </g>
   <g id="line2d_34">
    <defs>
     <path d="M 0 1.5 
C 0.397805 1.5 0.77937 1.341951 1.06066 1.06066 
C 1.341951 0.77937 1.5 0.397805 1.5 0 
C 1.5 -0.397805 1.341951 -0.77937 1.06066 -1.06066 
C 0.77937 -1.341951 0.397805 -1.5 0 -1.5 
C -0.397805 -1.5 -0.77937 -1.341951 -1.06066 -1.06066 
C -1.341951 -0.77937 -1.5 -0.397805 -1.5 0 
C -1.5 0.397805 -1.341951 0.77937 -1.06066 1.06066 
C -0.77937 1.341951 -0.397805 1.5 0 1.5 
z
" id="m8dfc660a4b" style="stroke:#2ca02c;"/>
    </defs>
    <g clip-path="url(#p50b258e3b8)">
     <use style="fill:#2ca02c;stroke:#2ca02c;" x="128.5775" xlink:href="#m8dfc660a4b" y="65.167724"/>
     <use style="fill:#2ca02c;stroke:#2ca02c;" x="128.5775" xlink:href="#m8dfc660a4b" y="48.648504"/>
     <use style="fill:#2ca02c;stroke:#2ca02c;" x="128.5775" xlink:href="#m8dfc660a4b" y="50.911759"/>
    </g>
   </g>
   <g id="line2d_35">
    <defs>
     <path d="M 0 1.5 
C 0.397805 1.5 0.77937 1.341951 1.06066 1.06066 
C 1.341951 0.77937 1.5 0.397805 1.5 0 
C 1.5 -0.397805 1.341951 -0.77937 1.06066 -1.06066 
C 0.77937 -1.341951 0.397805 -1.5 0 -1.5 
C -0.397805 -1.5 -0.77937 -1.341951 -1.06066 -1.06066 
C -1.341951 -0.77937 -1.5 -0.397805 -1.5 0 
C -1.5 0.397805 -1.341951 0.77937 -1.06066 1.06066 
C -0.77937 1.341951 -0.397805 1.5 0 1.5 
z
" id="me395117308" style="stroke:#d62728;"/>
    </defs>
    <g clip-path="url(#p50b258e3b8)">
     <use style="fill:#d62728;stroke:#d62728;" x="160.9775" xlink:href="#me395117308" y="30.732408"/>
    </g>
   </g>
   <g id="patch_3">
    <path clip-path="url(#p50b258e3b8)" d="M 56.4875 93.124006 
L 71.0675 93.124006 
L 71.0675 93.124006 
L 56.4875 93.124006 
L 56.4875 93.124006 
z
" style="fill:#1f77b4;opacity:0.65;stroke:#000000;stroke-linejoin:miter;"/>
   </g>
   <g id="patch_4">
    <path clip-path="url(#p50b258e3b8)" d="M 88.8875 74.314069 
L 103.4675 74.314069 
L 103.4675 53.949499 
L 88.8875 53.949499 
L 88.8875 74.314069 
z
" style="fill:#ff7f0e;opacity:0.65;stroke:#000000;stroke-linejoin:miter;"/>
   </g>
   <g id="patch_5">
    <path clip-path="url(#p50b258e3b8)" d="M 121.2875 58.039742 
L 135.8675 58.039742 
L 135.8675 49.780132 
L 121.2875 49.780132 
L 121.2875 58.039742 
z
" style="fill:#2ca02c;opacity:0.65;stroke:#000000;stroke-linejoin:miter;"/>
   </g>
   <g id="patch_6">
    <path clip-path="url(#p50b258e3b8)" d="M 153.6875 30.732408 
L 168.2675 30.732408 
L 168.2675 30.732408 
L 153.6875 30.732408 
L 153.6875 30.732408 
z
" style="fill:#d62728;opacity:0.65;stroke:#000000;stroke-linejoin:miter;"/>
   </g>
   <g id="line2d_36">
    <path clip-path="url(#p50b258e3b8)" d="M 56.4875 93.124006 
L 71.0675 93.124006 
" style="fill:none;stroke:#000000;stroke-linecap:square;"/>
   </g>
   <g id="line2d_37">
    <path clip-path="url(#p50b258e3b8)" d="M 88.8875 60.867867 
L 103.4675 60.867867 
" style="fill:none;stroke:#000000;stroke-linecap:square;"/>
   </g>
   <g id="line2d_38">
    <path clip-path="url(#p50b258e3b8)" d="M 121.2875 50.911759 
L 135.8675 50.911759 
" style="fill:none;stroke:#000000;stroke-linecap:square;"/>
   </g>
   <g id="line2d_39">
    <path clip-path="url(#p50b258e3b8)" d="M 153.6875 30.732408 
L 168.2675 30.732408 
" style="fill:none;stroke:#000000;stroke-linecap:square;"/>
   </g>
   <g id="patch_7">
    <path d="M 47.5775 139.669375 
L 47.5775 10.069375 
" style="fill:none;stroke:#000000;stroke-linecap:square;stroke-linejoin:miter;stroke-width:0.75;"/>
   </g>
   <g id="patch_8">
    <path d="M 177.1775 139.669375 
L 177.1775 10.069375 
" style="fill:none;stroke:#000000;stroke-linecap:square;stroke-linejoin:miter;stroke-width:0.75;"/>
   </g>
   <g id="patch_9">
    <path d="M 47.5775 139.669375 
L 177.1775 139.669375 
" style="fill:none;stroke:#000000;stroke-linecap:square;stroke-linejoin:miter;stroke-width:0.75;"/>
   </g>
   <g id="patch_10">
    <path d="M 47.5775 10.069375 
L 177.1775 10.069375 
" style="fill:none;stroke:#000000;stroke-linecap:square;stroke-linejoin:miter;stroke-width:0.75;"/>
   </g>
  </g>
 </g>
 <defs>
  <clipPath id="p50b258e3b8">
   <rect height="129.6" width="129.6" x="47.5775" y="10.069375"/>
  </clipPath>
 </defs>
</svg>
