<?xml version="1.0" encoding="utf-8" standalone="no"?>
<!DOCTYPE svg PUBLIC "-//W3C//DTD SVG 1.1//EN"
  "http://www.w3.org/Graphics/SVG/1.1/DTD/svg11.dtd">
<!-- Created with matplotlib (https://matplotlib.org/) -->
<svg height="309.391617pt" version="1.1" viewBox="0 0 327.30625 309.391617" width="327.30625pt" xmlns="http://www.w3.org/2000/svg" xmlns:xlink="http://www.w3.org/1999/xlink">
 <defs>
  <style type="text/css">
*{stroke-linecap:butt;stroke-linejoin:round;}
  </style>
 </defs>
 <g id="figure_1">
  <g id="patch_1">
   <path d="M 0 309.391617 
L 327.30625 309.391617 
L 327.30625 0 
L 0 0 
z
" style="fill:#ffffff;"/>
  </g>
  <g id="axes_1">
   <g id="patch_2">
    <path d="M 34.98625 124.575399 
L 161.70625 124.575399 
L 161.70625 10.069375 
L 34.98625 10.069375 
z
" style="fill:#ffffff;"/>
   </g>
   <g id="patch_3">
    <path clip-path="url(#p3627219af1)" d="M 40.74625 124.575399 
L 49.607788 124.575399 
L 49.607788 124.575399 
L 40.74625 124.575399 
z
" style="fill:#1f77b4;opacity:0.65;stroke:#000000;stroke-linejoin:miter;stroke-width:0.75;"/>
   </g>
   <g id="patch_4">
    <path clip-path="url(#p3627219af1)" d="M 58.469327 124.575399 
L 67.330865 124.575399 
L 67.330865 124.575399 
L 58.469327 124.575399 
z
" style="fill:#ff7f0e;opacity:0.65;stroke:#000000;stroke-linejoin:miter;stroke-width:0.75;"/>
   </g>
   <g id="patch_5">
    <path clip-path="url(#p3627219af1)" d="M 76.192404 124.575399 
L 85.053942 124.575399 
L 85.053942 29.153712 
L 76.192404 29.153712 
z
" style="fill:#2ca02c;opacity:0.65;stroke:#000000;stroke-linejoin:miter;stroke-width:0.75;"/>
   </g>
   <g id="patch_6">
    <path clip-path="url(#p3627219af1)" d="M 93.915481 124.575399 
L 102.777019 124.575399 
L 102.777019 29.153712 
L 93.915481 29.153712 
z
" style="fill:#d62728;opacity:0.65;stroke:#000000;stroke-linejoin:miter;stroke-width:0.75;"/>
   </g>
   <g id="patch_7">
    <path clip-path="url(#p3627219af1)" d="M 111.638558 124.575399 
L 120.500096 124.575399 
L 120.500096 124.575399 
L 111.638558 124.575399 
z
" style="fill:#9467bd;opacity:0.65;stroke:#000000;stroke-linejoin:miter;stroke-width:0.75;"/>
   </g>
   <g id="patch_8">
    <path clip-path="url(#p3627219af1)" d="M 129.361635 124.575399 
L 138.223173 124.575399 
L 138.223173 124.575399 
L 129.361635 124.575399 
z
" style="fill:#8c564b;opacity:0.65;stroke:#000000;stroke-linejoin:miter;stroke-width:0.75;"/>
   </g>
   <g id="patch_9">
    <path clip-path="url(#p3627219af1)" d="M 147.084712 124.575399 
L 155.94625 124.575399 
L 155.94625 124.575399 
L 147.084712 124.575399 
z
" style="fill:#e377c2;opacity:0.65;stroke:#000000;stroke-linejoin:miter;stroke-width:0.75;"/>
   </g>
   <g id="matplotlib.axis_1"/>
   <g id="matplotlib.axis_2">
    <g id="ytick_1">
     <g id="line2d_1">
      <defs>
       <path d="M 0 0 
L -3.5 0 
" id="m8f9618e97f" style="stroke:#000000;stroke-width:0.8;"/>
      </defs>
      <g>
       <use style="stroke:#000000;stroke-width:0.8;" x="34.98625" xlink:href="#m8f9618e97f" y="124.575399"/>
      </g>
     </g>
     <g id="text_1">
      <!-- 0 -->
      <defs>
       <path d="M 27.046875 69.921875 
Q 40.625 69.921875 46.6875 58.734375 
Q 51.375 50.09375 51.375 35.0625 
Q 51.375 20.796875 47.125 11.46875 
Q 40.96875 -1.90625 27 -1.90625 
Q 14.40625 -1.90625 8.25 9.03125 
Q 3.125 18.171875 3.125 33.546875 
Q 3.125 45.453125 6.203125 54 
Q 11.96875 69.921875 27.046875 69.921875 
z
M 26.953125 6.109375 
Q 33.796875 6.109375 37.84375 12.15625 
Q 41.890625 18.21875 41.890625 34.71875 
Q 41.890625 46.625 38.953125 54.3125 
Q 36.03125 62.015625 27.59375 62.015625 
Q 19.828125 62.015625 16.234375 54.703125 
Q 12.640625 47.40625 12.640625 33.203125 
Q 12.640625 22.515625 14.9375 16.015625 
Q 18.453125 6.109375 26.953125 6.109375 
z
" id="Helvetica-48"/>
      </defs>
      <g transform="translate(23.5375 127.444774)scale(0.08 -0.08)">
       <use xlink:href="#Helvetica-48"/>
      </g>
     </g>
    </g>
    <g id="ytick_2">
     <g id="line2d_2">
      <g>
       <use style="stroke:#000000;stroke-width:0.8;" x="34.98625" xlink:href="#m8f9618e97f" y="105.491062"/>
      </g>
     </g>
     <g id="text_2">
      <!-- 10 -->
      <defs>
       <path d="M 9.578125 49.515625 
L 9.578125 56.25 
Q 19.09375 57.171875 22.84375 59.34375 
Q 26.609375 61.53125 28.46875 69.625 
L 35.40625 69.625 
L 35.40625 0 
L 26.03125 0 
L 26.03125 49.515625 
z
" id="Helvetica-49"/>
      </defs>
      <g transform="translate(19.08875 108.360437)scale(0.08 -0.08)">
       <use xlink:href="#Helvetica-49"/>
       <use x="55.615234" xlink:href="#Helvetica-48"/>
      </g>
     </g>
    </g>
    <g id="ytick_3">
     <g id="line2d_3">
      <g>
       <use style="stroke:#000000;stroke-width:0.8;" x="34.98625" xlink:href="#m8f9618e97f" y="86.406724"/>
      </g>
     </g>
     <g id="text_3">
      <!-- 20 -->
      <defs>
       <path d="M 3.125 0 
Q 3.609375 9.03125 6.859375 15.71875 
Q 10.109375 22.40625 19.53125 27.875 
L 28.90625 33.296875 
Q 35.203125 36.96875 37.75 39.546875 
Q 41.75 43.609375 41.75 48.828125 
Q 41.75 54.9375 38.078125 58.515625 
Q 34.421875 62.109375 28.328125 62.109375 
Q 19.28125 62.109375 15.828125 55.28125 
Q 13.96875 51.609375 13.765625 45.125 
L 4.828125 45.125 
Q 4.984375 54.25 8.203125 60.015625 
Q 13.921875 70.171875 28.375 70.171875 
Q 40.375 70.171875 45.921875 63.671875 
Q 51.46875 57.171875 51.46875 49.21875 
Q 51.46875 40.828125 45.5625 34.859375 
Q 42.140625 31.390625 33.296875 26.46875 
L 26.609375 22.75 
Q 21.828125 20.125 19.09375 17.71875 
Q 14.203125 13.484375 12.9375 8.296875 
L 51.125 8.296875 
L 51.125 0 
L 3.125 0 
z
" id="Helvetica-50"/>
      </defs>
      <g transform="translate(19.08875 89.276099)scale(0.08 -0.08)">
       <use xlink:href="#Helvetica-50"/>
       <use x="55.615234" xlink:href="#Helvetica-48"/>
      </g>
     </g>
    </g>
    <g id="ytick_4">
     <g id="line2d_4">
      <g>
       <use style="stroke:#000000;stroke-width:0.8;" x="34.98625" xlink:href="#m8f9618e97f" y="67.322387"/>
      </g>
     </g>
     <g id="text_4">
      <!-- 30 -->
      <defs>
       <path d="M 25.984375 -1.90625 
Q 13.578125 -1.90625 7.984375 4.90625 
Q 2.390625 11.71875 2.390625 21.484375 
L 11.578125 21.484375 
Q 12.15625 14.703125 14.109375 11.625 
Q 17.53125 6.109375 26.46875 6.109375 
Q 33.40625 6.109375 37.59375 9.8125 
Q 41.796875 13.53125 41.796875 19.390625 
Q 41.796875 26.609375 37.375 29.484375 
Q 32.953125 32.375 25.09375 32.375 
Q 24.21875 32.375 23.3125 32.34375 
Q 22.40625 32.328125 21.484375 32.28125 
L 21.484375 40.046875 
Q 22.859375 39.890625 23.78125 39.84375 
Q 24.703125 39.796875 25.78125 39.796875 
Q 30.71875 39.796875 33.890625 41.359375 
Q 39.453125 44.09375 39.453125 51.125 
Q 39.453125 56.34375 35.734375 59.171875 
Q 32.03125 62.015625 27.09375 62.015625 
Q 18.3125 62.015625 14.9375 56.15625 
Q 13.09375 52.9375 12.84375 46.96875 
L 4.15625 46.96875 
Q 4.15625 54.78125 7.28125 60.25 
Q 12.640625 70.015625 26.171875 70.015625 
Q 36.859375 70.015625 42.71875 65.25 
Q 48.578125 60.5 48.578125 51.46875 
Q 48.578125 45.015625 45.125 41.015625 
Q 42.96875 38.53125 39.546875 37.109375 
Q 45.0625 35.59375 48.15625 31.265625 
Q 51.265625 26.953125 51.265625 20.703125 
Q 51.265625 10.6875 44.671875 4.390625 
Q 38.09375 -1.90625 25.984375 -1.90625 
z
" id="Helvetica-51"/>
      </defs>
      <g transform="translate(19.08875 70.191762)scale(0.08 -0.08)">
       <use xlink:href="#Helvetica-51"/>
       <use x="55.615234" xlink:href="#Helvetica-48"/>
      </g>
     </g>
    </g>
    <g id="ytick_5">
     <g id="line2d_5">
      <g>
       <use style="stroke:#000000;stroke-width:0.8;" x="34.98625" xlink:href="#m8f9618e97f" y="48.23805"/>
      </g>
     </g>
     <g id="text_5">
      <!-- 40 -->
      <defs>
       <path d="M 33.0625 24.75 
L 33.0625 56.453125 
L 10.640625 24.75 
z
M 33.203125 0 
L 33.203125 17.09375 
L 2.546875 17.09375 
L 2.546875 25.6875 
L 34.578125 70.125 
L 42 70.125 
L 42 24.75 
L 52.296875 24.75 
L 52.296875 17.09375 
L 42 17.09375 
L 42 0 
z
" id="Helvetica-52"/>
      </defs>
      <g transform="translate(19.08875 51.107425)scale(0.08 -0.08)">
       <use xlink:href="#Helvetica-52"/>
       <use x="55.615234" xlink:href="#Helvetica-48"/>
      </g>
     </g>
    </g>
    <g id="ytick_6">
     <g id="line2d_6">
      <g>
       <use style="stroke:#000000;stroke-width:0.8;" x="34.98625" xlink:href="#m8f9618e97f" y="29.153712"/>
      </g>
     </g>
     <g id="text_6">
      <!-- 50 -->
      <defs>
       <path d="M 12.359375 17.828125 
Q 13.234375 10.296875 19.34375 7.421875 
Q 22.46875 5.953125 26.5625 5.953125 
Q 34.375 5.953125 38.125 10.9375 
Q 41.890625 15.921875 41.890625 21.96875 
Q 41.890625 29.296875 37.421875 33.296875 
Q 32.953125 37.3125 26.703125 37.3125 
Q 22.171875 37.3125 18.921875 35.546875 
Q 15.671875 33.796875 13.375 30.671875 
L 5.765625 31.109375 
L 11.078125 68.75 
L 47.40625 68.75 
L 47.40625 60.25 
L 17.671875 60.25 
L 14.703125 40.828125 
Q 17.140625 42.671875 19.34375 43.609375 
Q 23.25 45.21875 28.375 45.21875 
Q 37.984375 45.21875 44.671875 39.015625 
Q 51.375 32.8125 51.375 23.296875 
Q 51.375 13.375 45.234375 5.796875 
Q 39.109375 -1.765625 25.6875 -1.765625 
Q 17.140625 -1.765625 10.5625 3.046875 
Q 4 7.859375 3.21875 17.828125 
z
" id="Helvetica-53"/>
      </defs>
      <g transform="translate(19.08875 32.023087)scale(0.08 -0.08)">
       <use xlink:href="#Helvetica-53"/>
       <use x="55.615234" xlink:href="#Helvetica-48"/>
      </g>
     </g>
    </g>
    <g id="ytick_7">
     <g id="line2d_7">
      <g>
       <use style="stroke:#000000;stroke-width:0.8;" x="34.98625" xlink:href="#m8f9618e97f" y="10.069375"/>
      </g>
     </g>
     <g id="text_7">
      <!-- 60 -->
      <defs>
       <path d="M 29.25 70.21875 
Q 40.96875 70.21875 45.578125 64.140625 
Q 50.203125 58.0625 50.203125 51.609375 
L 41.5 51.609375 
Q 40.71875 55.765625 39.015625 58.109375 
Q 35.84375 62.5 29.390625 62.5 
Q 22.015625 62.5 17.671875 55.6875 
Q 13.328125 48.875 12.84375 36.1875 
Q 15.875 40.625 20.453125 42.828125 
Q 24.65625 44.78125 29.828125 44.78125 
Q 38.625 44.78125 45.15625 39.15625 
Q 51.703125 33.546875 51.703125 22.40625 
Q 51.703125 12.890625 45.5 5.53125 
Q 39.3125 -1.8125 27.828125 -1.8125 
Q 18.015625 -1.8125 10.890625 5.640625 
Q 3.765625 13.09375 3.765625 30.71875 
Q 3.765625 43.75 6.9375 52.828125 
Q 13.03125 70.21875 29.25 70.21875 
z
M 28.609375 6 
Q 35.546875 6 38.984375 10.65625 
Q 42.4375 15.328125 42.4375 21.6875 
Q 42.4375 27.046875 39.359375 31.90625 
Q 36.28125 36.765625 28.171875 36.765625 
Q 22.515625 36.765625 18.234375 33 
Q 13.96875 29.25 13.96875 21.6875 
Q 13.96875 15.046875 17.84375 10.515625 
Q 21.734375 6 28.609375 6 
z
" id="Helvetica-54"/>
      </defs>
      <g transform="translate(19.08875 12.93875)scale(0.08 -0.08)">
       <use xlink:href="#Helvetica-54"/>
       <use x="55.615234" xlink:href="#Helvetica-48"/>
      </g>
     </g>
    </g>
    <g id="text_8">
     <!-- % sites -->
     <defs>
      <path d="M 68.171875 33.984375 
Q 75.203125 33.984375 80.171875 29 
Q 85.15625 24.03125 85.15625 17 
Q 85.15625 9.96875 80.171875 4.984375 
Q 75.203125 0 68.171875 0 
Q 61.078125 0 56.09375 4.984375 
Q 51.125 9.96875 51.125 17 
Q 51.125 24.03125 56.09375 29 
Q 61.078125 33.984375 68.171875 33.984375 
z
M 61.078125 69.625 
L 66.5 69.625 
L 27.390625 -1.859375 
L 21.96875 -1.859375 
z
M 20.21875 40.71875 
Q 24.421875 40.71875 27.375 43.671875 
Q 30.328125 46.625 30.328125 50.78125 
Q 30.328125 54.9375 27.375 57.890625 
Q 24.421875 60.84375 20.21875 60.84375 
Q 16.0625 60.84375 13.109375 57.90625 
Q 10.15625 54.984375 10.15625 50.78125 
Q 10.15625 46.625 13.109375 43.671875 
Q 16.0625 40.71875 20.21875 40.71875 
z
M 20.21875 67.828125 
Q 27.296875 67.828125 32.265625 62.8125 
Q 37.25 57.8125 37.25 50.78125 
Q 37.25 43.75 32.265625 38.765625 
Q 27.296875 33.796875 20.21875 33.796875 
Q 13.1875 33.796875 8.203125 38.765625 
Q 3.21875 43.75 3.21875 50.78125 
Q 3.21875 57.8125 8.203125 62.8125 
Q 13.1875 67.828125 20.21875 67.828125 
z
M 68.171875 6.9375 
Q 72.3125 6.9375 75.265625 9.890625 
Q 78.21875 12.84375 78.21875 17 
Q 78.21875 21.140625 75.265625 24.09375 
Q 72.3125 27.046875 68.171875 27.046875 
Q 63.96875 27.046875 61.015625 24.09375 
Q 58.0625 21.140625 58.0625 17 
Q 58.0625 12.84375 61.015625 9.890625 
Q 63.96875 6.9375 68.171875 6.9375 
z
" id="Helvetica-37"/>
      <path id="Helvetica-32"/>
      <path d="M 11.671875 16.40625 
Q 12.0625 12.015625 13.875 9.671875 
Q 17.1875 5.421875 25.390625 5.421875 
Q 30.28125 5.421875 33.984375 7.546875 
Q 37.703125 9.671875 37.703125 14.109375 
Q 37.703125 17.484375 34.71875 19.234375 
Q 32.8125 20.3125 27.203125 21.734375 
L 20.21875 23.484375 
Q 13.53125 25.140625 10.359375 27.203125 
Q 4.6875 30.765625 4.6875 37.0625 
Q 4.6875 44.484375 10.03125 49.0625 
Q 15.375 53.65625 24.421875 53.65625 
Q 36.234375 53.65625 41.453125 46.734375 
Q 44.734375 42.328125 44.625 37.25 
L 36.328125 37.25 
Q 36.078125 40.234375 34.234375 42.671875 
Q 31.203125 46.140625 23.734375 46.140625 
Q 18.75 46.140625 16.1875 44.234375 
Q 13.625 42.328125 13.625 39.203125 
Q 13.625 35.796875 17 33.734375 
Q 18.953125 32.515625 22.75 31.59375 
L 28.5625 30.171875 
Q 38.03125 27.875 41.265625 25.734375 
Q 46.390625 22.359375 46.390625 15.140625 
Q 46.390625 8.15625 41.09375 3.078125 
Q 35.796875 -2 24.953125 -2 
Q 13.28125 -2 8.421875 3.296875 
Q 3.5625 8.59375 3.21875 16.40625 
z
M 24.65625 53.5625 
z
" id="Helvetica-115"/>
      <path d="M 6.453125 52.046875 
L 15.375 52.046875 
L 15.375 0 
L 6.453125 0 
z
M 6.453125 71.734375 
L 15.375 71.734375 
L 15.375 61.765625 
L 6.453125 61.765625 
z
" id="Helvetica-105"/>
      <path d="M 8.203125 66.890625 
L 17.09375 66.890625 
L 17.09375 52.296875 
L 25.4375 52.296875 
L 25.4375 45.125 
L 17.09375 45.125 
L 17.09375 10.984375 
Q 17.09375 8.25 18.953125 7.328125 
Q 19.96875 6.78125 22.359375 6.78125 
Q 23 6.78125 23.734375 6.8125 
Q 24.46875 6.84375 25.4375 6.9375 
L 25.4375 0 
Q 23.921875 -0.4375 22.28125 -0.625 
Q 20.65625 -0.828125 18.75 -0.828125 
Q 12.59375 -0.828125 10.390625 2.3125 
Q 8.203125 5.46875 8.203125 10.5 
L 8.203125 45.125 
L 1.125 45.125 
L 1.125 52.296875 
L 8.203125 52.296875 
z
" id="Helvetica-116"/>
      <path d="M 28.21875 53.46875 
Q 33.796875 53.46875 39.015625 50.859375 
Q 44.234375 48.25 46.96875 44.09375 
Q 49.609375 40.140625 50.484375 34.859375 
Q 51.265625 31.25 51.265625 23.34375 
L 12.9375 23.34375 
Q 13.1875 15.375 16.703125 10.5625 
Q 20.21875 5.765625 27.59375 5.765625 
Q 34.46875 5.765625 38.578125 10.296875 
Q 40.921875 12.9375 41.890625 16.40625 
L 50.53125 16.40625 
Q 50.203125 13.53125 48.265625 9.984375 
Q 46.34375 6.453125 43.953125 4.203125 
Q 39.9375 0.296875 34.03125 -1.078125 
Q 30.859375 -1.859375 26.859375 -1.859375 
Q 17.09375 -1.859375 10.296875 5.25 
Q 3.515625 12.359375 3.515625 25.140625 
Q 3.515625 37.75 10.34375 45.609375 
Q 17.1875 53.46875 28.21875 53.46875 
z
M 42.234375 30.328125 
Q 41.703125 36.03125 39.75 39.453125 
Q 36.140625 45.796875 27.6875 45.796875 
Q 21.625 45.796875 17.515625 41.421875 
Q 13.421875 37.0625 13.1875 30.328125 
z
M 27.390625 53.5625 
z
" id="Helvetica-101"/>
     </defs>
     <g transform="translate(13.42125 80.214887)rotate(-90)scale(0.08 -0.08)">
      <use xlink:href="#Helvetica-37"/>
      <use x="88.916016" xlink:href="#Helvetica-32"/>
      <use x="116.699219" xlink:href="#Helvetica-115"/>
      <use x="166.699219" xlink:href="#Helvetica-105"/>
      <use x="188.916016" xlink:href="#Helvetica-116"/>
      <use x="216.699219" xlink:href="#Helvetica-101"/>
      <use x="272.314453" xlink:href="#Helvetica-115"/>
     </g>
    </g>
   </g>
   <g id="patch_10">
    <path d="M 34.98625 124.575399 
L 34.98625 10.069375 
" style="fill:none;stroke:#000000;stroke-linecap:square;stroke-linejoin:miter;stroke-width:0.75;"/>
   </g>
   <g id="patch_11">
    <path d="M 161.70625 124.575399 
L 161.70625 10.069375 
" style="fill:none;stroke:#000000;stroke-linecap:square;stroke-linejoin:miter;stroke-width:0.75;"/>
   </g>
   <g id="patch_12">
    <path d="M 34.98625 124.575399 
L 161.70625 124.575399 
" style="fill:none;stroke:#000000;stroke-linecap:square;stroke-linejoin:miter;stroke-width:0.75;"/>
   </g>
   <g id="patch_13">
    <path d="M 34.98625 10.069375 
L 161.70625 10.069375 
" style="fill:none;stroke:#000000;stroke-linecap:square;stroke-linejoin:miter;stroke-width:0.75;"/>
   </g>
  </g>
  <g id="axes_2">
   <g id="patch_14">
    <path d="M 193.38625 124.575399 
L 320.10625 124.575399 
L 320.10625 10.069375 
L 193.38625 10.069375 
z
" style="fill:#ffffff;"/>
   </g>
   <g id="patch_15">
    <path clip-path="url(#pbcb0bd1ef6)" d="M 199.14625 124.575399 
L 208.007788 124.575399 
L 208.007788 112.647688 
L 199.14625 112.647688 
z
" style="fill:#1f77b4;opacity:0.65;stroke:#000000;stroke-linejoin:miter;stroke-width:0.75;"/>
   </g>
   <g id="patch_16">
    <path clip-path="url(#pbcb0bd1ef6)" d="M 216.869327 124.575399 
L 225.730865 124.575399 
L 225.730865 100.719977 
L 216.869327 100.719977 
z
" style="fill:#ff7f0e;opacity:0.65;stroke:#000000;stroke-linejoin:miter;stroke-width:0.75;"/>
   </g>
   <g id="patch_17">
    <path clip-path="url(#pbcb0bd1ef6)" d="M 234.592404 124.575399 
L 243.453942 124.575399 
L 243.453942 60.960941 
L 234.592404 60.960941 
z
" style="fill:#2ca02c;opacity:0.65;stroke:#000000;stroke-linejoin:miter;stroke-width:0.75;"/>
   </g>
   <g id="patch_18">
    <path clip-path="url(#pbcb0bd1ef6)" d="M 252.315481 124.575399 
L 261.177019 124.575399 
L 261.177019 76.864556 
L 252.315481 76.864556 
z
" style="fill:#d62728;opacity:0.65;stroke:#000000;stroke-linejoin:miter;stroke-width:0.75;"/>
   </g>
   <g id="patch_19">
    <path clip-path="url(#pbcb0bd1ef6)" d="M 270.038558 124.575399 
L 278.900096 124.575399 
L 278.900096 88.792267 
L 270.038558 88.792267 
z
" style="fill:#9467bd;opacity:0.65;stroke:#000000;stroke-linejoin:miter;stroke-width:0.75;"/>
   </g>
   <g id="patch_20">
    <path clip-path="url(#pbcb0bd1ef6)" d="M 287.761635 124.575399 
L 296.623173 124.575399 
L 296.623173 116.623592 
L 287.761635 116.623592 
z
" style="fill:#8c564b;opacity:0.65;stroke:#000000;stroke-linejoin:miter;stroke-width:0.75;"/>
   </g>
   <g id="patch_21">
    <path clip-path="url(#pbcb0bd1ef6)" d="M 305.484712 124.575399 
L 314.34625 124.575399 
L 314.34625 124.575399 
L 305.484712 124.575399 
z
" style="fill:#e377c2;opacity:0.65;stroke:#000000;stroke-linejoin:miter;stroke-width:0.75;"/>
   </g>
   <g id="matplotlib.axis_3"/>
   <g id="matplotlib.axis_4">
    <g id="ytick_8">
     <g id="line2d_8">
      <g>
       <use style="stroke:#000000;stroke-width:0.8;" x="193.38625" xlink:href="#m8f9618e97f" y="124.575399"/>
      </g>
     </g>
     <g id="text_9">
      <!-- 0 -->
      <g transform="translate(181.9375 127.444774)scale(0.08 -0.08)">
       <use xlink:href="#Helvetica-48"/>
      </g>
     </g>
    </g>
    <g id="ytick_9">
     <g id="line2d_9">
      <g>
       <use style="stroke:#000000;stroke-width:0.8;" x="193.38625" xlink:href="#m8f9618e97f" y="105.491062"/>
      </g>
     </g>
     <g id="text_10">
      <!-- 10 -->
      <g transform="translate(177.48875 108.360437)scale(0.08 -0.08)">
       <use xlink:href="#Helvetica-49"/>
       <use x="55.615234" xlink:href="#Helvetica-48"/>
      </g>
     </g>
    </g>
    <g id="ytick_10">
     <g id="line2d_10">
      <g>
       <use style="stroke:#000000;stroke-width:0.8;" x="193.38625" xlink:href="#m8f9618e97f" y="86.406724"/>
      </g>
     </g>
     <g id="text_11">
      <!-- 20 -->
      <g transform="translate(177.48875 89.276099)scale(0.08 -0.08)">
       <use xlink:href="#Helvetica-50"/>
       <use x="55.615234" xlink:href="#Helvetica-48"/>
      </g>
     </g>
    </g>
    <g id="ytick_11">
     <g id="line2d_11">
      <g>
       <use style="stroke:#000000;stroke-width:0.8;" x="193.38625" xlink:href="#m8f9618e97f" y="67.322387"/>
      </g>
     </g>
     <g id="text_12">
      <!-- 30 -->
      <g transform="translate(177.48875 70.191762)scale(0.08 -0.08)">
       <use xlink:href="#Helvetica-51"/>
       <use x="55.615234" xlink:href="#Helvetica-48"/>
      </g>
     </g>
    </g>
    <g id="ytick_12">
     <g id="line2d_12">
      <g>
       <use style="stroke:#000000;stroke-width:0.8;" x="193.38625" xlink:href="#m8f9618e97f" y="48.23805"/>
      </g>
     </g>
     <g id="text_13">
      <!-- 40 -->
      <g transform="translate(177.48875 51.107425)scale(0.08 -0.08)">
       <use xlink:href="#Helvetica-52"/>
       <use x="55.615234" xlink:href="#Helvetica-48"/>
      </g>
     </g>
    </g>
    <g id="ytick_13">
     <g id="line2d_13">
      <g>
       <use style="stroke:#000000;stroke-width:0.8;" x="193.38625" xlink:href="#m8f9618e97f" y="29.153712"/>
      </g>
     </g>
     <g id="text_14">
      <!-- 50 -->
      <g transform="translate(177.48875 32.023087)scale(0.08 -0.08)">
       <use xlink:href="#Helvetica-53"/>
       <use x="55.615234" xlink:href="#Helvetica-48"/>
      </g>
     </g>
    </g>
    <g id="ytick_14">
     <g id="line2d_14">
      <g>
       <use style="stroke:#000000;stroke-width:0.8;" x="193.38625" xlink:href="#m8f9618e97f" y="10.069375"/>
      </g>
     </g>
     <g id="text_15">
      <!-- 60 -->
      <g transform="translate(177.48875 12.93875)scale(0.08 -0.08)">
       <use xlink:href="#Helvetica-54"/>
       <use x="55.615234" xlink:href="#Helvetica-48"/>
      </g>
     </g>
    </g>
   </g>
   <g id="patch_22">
    <path d="M 193.38625 124.575399 
L 193.38625 10.069375 
" style="fill:none;stroke:#000000;stroke-linecap:square;stroke-linejoin:miter;stroke-width:0.75;"/>
   </g>
   <g id="patch_23">
    <path d="M 320.10625 124.575399 
L 320.10625 10.069375 
" style="fill:none;stroke:#000000;stroke-linecap:square;stroke-linejoin:miter;stroke-width:0.75;"/>
   </g>
   <g id="patch_24">
    <path d="M 193.38625 124.575399 
L 320.10625 124.575399 
" style="fill:none;stroke:#000000;stroke-linecap:square;stroke-linejoin:miter;stroke-width:0.75;"/>
   </g>
   <g id="patch_25">
    <path d="M 193.38625 10.069375 
L 320.10625 10.069375 
" style="fill:none;stroke:#000000;stroke-linecap:square;stroke-linejoin:miter;stroke-width:0.75;"/>
   </g>
  </g>
  <g id="axes_3">
   <g id="patch_26">
    <path d="M 34.98625 247.669375 
L 161.70625 247.669375 
L 161.70625 133.163351 
L 34.98625 133.163351 
z
" style="fill:#ffffff;"/>
   </g>
   <g id="matplotlib.axis_5">
    <g id="xtick_1">
     <g id="line2d_15">
      <defs>
       <path d="M 0 0 
L 0 3.5 
" id="mf3512a4efd" style="stroke:#000000;stroke-width:0.8;"/>
      </defs>
      <g>
       <use style="stroke:#000000;stroke-width:0.8;" x="44.037679" xlink:href="#mf3512a4efd" y="247.669375"/>
      </g>
     </g>
     <g id="text_16">
      <!-- O–Li$_6$ -->
      <defs>
       <path d="M 38.578125 73.6875 
Q 57.5625 73.6875 66.703125 61.46875 
Q 73.828125 51.953125 73.828125 37.109375 
Q 73.828125 21.046875 65.671875 10.40625 
Q 56.109375 -2.09375 38.375 -2.09375 
Q 21.828125 -2.09375 12.359375 8.84375 
Q 3.90625 19.390625 3.90625 35.5 
Q 3.90625 50.046875 11.140625 60.40625 
Q 20.40625 73.6875 38.578125 73.6875 
z
M 39.546875 6.59375 
Q 52.390625 6.59375 58.125 15.796875 
Q 63.875 25 63.875 36.96875 
Q 63.875 49.609375 57.25 57.328125 
Q 50.640625 65.046875 39.15625 65.046875 
Q 28.03125 65.046875 21 57.390625 
Q 13.96875 49.75 13.96875 34.859375 
Q 13.96875 22.953125 20 14.765625 
Q 26.03125 6.59375 39.546875 6.59375 
z
M 38.875 73.6875 
z
" id="Helvetica-79"/>
       <path d="M -0.25 31.25 
L 55.765625 31.25 
L 55.765625 24.078125 
L -0.25 24.078125 
z
" id="Helvetica-8211"/>
       <path d="M 7.625 71.734375 
L 17.328125 71.734375 
L 17.328125 8.546875 
L 53.65625 8.546875 
L 53.65625 0 
L 7.625 0 
z
" id="Helvetica-76"/>
      </defs>
      <g transform="translate(43.37434 275.782286)rotate(-75)scale(0.08 -0.08)">
       <use transform="translate(0 0.3125)" xlink:href="#Helvetica-79"/>
       <use transform="translate(77.783203 0.3125)" xlink:href="#Helvetica-8211"/>
       <use transform="translate(133.398438 0.3125)" xlink:href="#Helvetica-76"/>
       <use transform="translate(189.013672 0.3125)" xlink:href="#Helvetica-105"/>
       <use transform="translate(212.145664 -15.376563)scale(0.7)" xlink:href="#Helvetica-54"/>
      </g>
     </g>
    </g>
    <g id="xtick_2">
     <g id="line2d_16">
      <g>
       <use style="stroke:#000000;stroke-width:0.8;" x="62.140536" xlink:href="#mf3512a4efd" y="247.669375"/>
      </g>
     </g>
     <g id="text_17">
      <!-- O–Li$_5$TM -->
      <defs>
       <path d="M 59.8125 71.734375 
L 59.8125 63.1875 
L 35.640625 63.1875 
L 35.640625 0 
L 25.78125 0 
L 25.78125 63.1875 
L 1.609375 63.1875 
L 1.609375 71.734375 
z
" id="Helvetica-84"/>
       <path d="M 7.375 71.734375 
L 21.296875 71.734375 
L 41.890625 11.078125 
L 62.359375 71.734375 
L 76.125 71.734375 
L 76.125 0 
L 66.890625 0 
L 66.890625 42.328125 
Q 66.890625 44.53125 66.984375 49.609375 
Q 67.09375 54.6875 67.09375 60.5 
L 46.625 0 
L 37.015625 0 
L 16.40625 60.5 
L 16.40625 58.296875 
Q 16.40625 55.671875 16.53125 50.265625 
Q 16.65625 44.875 16.65625 42.328125 
L 16.65625 0 
L 7.375 0 
z
" id="Helvetica-77"/>
      </defs>
      <g transform="translate(59.976047 286.987025)rotate(-75)scale(0.08 -0.08)">
       <use transform="translate(0 0.3125)" xlink:href="#Helvetica-79"/>
       <use transform="translate(77.783203 0.3125)" xlink:href="#Helvetica-8211"/>
       <use transform="translate(133.398438 0.3125)" xlink:href="#Helvetica-76"/>
       <use transform="translate(189.013672 0.3125)" xlink:href="#Helvetica-105"/>
       <use transform="translate(212.145664 -15.376563)scale(0.7)" xlink:href="#Helvetica-53"/>
       <use transform="translate(253.691172 0.3125)" xlink:href="#Helvetica-84"/>
       <use transform="translate(314.775156 0.3125)" xlink:href="#Helvetica-77"/>
      </g>
     </g>
    </g>
    <g id="xtick_3">
     <g id="line2d_17">
      <g>
       <use style="stroke:#000000;stroke-width:0.8;" x="80.243393" xlink:href="#mf3512a4efd" y="247.669375"/>
      </g>
     </g>
     <g id="text_18">
      <!-- O–Li$_4$TM$_2$ -->
      <g transform="translate(77.644088 290.232536)rotate(-75)scale(0.08 -0.08)">
       <use transform="translate(0 0.3125)" xlink:href="#Helvetica-79"/>
       <use transform="translate(77.783203 0.3125)" xlink:href="#Helvetica-8211"/>
       <use transform="translate(133.398438 0.3125)" xlink:href="#Helvetica-76"/>
       <use transform="translate(189.013672 0.3125)" xlink:href="#Helvetica-105"/>
       <use transform="translate(212.145664 -15.376563)scale(0.7)" xlink:href="#Helvetica-52"/>
       <use transform="translate(253.691172 0.3125)" xlink:href="#Helvetica-84"/>
       <use transform="translate(314.775156 0.3125)" xlink:href="#Helvetica-77"/>
       <use transform="translate(398.991133 -15.376563)scale(0.7)" xlink:href="#Helvetica-50"/>
      </g>
     </g>
    </g>
    <g id="xtick_4">
     <g id="line2d_18">
      <g>
       <use style="stroke:#000000;stroke-width:0.8;" x="98.34625" xlink:href="#mf3512a4efd" y="247.669375"/>
      </g>
     </g>
     <g id="text_19">
      <!-- O–Li$_3$TM$_3$ -->
      <g transform="translate(95.746945 290.232536)rotate(-75)scale(0.08 -0.08)">
       <use transform="translate(0 0.3125)" xlink:href="#Helvetica-79"/>
       <use transform="translate(77.783203 0.3125)" xlink:href="#Helvetica-8211"/>
       <use transform="translate(133.398438 0.3125)" xlink:href="#Helvetica-76"/>
       <use transform="translate(189.013672 0.3125)" xlink:href="#Helvetica-105"/>
       <use transform="translate(212.145664 -15.376563)scale(0.7)" xlink:href="#Helvetica-51"/>
       <use transform="translate(253.691172 0.3125)" xlink:href="#Helvetica-84"/>
       <use transform="translate(314.775156 0.3125)" xlink:href="#Helvetica-77"/>
       <use transform="translate(398.991133 -15.376563)scale(0.7)" xlink:href="#Helvetica-51"/>
      </g>
     </g>
    </g>
    <g id="xtick_5">
     <g id="line2d_19">
      <g>
       <use style="stroke:#000000;stroke-width:0.8;" x="116.449107" xlink:href="#mf3512a4efd" y="247.669375"/>
      </g>
     </g>
     <g id="text_20">
      <!-- O–Li$_2$TM$_4$ -->
      <g transform="translate(113.849802 290.232536)rotate(-75)scale(0.08 -0.08)">
       <use transform="translate(0 0.3125)" xlink:href="#Helvetica-79"/>
       <use transform="translate(77.783203 0.3125)" xlink:href="#Helvetica-8211"/>
       <use transform="translate(133.398438 0.3125)" xlink:href="#Helvetica-76"/>
       <use transform="translate(189.013672 0.3125)" xlink:href="#Helvetica-105"/>
       <use transform="translate(212.145664 -15.376563)scale(0.7)" xlink:href="#Helvetica-50"/>
       <use transform="translate(253.691172 0.3125)" xlink:href="#Helvetica-84"/>
       <use transform="translate(314.775156 0.3125)" xlink:href="#Helvetica-77"/>
       <use transform="translate(398.991133 -15.376563)scale(0.7)" xlink:href="#Helvetica-52"/>
      </g>
     </g>
    </g>
    <g id="xtick_6">
     <g id="line2d_20">
      <g>
       <use style="stroke:#000000;stroke-width:0.8;" x="134.551964" xlink:href="#mf3512a4efd" y="247.669375"/>
      </g>
     </g>
     <g id="text_21">
      <!-- O–Li$_1$TM$_5$ -->
      <g transform="translate(131.952659 290.232536)rotate(-75)scale(0.08 -0.08)">
       <use transform="translate(0 0.3125)" xlink:href="#Helvetica-79"/>
       <use transform="translate(77.783203 0.3125)" xlink:href="#Helvetica-8211"/>
       <use transform="translate(133.398438 0.3125)" xlink:href="#Helvetica-76"/>
       <use transform="translate(189.013672 0.3125)" xlink:href="#Helvetica-105"/>
       <use transform="translate(212.145664 -15.376563)scale(0.7)" xlink:href="#Helvetica-49"/>
       <use transform="translate(253.691172 0.3125)" xlink:href="#Helvetica-84"/>
       <use transform="translate(314.775156 0.3125)" xlink:href="#Helvetica-77"/>
       <use transform="translate(398.991133 -15.376563)scale(0.7)" xlink:href="#Helvetica-53"/>
      </g>
     </g>
    </g>
    <g id="xtick_7">
     <g id="line2d_21">
      <g>
       <use style="stroke:#000000;stroke-width:0.8;" x="152.654821" xlink:href="#mf3512a4efd" y="247.669375"/>
      </g>
     </g>
     <g id="text_22">
      <!-- O–Li$_0$TM$_6$ -->
      <g transform="translate(150.055516 290.232536)rotate(-75)scale(0.08 -0.08)">
       <use transform="translate(0 0.3125)" xlink:href="#Helvetica-79"/>
       <use transform="translate(77.783203 0.3125)" xlink:href="#Helvetica-8211"/>
       <use transform="translate(133.398438 0.3125)" xlink:href="#Helvetica-76"/>
       <use transform="translate(189.013672 0.3125)" xlink:href="#Helvetica-105"/>
       <use transform="translate(212.145664 -15.376563)scale(0.7)" xlink:href="#Helvetica-48"/>
       <use transform="translate(253.691172 0.3125)" xlink:href="#Helvetica-84"/>
       <use transform="translate(314.775156 0.3125)" xlink:href="#Helvetica-77"/>
       <use transform="translate(398.991133 -15.376563)scale(0.7)" xlink:href="#Helvetica-54"/>
      </g>
     </g>
    </g>
    <g id="text_23">
     <!-- O–{Li,Mn,Ni} sites -->
     <defs>
      <path d="M 19.09375 -0.25 
Q 19.09375 -7.765625 22.890625 -10.953125 
Q 26.703125 -14.15625 31.25 -14.703125 
L 31.25 -20.40625 
Q 22.5625 -19.53125 16.875 -15.296875 
Q 11.1875 -11.078125 11.1875 -1.421875 
L 11.1875 8.640625 
Q 11.1875 13.96875 9.515625 17.046875 
Q 6.5 22.65625 -2.09375 23.578125 
L -2.09375 29.15625 
Q 6.546875 30.171875 9.515625 35.546875 
Q 11.1875 38.53125 11.1875 44.09375 
L 11.1875 52.046875 
Q 11.1875 61.234375 15.15625 66.59375 
Q 19.140625 71.96875 31.25 73 
L 31.25 67.4375 
Q 23.390625 66.75 20.609375 60.5 
Q 19.09375 57.078125 19.09375 51.03125 
L 19.09375 45.5625 
Q 19.09375 38.234375 17.28125 34.328125 
Q 14.015625 27.25 4.59375 26.375 
Q 13.96875 25.53125 17.28125 18.171875 
Q 19.09375 14.109375 19.09375 7.125 
z
" id="Helvetica-123"/>
      <path d="M 8.296875 -10.203125 
Q 11.671875 -9.625 13.03125 -5.46875 
Q 13.765625 -3.265625 13.765625 -1.21875 
Q 13.765625 -0.875 13.734375 -0.609375 
Q 13.71875 -0.34375 13.625 0 
L 8.296875 0 
L 8.296875 10.640625 
L 18.75 10.640625 
L 18.75 0.78125 
Q 18.75 -5.03125 16.40625 -9.421875 
Q 14.0625 -13.8125 8.296875 -14.84375 
z
" id="Helvetica-44"/>
      <path d="M 6.453125 52.296875 
L 14.796875 52.296875 
L 14.796875 44.875 
Q 18.5 49.46875 22.65625 51.46875 
Q 26.8125 53.46875 31.890625 53.46875 
Q 43.015625 53.46875 46.921875 45.703125 
Q 49.078125 41.453125 49.078125 33.546875 
L 49.078125 0 
L 40.140625 0 
L 40.140625 32.953125 
Q 40.140625 37.75 38.71875 40.671875 
Q 36.375 45.5625 30.21875 45.5625 
Q 27.09375 45.5625 25.09375 44.921875 
Q 21.484375 43.84375 18.75 40.625 
Q 16.546875 38.03125 15.890625 35.265625 
Q 15.234375 32.515625 15.234375 27.390625 
L 15.234375 0 
L 6.453125 0 
z
M 27.09375 53.5625 
z
" id="Helvetica-110"/>
      <path d="M 7.625 71.734375 
L 19.09375 71.734375 
L 55.328125 13.625 
L 55.328125 71.734375 
L 64.546875 71.734375 
L 64.546875 0 
L 53.65625 0 
L 16.890625 58.0625 
L 16.890625 0 
L 7.625 0 
z
M 35.453125 71.734375 
z
" id="Helvetica-78"/>
      <path d="M 28.65625 26.375 
Q 19.28125 27.25 16.015625 34.28125 
Q 14.203125 38.1875 14.203125 45.5625 
L 14.203125 51.03125 
Q 14.203125 57.46875 12.703125 60.796875 
Q 9.96875 66.75 2.046875 67.4375 
L 2.046875 73 
Q 14.65625 71.96875 19.140625 65.1875 
Q 22.078125 60.84375 22.078125 52.046875 
L 22.078125 44.09375 
Q 22.078125 38.625 23.734375 35.59375 
Q 26.765625 30.078125 35.40625 29.15625 
L 35.40625 23.578125 
Q 26.8125 22.703125 23.734375 17 
Q 22.078125 13.875 22.078125 8.640625 
L 22.078125 -1.421875 
Q 22.078125 -11.28125 16.375 -15.375 
Q 10.6875 -19.484375 2.046875 -20.40625 
L 2.046875 -14.703125 
Q 7.28125 -14.015625 10.734375 -10.515625 
Q 14.203125 -7.03125 14.203125 -0.25 
L 14.203125 7.125 
Q 14.203125 14.15625 16.015625 18.171875 
Q 19.34375 25.53125 28.65625 26.375 
z
" id="Helvetica-125"/>
     </defs>
     <g transform="translate(66.333125 300.524117)scale(0.08 -0.08)">
      <use xlink:href="#Helvetica-79"/>
      <use x="77.783203" xlink:href="#Helvetica-8211"/>
      <use x="133.398438" xlink:href="#Helvetica-123"/>
      <use x="166.796875" xlink:href="#Helvetica-76"/>
      <use x="222.412109" xlink:href="#Helvetica-105"/>
      <use x="244.628906" xlink:href="#Helvetica-44"/>
      <use x="272.412109" xlink:href="#Helvetica-77"/>
      <use x="355.712891" xlink:href="#Helvetica-110"/>
      <use x="411.328125" xlink:href="#Helvetica-44"/>
      <use x="439.111328" xlink:href="#Helvetica-78"/>
      <use x="511.328125" xlink:href="#Helvetica-105"/>
      <use x="533.544922" xlink:href="#Helvetica-125"/>
      <use x="566.943359" xlink:href="#Helvetica-32"/>
      <use x="594.726562" xlink:href="#Helvetica-115"/>
      <use x="644.726562" xlink:href="#Helvetica-105"/>
      <use x="666.943359" xlink:href="#Helvetica-116"/>
      <use x="694.726562" xlink:href="#Helvetica-101"/>
      <use x="750.341797" xlink:href="#Helvetica-115"/>
     </g>
    </g>
   </g>
   <g id="matplotlib.axis_6">
    <g id="ytick_15">
     <g id="line2d_22">
      <g>
       <use style="stroke:#000000;stroke-width:0.8;" x="34.98625" xlink:href="#m8f9618e97f" y="246.730801"/>
      </g>
     </g>
     <g id="text_24">
      <!-- −6 -->
      <defs>
       <path d="M 55.421875 29.59375 
L 55.421875 21.390625 
L 4.5 21.390625 
L 4.5 29.59375 
z
" id="Helvetica-8722"/>
      </defs>
      <g transform="translate(18.865 249.600176)scale(0.08 -0.08)">
       <use xlink:href="#Helvetica-8722"/>
       <use x="58.398438" xlink:href="#Helvetica-54"/>
      </g>
     </g>
    </g>
    <g id="ytick_16">
     <g id="line2d_23">
      <g>
       <use style="stroke:#000000;stroke-width:0.8;" x="34.98625" xlink:href="#m8f9618e97f" y="227.959322"/>
      </g>
     </g>
     <g id="text_25">
      <!-- −4 -->
      <g transform="translate(18.865 230.828697)scale(0.08 -0.08)">
       <use xlink:href="#Helvetica-8722"/>
       <use x="58.398438" xlink:href="#Helvetica-52"/>
      </g>
     </g>
    </g>
    <g id="ytick_17">
     <g id="line2d_24">
      <g>
       <use style="stroke:#000000;stroke-width:0.8;" x="34.98625" xlink:href="#m8f9618e97f" y="209.187842"/>
      </g>
     </g>
     <g id="text_26">
      <!-- −2 -->
      <g transform="translate(18.865 212.057217)scale(0.08 -0.08)">
       <use xlink:href="#Helvetica-8722"/>
       <use x="58.398438" xlink:href="#Helvetica-50"/>
      </g>
     </g>
    </g>
    <g id="ytick_18">
     <g id="line2d_25">
      <g>
       <use style="stroke:#000000;stroke-width:0.8;" x="34.98625" xlink:href="#m8f9618e97f" y="190.416363"/>
      </g>
     </g>
     <g id="text_27">
      <!-- 0 -->
      <g transform="translate(23.5375 193.285738)scale(0.08 -0.08)">
       <use xlink:href="#Helvetica-48"/>
      </g>
     </g>
    </g>
    <g id="ytick_19">
     <g id="line2d_26">
      <g>
       <use style="stroke:#000000;stroke-width:0.8;" x="34.98625" xlink:href="#m8f9618e97f" y="171.644884"/>
      </g>
     </g>
     <g id="text_28">
      <!-- 2 -->
      <g transform="translate(23.5375 174.514259)scale(0.08 -0.08)">
       <use xlink:href="#Helvetica-50"/>
      </g>
     </g>
    </g>
    <g id="ytick_20">
     <g id="line2d_27">
      <g>
       <use style="stroke:#000000;stroke-width:0.8;" x="34.98625" xlink:href="#m8f9618e97f" y="152.873404"/>
      </g>
     </g>
     <g id="text_29">
      <!-- 4 -->
      <g transform="translate(23.5375 155.742779)scale(0.08 -0.08)">
       <use xlink:href="#Helvetica-52"/>
      </g>
     </g>
    </g>
    <g id="ytick_21">
     <g id="line2d_28">
      <g>
       <use style="stroke:#000000;stroke-width:0.8;" x="34.98625" xlink:href="#m8f9618e97f" y="134.101925"/>
      </g>
     </g>
     <g id="text_30">
      <!-- 6 -->
      <g transform="translate(23.5375 136.9713)scale(0.08 -0.08)">
       <use xlink:href="#Helvetica-54"/>
      </g>
     </g>
    </g>
    <g id="text_31">
     <!-- O vacancy formation energy (eV) -->
     <defs>
      <path d="M 10.75 52.296875 
L 24.703125 9.71875 
L 39.3125 52.296875 
L 48.921875 52.296875 
L 29.203125 0 
L 19.828125 0 
L 0.53125 52.296875 
z
" id="Helvetica-118"/>
      <path d="M 13.1875 13.921875 
Q 13.1875 10.109375 15.96875 7.90625 
Q 18.75 5.71875 22.5625 5.71875 
Q 27.203125 5.71875 31.546875 7.859375 
Q 38.875 11.421875 38.875 19.53125 
L 38.875 26.609375 
Q 37.25 25.59375 34.703125 24.90625 
Q 32.171875 24.21875 29.734375 23.921875 
L 24.421875 23.25 
Q 19.625 22.609375 17.234375 21.234375 
Q 13.1875 18.953125 13.1875 13.921875 
z
M 34.46875 31.6875 
Q 37.5 32.078125 38.53125 34.234375 
Q 39.109375 35.40625 39.109375 37.59375 
Q 39.109375 42.09375 35.90625 44.109375 
Q 32.71875 46.140625 26.765625 46.140625 
Q 19.875 46.140625 17 42.4375 
Q 15.375 40.375 14.890625 36.328125 
L 6.6875 36.328125 
Q 6.9375 46 12.96875 49.78125 
Q 19 53.5625 26.953125 53.5625 
Q 36.1875 53.5625 41.9375 50.046875 
Q 47.65625 46.53125 47.65625 39.109375 
L 47.65625 8.984375 
Q 47.65625 7.625 48.21875 6.78125 
Q 48.78125 5.953125 50.59375 5.953125 
Q 51.171875 5.953125 51.90625 6.03125 
Q 52.640625 6.109375 53.46875 6.25 
L 53.46875 -0.25 
Q 51.421875 -0.828125 50.34375 -0.96875 
Q 49.265625 -1.125 47.40625 -1.125 
Q 42.875 -1.125 40.828125 2.09375 
Q 39.75 3.8125 39.3125 6.9375 
Q 36.625 3.421875 31.59375 0.828125 
Q 26.5625 -1.765625 20.515625 -1.765625 
Q 13.234375 -1.765625 8.609375 2.65625 
Q 4 7.078125 4 13.71875 
Q 4 21 8.546875 25 
Q 13.09375 29 20.453125 29.9375 
z
M 27.203125 53.5625 
z
" id="Helvetica-97"/>
      <path d="M 26.609375 53.8125 
Q 35.453125 53.8125 40.984375 49.515625 
Q 46.53125 45.21875 47.65625 34.71875 
L 39.109375 34.71875 
Q 38.328125 39.546875 35.546875 42.75 
Q 32.765625 45.953125 26.609375 45.953125 
Q 18.21875 45.953125 14.59375 37.75 
Q 12.25 32.421875 12.25 24.609375 
Q 12.25 16.75 15.5625 11.375 
Q 18.890625 6 26.03125 6 
Q 31.5 6 34.6875 9.34375 
Q 37.890625 12.703125 39.109375 18.5 
L 47.65625 18.5 
Q 46.1875 8.109375 40.328125 3.296875 
Q 34.46875 -1.515625 25.34375 -1.515625 
Q 15.09375 -1.515625 8.984375 5.984375 
Q 2.875 13.484375 2.875 24.703125 
Q 2.875 38.484375 9.5625 46.140625 
Q 16.265625 53.8125 26.609375 53.8125 
z
M 25.25 53.5625 
z
" id="Helvetica-99"/>
      <path d="M 39.109375 52.296875 
L 48.828125 52.296875 
Q 46.96875 47.265625 40.578125 29.34375 
Q 35.796875 15.875 32.5625 7.375 
Q 24.953125 -12.640625 21.828125 -17.03125 
Q 18.703125 -21.4375 11.078125 -21.4375 
Q 9.234375 -21.4375 8.234375 -21.28125 
Q 7.234375 -21.140625 5.765625 -20.75 
L 5.765625 -12.75 
Q 8.0625 -13.375 9.078125 -13.515625 
Q 10.109375 -13.671875 10.890625 -13.671875 
Q 13.328125 -13.671875 14.46875 -12.859375 
Q 15.625 -12.0625 16.40625 -10.890625 
Q 16.65625 -10.5 18.15625 -6.875 
Q 19.671875 -3.265625 20.359375 -1.515625 
L 1.03125 52.296875 
L 10.984375 52.296875 
L 25 9.71875 
z
M 24.953125 53.5625 
z
" id="Helvetica-121"/>
      <path d="M 8.640625 60.25 
Q 8.84375 65.71875 10.546875 68.265625 
Q 13.625 72.75 22.40625 72.75 
Q 23.25 72.75 24.125 72.703125 
Q 25 72.65625 26.125 72.5625 
L 26.125 64.546875 
Q 24.75 64.65625 24.140625 64.671875 
Q 23.53125 64.703125 23 64.703125 
Q 19 64.703125 18.21875 62.625 
Q 17.4375 60.546875 17.4375 52.046875 
L 26.125 52.046875 
L 26.125 45.125 
L 17.328125 45.125 
L 17.328125 0 
L 8.640625 0 
L 8.640625 45.125 
L 1.375 45.125 
L 1.375 52.046875 
L 8.640625 52.046875 
L 8.640625 60.25 
z
" id="Helvetica-102"/>
      <path d="M 27.203125 5.671875 
Q 35.9375 5.671875 39.1875 12.28125 
Q 42.4375 18.890625 42.4375 27 
Q 42.4375 34.328125 40.09375 38.921875 
Q 36.375 46.140625 27.296875 46.140625 
Q 19.234375 46.140625 15.578125 39.984375 
Q 11.921875 33.84375 11.921875 25.140625 
Q 11.921875 16.796875 15.578125 11.234375 
Q 19.234375 5.671875 27.203125 5.671875 
z
M 27.546875 53.8125 
Q 37.640625 53.8125 44.625 47.0625 
Q 51.609375 40.328125 51.609375 27.25 
Q 51.609375 14.59375 45.453125 6.34375 
Q 39.3125 -1.90625 26.375 -1.90625 
Q 15.578125 -1.90625 9.21875 5.390625 
Q 2.875 12.703125 2.875 25 
Q 2.875 38.1875 9.5625 46 
Q 16.265625 53.8125 27.546875 53.8125 
z
M 27.25 53.5625 
z
" id="Helvetica-111"/>
      <path d="M 6.6875 52.296875 
L 15.046875 52.296875 
L 15.046875 43.265625 
Q 16.0625 45.90625 20.0625 49.6875 
Q 24.078125 53.46875 29.296875 53.46875 
Q 29.546875 53.46875 30.125 53.421875 
Q 30.71875 53.375 32.125 53.21875 
L 32.125 43.953125 
Q 31.34375 44.09375 30.6875 44.140625 
Q 30.03125 44.1875 29.25 44.1875 
Q 22.609375 44.1875 19.046875 39.90625 
Q 15.484375 35.640625 15.484375 30.078125 
L 15.484375 0 
L 6.6875 0 
z
" id="Helvetica-114"/>
      <path d="M 6.453125 52.296875 
L 15.140625 52.296875 
L 15.140625 44.875 
Q 18.265625 48.734375 20.796875 50.484375 
Q 25.140625 53.46875 30.671875 53.46875 
Q 36.921875 53.46875 40.71875 50.390625 
Q 42.875 48.640625 44.625 45.21875 
Q 47.5625 49.421875 51.515625 51.4375 
Q 55.46875 53.46875 60.40625 53.46875 
Q 70.953125 53.46875 74.75 45.84375 
Q 76.8125 41.75 76.8125 34.8125 
L 76.8125 0 
L 67.671875 0 
L 67.671875 36.328125 
Q 67.671875 41.546875 65.0625 43.5 
Q 62.453125 45.453125 58.6875 45.453125 
Q 53.515625 45.453125 49.78125 41.984375 
Q 46.046875 38.53125 46.046875 30.421875 
L 46.046875 0 
L 37.109375 0 
L 37.109375 34.125 
Q 37.109375 39.453125 35.84375 41.890625 
Q 33.84375 45.5625 28.375 45.5625 
Q 23.390625 45.5625 19.3125 41.703125 
Q 15.234375 37.84375 15.234375 27.734375 
L 15.234375 0 
L 6.453125 0 
z
" id="Helvetica-109"/>
      <path d="M 24.90625 53.21875 
Q 31.0625 53.21875 35.640625 50.203125 
Q 38.140625 48.484375 40.71875 45.21875 
L 40.71875 51.8125 
L 48.828125 51.8125 
L 48.828125 4.25 
Q 48.828125 -5.71875 45.90625 -11.46875 
Q 40.4375 -22.125 25.25 -22.125 
Q 16.796875 -22.125 11.03125 -18.328125 
Q 5.28125 -14.546875 4.59375 -6.5 
L 13.53125 -6.5 
Q 14.15625 -10.015625 16.0625 -11.921875 
Q 19.046875 -14.84375 25.4375 -14.84375 
Q 35.546875 -14.84375 38.671875 -7.71875 
Q 40.53125 -3.515625 40.375 7.28125 
Q 37.75 3.265625 34.03125 1.3125 
Q 30.328125 -0.640625 24.21875 -0.640625 
Q 15.71875 -0.640625 9.34375 5.390625 
Q 2.984375 11.421875 2.984375 25.34375 
Q 2.984375 38.484375 9.40625 45.84375 
Q 15.828125 53.21875 24.90625 53.21875 
z
M 40.71875 26.375 
Q 40.71875 36.078125 36.71875 40.765625 
Q 32.71875 45.453125 26.515625 45.453125 
Q 17.234375 45.453125 13.8125 36.765625 
Q 12.015625 32.125 12.015625 24.609375 
Q 12.015625 15.765625 15.59375 11.15625 
Q 19.1875 6.546875 25.25 6.546875 
Q 34.71875 6.546875 38.578125 15.09375 
Q 40.71875 19.921875 40.71875 26.375 
z
M 25.921875 53.5625 
z
" id="Helvetica-103"/>
      <path d="M 29.59375 72.90625 
Q 21.921875 58.015625 19.625 50.984375 
Q 16.15625 40.28125 16.15625 26.265625 
Q 16.15625 12.109375 20.125 0.390625 
Q 22.5625 -6.84375 29.734375 -20.40625 
L 23.828125 -20.40625 
Q 16.703125 -9.28125 14.984375 -6.203125 
Q 13.28125 -3.125 11.28125 2.15625 
Q 8.546875 9.375 7.46875 17.578125 
Q 6.9375 21.828125 6.9375 25.6875 
Q 6.9375 40.140625 11.46875 51.421875 
Q 14.359375 58.59375 23.484375 72.90625 
z
" id="Helvetica-40"/>
      <path d="M 13.28125 71.734375 
L 33.890625 10.640625 
L 54.25 71.734375 
L 65.140625 71.734375 
L 38.96875 0 
L 28.65625 0 
L 2.546875 71.734375 
z
" id="Helvetica-86"/>
      <path d="M 3.46875 -20.40625 
Q 11.234375 -5.28125 13.484375 1.65625 
Q 16.890625 12.15625 16.890625 26.265625 
Q 16.890625 40.375 12.9375 52.09375 
Q 10.5 59.328125 3.328125 72.90625 
L 9.234375 72.90625 
Q 16.75 60.890625 18.328125 58.078125 
Q 19.921875 55.28125 21.78125 50.34375 
Q 24.125 44.234375 25.125 38.28125 
Q 26.125 32.328125 26.125 26.8125 
Q 26.125 12.359375 21.53125 1.03125 
Q 18.65625 -6.25 9.578125 -20.40625 
z
" id="Helvetica-41"/>
     </defs>
     <g transform="translate(13.095 249.103863)rotate(-90)scale(0.08 -0.08)">
      <use xlink:href="#Helvetica-79"/>
      <use x="77.783203" xlink:href="#Helvetica-32"/>
      <use x="105.566406" xlink:href="#Helvetica-118"/>
      <use x="155.566406" xlink:href="#Helvetica-97"/>
      <use x="211.181641" xlink:href="#Helvetica-99"/>
      <use x="261.181641" xlink:href="#Helvetica-97"/>
      <use x="316.796875" xlink:href="#Helvetica-110"/>
      <use x="372.412109" xlink:href="#Helvetica-99"/>
      <use x="422.412109" xlink:href="#Helvetica-121"/>
      <use x="472.412109" xlink:href="#Helvetica-32"/>
      <use x="500.195312" xlink:href="#Helvetica-102"/>
      <use x="527.978516" xlink:href="#Helvetica-111"/>
      <use x="583.59375" xlink:href="#Helvetica-114"/>
      <use x="616.894531" xlink:href="#Helvetica-109"/>
      <use x="700.195312" xlink:href="#Helvetica-97"/>
      <use x="755.810547" xlink:href="#Helvetica-116"/>
      <use x="783.59375" xlink:href="#Helvetica-105"/>
      <use x="805.810547" xlink:href="#Helvetica-111"/>
      <use x="861.425781" xlink:href="#Helvetica-110"/>
      <use x="917.041016" xlink:href="#Helvetica-32"/>
      <use x="944.824219" xlink:href="#Helvetica-101"/>
      <use x="1000.439453" xlink:href="#Helvetica-110"/>
      <use x="1056.054688" xlink:href="#Helvetica-101"/>
      <use x="1111.669922" xlink:href="#Helvetica-114"/>
      <use x="1144.970703" xlink:href="#Helvetica-103"/>
      <use x="1200.585938" xlink:href="#Helvetica-121"/>
      <use x="1250.585938" xlink:href="#Helvetica-32"/>
      <use x="1278.369141" xlink:href="#Helvetica-40"/>
      <use x="1311.669922" xlink:href="#Helvetica-101"/>
      <use x="1367.285156" xlink:href="#Helvetica-86"/>
      <use x="1433.984375" xlink:href="#Helvetica-41"/>
     </g>
    </g>
   </g>
   <g id="line2d_29">
    <path clip-path="url(#p952d19d1ab)" style="fill:none;stroke:#000000;stroke-linecap:square;"/>
   </g>
   <g id="line2d_30">
    <path clip-path="url(#p952d19d1ab)" style="fill:none;stroke:#000000;stroke-linecap:square;"/>
   </g>
   <g id="line2d_31">
    <path clip-path="url(#p952d19d1ab)" style="fill:none;stroke:#000000;stroke-linecap:square;"/>
   </g>
   <g id="line2d_32">
    <path clip-path="url(#p952d19d1ab)" style="fill:none;stroke:#000000;stroke-linecap:square;"/>
   </g>
   <g id="line2d_33"/>
   <g id="line2d_34">
    <path clip-path="url(#p952d19d1ab)" style="fill:none;stroke:#000000;stroke-linecap:square;"/>
   </g>
   <g id="line2d_35">
    <path clip-path="url(#p952d19d1ab)" style="fill:none;stroke:#000000;stroke-linecap:square;"/>
   </g>
   <g id="line2d_36">
    <path clip-path="url(#p952d19d1ab)" style="fill:none;stroke:#000000;stroke-linecap:square;"/>
   </g>
   <g id="line2d_37">
    <path clip-path="url(#p952d19d1ab)" style="fill:none;stroke:#000000;stroke-linecap:square;"/>
   </g>
   <g id="line2d_38"/>
   <g id="line2d_39">
    <path clip-path="url(#p952d19d1ab)" d="M 80.243393 162.484402 
L 80.243393 166.351326 
" style="fill:none;stroke:#000000;stroke-linecap:square;"/>
   </g>
   <g id="line2d_40">
    <path clip-path="url(#p952d19d1ab)" d="M 80.243393 157.631974 
L 80.243393 156.646472 
" style="fill:none;stroke:#000000;stroke-linecap:square;"/>
   </g>
   <g id="line2d_41">
    <path clip-path="url(#p952d19d1ab)" d="M 77.980536 166.351326 
L 82.50625 166.351326 
" style="fill:none;stroke:#000000;stroke-linecap:square;"/>
   </g>
   <g id="line2d_42">
    <path clip-path="url(#p952d19d1ab)" d="M 77.980536 156.646472 
L 82.50625 156.646472 
" style="fill:none;stroke:#000000;stroke-linecap:square;"/>
   </g>
   <g id="line2d_43"/>
   <g id="line2d_44">
    <path clip-path="url(#p952d19d1ab)" d="M 98.34625 152.704461 
L 98.34625 154.309422 
" style="fill:none;stroke:#000000;stroke-linecap:square;"/>
   </g>
   <g id="line2d_45">
    <path clip-path="url(#p952d19d1ab)" d="M 98.34625 147.929466 
L 98.34625 147.514147 
" style="fill:none;stroke:#000000;stroke-linecap:square;"/>
   </g>
   <g id="line2d_46">
    <path clip-path="url(#p952d19d1ab)" d="M 96.083393 154.309422 
L 100.609107 154.309422 
" style="fill:none;stroke:#000000;stroke-linecap:square;"/>
   </g>
   <g id="line2d_47">
    <path clip-path="url(#p952d19d1ab)" d="M 96.083393 147.514147 
L 100.609107 147.514147 
" style="fill:none;stroke:#000000;stroke-linecap:square;"/>
   </g>
   <g id="line2d_48"/>
   <g id="line2d_49">
    <path clip-path="url(#p952d19d1ab)" style="fill:none;stroke:#000000;stroke-linecap:square;"/>
   </g>
   <g id="line2d_50">
    <path clip-path="url(#p952d19d1ab)" style="fill:none;stroke:#000000;stroke-linecap:square;"/>
   </g>
   <g id="line2d_51">
    <path clip-path="url(#p952d19d1ab)" style="fill:none;stroke:#000000;stroke-linecap:square;"/>
   </g>
   <g id="line2d_52">
    <path clip-path="url(#p952d19d1ab)" style="fill:none;stroke:#000000;stroke-linecap:square;"/>
   </g>
   <g id="line2d_53"/>
   <g id="line2d_54">
    <path clip-path="url(#p952d19d1ab)" d="M 0 0 
" style="fill:none;stroke:#000000;stroke-linecap:square;"/>
   </g>
   <g id="line2d_55">
    <path clip-path="url(#p952d19d1ab)" d="M 0 0 
" style="fill:none;stroke:#000000;stroke-linecap:square;"/>
   </g>
   <g id="line2d_56">
    <path clip-path="url(#p952d19d1ab)" d="M 0 0 
" style="fill:none;stroke:#000000;stroke-linecap:square;"/>
   </g>
   <g id="line2d_57">
    <path clip-path="url(#p952d19d1ab)" d="M 0 0 
" style="fill:none;stroke:#000000;stroke-linecap:square;"/>
   </g>
   <g id="line2d_58"/>
   <g id="line2d_59">
    <defs>
     <path d="M 0 1.5 
C 0.397805 1.5 0.77937 1.341951 1.06066 1.06066 
C 1.341951 0.77937 1.5 0.397805 1.5 0 
C 1.5 -0.397805 1.341951 -0.77937 1.06066 -1.06066 
C 0.77937 -1.341951 0.397805 -1.5 0 -1.5 
C -0.397805 -1.5 -0.77937 -1.341951 -1.06066 -1.06066 
C -1.341951 -0.77937 -1.5 -0.397805 -1.5 0 
C -1.5 0.397805 -1.341951 0.77937 -1.06066 1.06066 
C -0.77937 1.341951 -0.397805 1.5 0 1.5 
z
" id="mb0ead9efff" style="stroke:#2ca02c;"/>
    </defs>
    <g clip-path="url(#p952d19d1ab)">
     <use style="fill:#2ca02c;stroke:#2ca02c;" x="80.243393" xlink:href="#mb0ead9efff" y="158.617477"/>
     <use style="fill:#2ca02c;stroke:#2ca02c;" x="80.243393" xlink:href="#mb0ead9efff" y="166.351326"/>
     <use style="fill:#2ca02c;stroke:#2ca02c;" x="80.243393" xlink:href="#mb0ead9efff" y="156.646472"/>
    </g>
   </g>
   <g id="line2d_60">
    <defs>
     <path d="M 0 1.5 
C 0.397805 1.5 0.77937 1.341951 1.06066 1.06066 
C 1.341951 0.77937 1.5 0.397805 1.5 0 
C 1.5 -0.397805 1.341951 -0.77937 1.06066 -1.06066 
C 0.77937 -1.341951 0.397805 -1.5 0 -1.5 
C -0.397805 -1.5 -0.77937 -1.341951 -1.06066 -1.06066 
C -1.341951 -0.77937 -1.5 -0.397805 -1.5 0 
C -1.5 0.397805 -1.341951 0.77937 -1.06066 1.06066 
C -0.77937 1.341951 -0.397805 1.5 0 1.5 
z
" id="mf5e570910b" style="stroke:#d62728;"/>
    </defs>
    <g clip-path="url(#p952d19d1ab)">
     <use style="fill:#d62728;stroke:#d62728;" x="98.34625" xlink:href="#mf5e570910b" y="148.067906"/>
     <use style="fill:#d62728;stroke:#d62728;" x="98.34625" xlink:href="#mf5e570910b" y="154.309422"/>
     <use style="fill:#d62728;stroke:#d62728;" x="98.34625" xlink:href="#mf5e570910b" y="147.514147"/>
     <use style="fill:#d62728;stroke:#d62728;" x="98.34625" xlink:href="#mf5e570910b" y="152.169474"/>
    </g>
   </g>
   <g id="line2d_61">
    <path clip-path="url(#p952d19d1ab)" d="M 7.831964 190.416363 
L 206.963393 190.416363 
" style="fill:none;stroke:#000000;stroke-dasharray:2.775,1.2;stroke-dashoffset:0;stroke-opacity:0.55;stroke-width:0.75;"/>
   </g>
   <g id="patch_27">
    <path clip-path="url(#p952d19d1ab)" d="M 39.511964 -938374.165901 
L 48.563393 -938374.165901 
L 48.563393 -938374.165901 
L 39.511964 -938374.165901 
L 39.511964 -938374.165901 
z
" style="fill:#1f77b4;opacity:0.65;stroke:#000000;stroke-linejoin:miter;"/>
   </g>
   <g id="patch_28">
    <path clip-path="url(#p952d19d1ab)" d="M 57.614821 -938374.165901 
L 66.66625 -938374.165901 
L 66.66625 -938374.165901 
L 57.614821 -938374.165901 
L 57.614821 -938374.165901 
z
" style="fill:#ff7f0e;opacity:0.65;stroke:#000000;stroke-linejoin:miter;"/>
   </g>
   <g id="patch_29">
    <path clip-path="url(#p952d19d1ab)" d="M 75.717679 162.484402 
L 84.769107 162.484402 
L 84.769107 157.631974 
L 75.717679 157.631974 
L 75.717679 162.484402 
z
" style="fill:#2ca02c;opacity:0.65;stroke:#000000;stroke-linejoin:miter;"/>
   </g>
   <g id="patch_30">
    <path clip-path="url(#p952d19d1ab)" d="M 93.820536 152.704461 
L 102.871964 152.704461 
L 102.871964 147.929466 
L 93.820536 147.929466 
L 93.820536 152.704461 
z
" style="fill:#d62728;opacity:0.65;stroke:#000000;stroke-linejoin:miter;"/>
   </g>
   <g id="patch_31">
    <path clip-path="url(#p952d19d1ab)" d="M 111.923393 -938374.165901 
L 120.974821 -938374.165901 
L 120.974821 -938374.165901 
L 111.923393 -938374.165901 
L 111.923393 -938374.165901 
z
" style="fill:#9467bd;opacity:0.65;stroke:#000000;stroke-linejoin:miter;"/>
   </g>
   <g id="patch_32">
    <path clip-path="url(#p952d19d1ab)" d="z
" style="fill:#8c564b;opacity:0.65;stroke:#000000;stroke-linejoin:miter;"/>
   </g>
   <g id="line2d_62">
    <path clip-path="url(#p952d19d1ab)" style="fill:none;stroke:#808080;stroke-linecap:square;"/>
   </g>
   <g id="line2d_63">
    <path clip-path="url(#p952d19d1ab)" style="fill:none;stroke:#808080;stroke-linecap:square;"/>
   </g>
   <g id="line2d_64">
    <path clip-path="url(#p952d19d1ab)" d="M 75.717679 158.617477 
L 84.769107 158.617477 
" style="fill:none;stroke:#808080;stroke-linecap:square;"/>
   </g>
   <g id="line2d_65">
    <path clip-path="url(#p952d19d1ab)" d="M 93.820536 150.11869 
L 102.871964 150.11869 
" style="fill:none;stroke:#808080;stroke-linecap:square;"/>
   </g>
   <g id="line2d_66">
    <path clip-path="url(#p952d19d1ab)" style="fill:none;stroke:#808080;stroke-linecap:square;"/>
   </g>
   <g id="line2d_67">
    <path clip-path="url(#p952d19d1ab)" d="M 0 0 
" style="fill:none;stroke:#808080;stroke-linecap:square;"/>
   </g>
   <g id="patch_33">
    <path d="M 34.98625 247.669375 
L 34.98625 133.163351 
" style="fill:none;stroke:#000000;stroke-linecap:square;stroke-linejoin:miter;stroke-width:0.75;"/>
   </g>
   <g id="patch_34">
    <path d="M 161.70625 247.669375 
L 161.70625 133.163351 
" style="fill:none;stroke:#000000;stroke-linecap:square;stroke-linejoin:miter;stroke-width:0.75;"/>
   </g>
   <g id="patch_35">
    <path d="M 34.98625 247.669375 
L 161.70625 247.669375 
" style="fill:none;stroke:#000000;stroke-linecap:square;stroke-linejoin:miter;stroke-width:0.75;"/>
   </g>
   <g id="patch_36">
    <path d="M 34.98625 133.163351 
L 161.70625 133.163351 
" style="fill:none;stroke:#000000;stroke-linecap:square;stroke-linejoin:miter;stroke-width:0.75;"/>
   </g>
  </g>
  <g id="axes_4">
   <g id="patch_37">
    <path d="M 193.38625 247.669375 
L 320.10625 247.669375 
L 320.10625 133.163351 
L 193.38625 133.163351 
z
" style="fill:#ffffff;"/>
   </g>
   <g id="matplotlib.axis_7">
    <g id="xtick_8">
     <g id="line2d_68">
      <g>
       <use style="stroke:#000000;stroke-width:0.8;" x="202.437679" xlink:href="#mf3512a4efd" y="247.669375"/>
      </g>
     </g>
     <g id="text_32">
      <!-- O–Li$_6$ -->
      <g transform="translate(201.77434 275.782286)rotate(-75)scale(0.08 -0.08)">
       <use transform="translate(0 0.3125)" xlink:href="#Helvetica-79"/>
       <use transform="translate(77.783203 0.3125)" xlink:href="#Helvetica-8211"/>
       <use transform="translate(133.398438 0.3125)" xlink:href="#Helvetica-76"/>
       <use transform="translate(189.013672 0.3125)" xlink:href="#Helvetica-105"/>
       <use transform="translate(212.145664 -15.376563)scale(0.7)" xlink:href="#Helvetica-54"/>
      </g>
     </g>
    </g>
    <g id="xtick_9">
     <g id="line2d_69">
      <g>
       <use style="stroke:#000000;stroke-width:0.8;" x="220.540536" xlink:href="#mf3512a4efd" y="247.669375"/>
      </g>
     </g>
     <g id="text_33">
      <!-- O–Li$_5$TM -->
      <g transform="translate(218.376047 286.987025)rotate(-75)scale(0.08 -0.08)">
       <use transform="translate(0 0.3125)" xlink:href="#Helvetica-79"/>
       <use transform="translate(77.783203 0.3125)" xlink:href="#Helvetica-8211"/>
       <use transform="translate(133.398438 0.3125)" xlink:href="#Helvetica-76"/>
       <use transform="translate(189.013672 0.3125)" xlink:href="#Helvetica-105"/>
       <use transform="translate(212.145664 -15.376563)scale(0.7)" xlink:href="#Helvetica-53"/>
       <use transform="translate(253.691172 0.3125)" xlink:href="#Helvetica-84"/>
       <use transform="translate(314.775156 0.3125)" xlink:href="#Helvetica-77"/>
      </g>
     </g>
    </g>
    <g id="xtick_10">
     <g id="line2d_70">
      <g>
       <use style="stroke:#000000;stroke-width:0.8;" x="238.643393" xlink:href="#mf3512a4efd" y="247.669375"/>
      </g>
     </g>
     <g id="text_34">
      <!-- O–Li$_4$TM$_2$ -->
      <g transform="translate(236.044088 290.232536)rotate(-75)scale(0.08 -0.08)">
       <use transform="translate(0 0.3125)" xlink:href="#Helvetica-79"/>
       <use transform="translate(77.783203 0.3125)" xlink:href="#Helvetica-8211"/>
       <use transform="translate(133.398438 0.3125)" xlink:href="#Helvetica-76"/>
       <use transform="translate(189.013672 0.3125)" xlink:href="#Helvetica-105"/>
       <use transform="translate(212.145664 -15.376563)scale(0.7)" xlink:href="#Helvetica-52"/>
       <use transform="translate(253.691172 0.3125)" xlink:href="#Helvetica-84"/>
       <use transform="translate(314.775156 0.3125)" xlink:href="#Helvetica-77"/>
       <use transform="translate(398.991133 -15.376563)scale(0.7)" xlink:href="#Helvetica-50"/>
      </g>
     </g>
    </g>
    <g id="xtick_11">
     <g id="line2d_71">
      <g>
       <use style="stroke:#000000;stroke-width:0.8;" x="256.74625" xlink:href="#mf3512a4efd" y="247.669375"/>
      </g>
     </g>
     <g id="text_35">
      <!-- O–Li$_3$TM$_3$ -->
      <g transform="translate(254.146945 290.232536)rotate(-75)scale(0.08 -0.08)">
       <use transform="translate(0 0.3125)" xlink:href="#Helvetica-79"/>
       <use transform="translate(77.783203 0.3125)" xlink:href="#Helvetica-8211"/>
       <use transform="translate(133.398438 0.3125)" xlink:href="#Helvetica-76"/>
       <use transform="translate(189.013672 0.3125)" xlink:href="#Helvetica-105"/>
       <use transform="translate(212.145664 -15.376563)scale(0.7)" xlink:href="#Helvetica-51"/>
       <use transform="translate(253.691172 0.3125)" xlink:href="#Helvetica-84"/>
       <use transform="translate(314.775156 0.3125)" xlink:href="#Helvetica-77"/>
       <use transform="translate(398.991133 -15.376563)scale(0.7)" xlink:href="#Helvetica-51"/>
      </g>
     </g>
    </g>
    <g id="xtick_12">
     <g id="line2d_72">
      <g>
       <use style="stroke:#000000;stroke-width:0.8;" x="274.849107" xlink:href="#mf3512a4efd" y="247.669375"/>
      </g>
     </g>
     <g id="text_36">
      <!-- O–Li$_2$TM$_4$ -->
      <g transform="translate(272.249802 290.232536)rotate(-75)scale(0.08 -0.08)">
       <use transform="translate(0 0.3125)" xlink:href="#Helvetica-79"/>
       <use transform="translate(77.783203 0.3125)" xlink:href="#Helvetica-8211"/>
       <use transform="translate(133.398438 0.3125)" xlink:href="#Helvetica-76"/>
       <use transform="translate(189.013672 0.3125)" xlink:href="#Helvetica-105"/>
       <use transform="translate(212.145664 -15.376563)scale(0.7)" xlink:href="#Helvetica-50"/>
       <use transform="translate(253.691172 0.3125)" xlink:href="#Helvetica-84"/>
       <use transform="translate(314.775156 0.3125)" xlink:href="#Helvetica-77"/>
       <use transform="translate(398.991133 -15.376563)scale(0.7)" xlink:href="#Helvetica-52"/>
      </g>
     </g>
    </g>
    <g id="xtick_13">
     <g id="line2d_73">
      <g>
       <use style="stroke:#000000;stroke-width:0.8;" x="292.951964" xlink:href="#mf3512a4efd" y="247.669375"/>
      </g>
     </g>
     <g id="text_37">
      <!-- O–Li$_1$TM$_5$ -->
      <g transform="translate(290.352659 290.232536)rotate(-75)scale(0.08 -0.08)">
       <use transform="translate(0 0.3125)" xlink:href="#Helvetica-79"/>
       <use transform="translate(77.783203 0.3125)" xlink:href="#Helvetica-8211"/>
       <use transform="translate(133.398438 0.3125)" xlink:href="#Helvetica-76"/>
       <use transform="translate(189.013672 0.3125)" xlink:href="#Helvetica-105"/>
       <use transform="translate(212.145664 -15.376563)scale(0.7)" xlink:href="#Helvetica-49"/>
       <use transform="translate(253.691172 0.3125)" xlink:href="#Helvetica-84"/>
       <use transform="translate(314.775156 0.3125)" xlink:href="#Helvetica-77"/>
       <use transform="translate(398.991133 -15.376563)scale(0.7)" xlink:href="#Helvetica-53"/>
      </g>
     </g>
    </g>
    <g id="xtick_14">
     <g id="line2d_74">
      <g>
       <use style="stroke:#000000;stroke-width:0.8;" x="311.054821" xlink:href="#mf3512a4efd" y="247.669375"/>
      </g>
     </g>
     <g id="text_38">
      <!-- O–Li$_0$TM$_6$ -->
      <g transform="translate(308.455516 290.232536)rotate(-75)scale(0.08 -0.08)">
       <use transform="translate(0 0.3125)" xlink:href="#Helvetica-79"/>
       <use transform="translate(77.783203 0.3125)" xlink:href="#Helvetica-8211"/>
       <use transform="translate(133.398438 0.3125)" xlink:href="#Helvetica-76"/>
       <use transform="translate(189.013672 0.3125)" xlink:href="#Helvetica-105"/>
       <use transform="translate(212.145664 -15.376563)scale(0.7)" xlink:href="#Helvetica-48"/>
       <use transform="translate(253.691172 0.3125)" xlink:href="#Helvetica-84"/>
       <use transform="translate(314.775156 0.3125)" xlink:href="#Helvetica-77"/>
       <use transform="translate(398.991133 -15.376563)scale(0.7)" xlink:href="#Helvetica-54"/>
      </g>
     </g>
    </g>
    <g id="text_39">
     <!-- O–{Li,Mn,Ni} sites -->
     <g transform="translate(224.733125 300.524117)scale(0.08 -0.08)">
      <use xlink:href="#Helvetica-79"/>
      <use x="77.783203" xlink:href="#Helvetica-8211"/>
      <use x="133.398438" xlink:href="#Helvetica-123"/>
      <use x="166.796875" xlink:href="#Helvetica-76"/>
      <use x="222.412109" xlink:href="#Helvetica-105"/>
      <use x="244.628906" xlink:href="#Helvetica-44"/>
      <use x="272.412109" xlink:href="#Helvetica-77"/>
      <use x="355.712891" xlink:href="#Helvetica-110"/>
      <use x="411.328125" xlink:href="#Helvetica-44"/>
      <use x="439.111328" xlink:href="#Helvetica-78"/>
      <use x="511.328125" xlink:href="#Helvetica-105"/>
      <use x="533.544922" xlink:href="#Helvetica-125"/>
      <use x="566.943359" xlink:href="#Helvetica-32"/>
      <use x="594.726562" xlink:href="#Helvetica-115"/>
      <use x="644.726562" xlink:href="#Helvetica-105"/>
      <use x="666.943359" xlink:href="#Helvetica-116"/>
      <use x="694.726562" xlink:href="#Helvetica-101"/>
      <use x="750.341797" xlink:href="#Helvetica-115"/>
     </g>
    </g>
   </g>
   <g id="matplotlib.axis_8">
    <g id="ytick_22">
     <g id="line2d_75">
      <g>
       <use style="stroke:#000000;stroke-width:0.8;" x="193.38625" xlink:href="#m8f9618e97f" y="246.730801"/>
      </g>
     </g>
     <g id="text_40">
      <!-- −6 -->
      <g transform="translate(177.265 249.600176)scale(0.08 -0.08)">
       <use xlink:href="#Helvetica-8722"/>
       <use x="58.398438" xlink:href="#Helvetica-54"/>
      </g>
     </g>
    </g>
    <g id="ytick_23">
     <g id="line2d_76">
      <g>
       <use style="stroke:#000000;stroke-width:0.8;" x="193.38625" xlink:href="#m8f9618e97f" y="227.959322"/>
      </g>
     </g>
     <g id="text_41">
      <!-- −4 -->
      <g transform="translate(177.265 230.828697)scale(0.08 -0.08)">
       <use xlink:href="#Helvetica-8722"/>
       <use x="58.398438" xlink:href="#Helvetica-52"/>
      </g>
     </g>
    </g>
    <g id="ytick_24">
     <g id="line2d_77">
      <g>
       <use style="stroke:#000000;stroke-width:0.8;" x="193.38625" xlink:href="#m8f9618e97f" y="209.187842"/>
      </g>
     </g>
     <g id="text_42">
      <!-- −2 -->
      <g transform="translate(177.265 212.057217)scale(0.08 -0.08)">
       <use xlink:href="#Helvetica-8722"/>
       <use x="58.398438" xlink:href="#Helvetica-50"/>
      </g>
     </g>
    </g>
    <g id="ytick_25">
     <g id="line2d_78">
      <g>
       <use style="stroke:#000000;stroke-width:0.8;" x="193.38625" xlink:href="#m8f9618e97f" y="190.416363"/>
      </g>
     </g>
     <g id="text_43">
      <!-- 0 -->
      <g transform="translate(181.9375 193.285738)scale(0.08 -0.08)">
       <use xlink:href="#Helvetica-48"/>
      </g>
     </g>
    </g>
    <g id="ytick_26">
     <g id="line2d_79">
      <g>
       <use style="stroke:#000000;stroke-width:0.8;" x="193.38625" xlink:href="#m8f9618e97f" y="171.644884"/>
      </g>
     </g>
     <g id="text_44">
      <!-- 2 -->
      <g transform="translate(181.9375 174.514259)scale(0.08 -0.08)">
       <use xlink:href="#Helvetica-50"/>
      </g>
     </g>
    </g>
    <g id="ytick_27">
     <g id="line2d_80">
      <g>
       <use style="stroke:#000000;stroke-width:0.8;" x="193.38625" xlink:href="#m8f9618e97f" y="152.873404"/>
      </g>
     </g>
     <g id="text_45">
      <!-- 4 -->
      <g transform="translate(181.9375 155.742779)scale(0.08 -0.08)">
       <use xlink:href="#Helvetica-52"/>
      </g>
     </g>
    </g>
    <g id="ytick_28">
     <g id="line2d_81">
      <g>
       <use style="stroke:#000000;stroke-width:0.8;" x="193.38625" xlink:href="#m8f9618e97f" y="134.101925"/>
      </g>
     </g>
     <g id="text_46">
      <!-- 6 -->
      <g transform="translate(181.9375 136.9713)scale(0.08 -0.08)">
       <use xlink:href="#Helvetica-54"/>
      </g>
     </g>
    </g>
   </g>
   <g id="line2d_82">
    <path clip-path="url(#pa62e97dcc9)" d="M 202.437679 203.180214 
L 202.437679 203.180214 
" style="fill:none;stroke:#000000;stroke-linecap:square;"/>
   </g>
   <g id="line2d_83">
    <path clip-path="url(#pa62e97dcc9)" d="M 202.437679 192.678738 
L 202.437679 189.535697 
" style="fill:none;stroke:#000000;stroke-linecap:square;"/>
   </g>
   <g id="line2d_84">
    <path clip-path="url(#pa62e97dcc9)" d="M 200.174821 203.180214 
L 204.700536 203.180214 
" style="fill:none;stroke:#000000;stroke-linecap:square;"/>
   </g>
   <g id="line2d_85">
    <path clip-path="url(#pa62e97dcc9)" d="M 200.174821 189.535697 
L 204.700536 189.535697 
" style="fill:none;stroke:#000000;stroke-linecap:square;"/>
   </g>
   <g id="line2d_86">
    <defs>
     <path d="M 0 0.5 
C 0.132602 0.5 0.25979 0.447317 0.353553 0.353553 
C 0.447317 0.25979 0.5 0.132602 0.5 0 
C 0.5 -0.132602 0.447317 -0.25979 0.353553 -0.353553 
C 0.25979 -0.447317 0.132602 -0.5 0 -0.5 
C -0.132602 -0.5 -0.25979 -0.447317 -0.353553 -0.353553 
C -0.447317 -0.25979 -0.5 -0.132602 -0.5 0 
C -0.5 0.132602 -0.447317 0.25979 -0.353553 0.353553 
C -0.25979 0.447317 -0.132602 0.5 0 0.5 
z
" id="maf4400057e" style="stroke:#000000;"/>
    </defs>
    <g clip-path="url(#pa62e97dcc9)">
     <use style="fill:#808080;stroke:#000000;" x="202.437679" xlink:href="#maf4400057e" y="230.042956"/>
    </g>
   </g>
   <g id="line2d_87">
    <path clip-path="url(#pa62e97dcc9)" d="M 220.540536 186.793695 
L 220.540536 188.586144 
" style="fill:none;stroke:#000000;stroke-linecap:square;"/>
   </g>
   <g id="line2d_88">
    <path clip-path="url(#pa62e97dcc9)" d="M 220.540536 170.865916 
L 220.540536 161.109566 
" style="fill:none;stroke:#000000;stroke-linecap:square;"/>
   </g>
   <g id="line2d_89">
    <path clip-path="url(#pa62e97dcc9)" d="M 218.277679 188.586144 
L 222.803393 188.586144 
" style="fill:none;stroke:#000000;stroke-linecap:square;"/>
   </g>
   <g id="line2d_90">
    <path clip-path="url(#pa62e97dcc9)" d="M 218.277679 161.109566 
L 222.803393 161.109566 
" style="fill:none;stroke:#000000;stroke-linecap:square;"/>
   </g>
   <g id="line2d_91"/>
   <g id="line2d_92">
    <path clip-path="url(#pa62e97dcc9)" d="M 238.643393 169.189744 
L 238.643393 172.23955 
" style="fill:none;stroke:#000000;stroke-linecap:square;"/>
   </g>
   <g id="line2d_93">
    <path clip-path="url(#pa62e97dcc9)" d="M 238.643393 160.407229 
L 238.643393 154.551772 
" style="fill:none;stroke:#000000;stroke-linecap:square;"/>
   </g>
   <g id="line2d_94">
    <path clip-path="url(#pa62e97dcc9)" d="M 236.380536 172.23955 
L 240.90625 172.23955 
" style="fill:none;stroke:#000000;stroke-linecap:square;"/>
   </g>
   <g id="line2d_95">
    <path clip-path="url(#pa62e97dcc9)" d="M 236.380536 154.551772 
L 240.90625 154.551772 
" style="fill:none;stroke:#000000;stroke-linecap:square;"/>
   </g>
   <g id="line2d_96"/>
   <g id="line2d_97">
    <path clip-path="url(#pa62e97dcc9)" d="M 256.74625 161.77392 
L 256.74625 170.753937 
" style="fill:none;stroke:#000000;stroke-linecap:square;"/>
   </g>
   <g id="line2d_98">
    <path clip-path="url(#pa62e97dcc9)" d="M 256.74625 153.456296 
L 256.74625 151.217031 
" style="fill:none;stroke:#000000;stroke-linecap:square;"/>
   </g>
   <g id="line2d_99">
    <path clip-path="url(#pa62e97dcc9)" d="M 254.483393 170.753937 
L 259.009107 170.753937 
" style="fill:none;stroke:#000000;stroke-linecap:square;"/>
   </g>
   <g id="line2d_100">
    <path clip-path="url(#pa62e97dcc9)" d="M 254.483393 151.217031 
L 259.009107 151.217031 
" style="fill:none;stroke:#000000;stroke-linecap:square;"/>
   </g>
   <g id="line2d_101">
    <g clip-path="url(#pa62e97dcc9)">
     <use style="fill:#808080;stroke:#000000;" x="256.74625" xlink:href="#maf4400057e" y="140.624567"/>
    </g>
   </g>
   <g id="line2d_102">
    <path clip-path="url(#pa62e97dcc9)" d="M 274.849107 154.750552 
L 274.849107 161.834925 
" style="fill:none;stroke:#000000;stroke-linecap:square;"/>
   </g>
   <g id="line2d_103">
    <path clip-path="url(#pa62e97dcc9)" d="M 274.849107 149.588395 
L 274.849107 143.823658 
" style="fill:none;stroke:#000000;stroke-linecap:square;"/>
   </g>
   <g id="line2d_104">
    <path clip-path="url(#pa62e97dcc9)" d="M 272.58625 161.834925 
L 277.111964 161.834925 
" style="fill:none;stroke:#000000;stroke-linecap:square;"/>
   </g>
   <g id="line2d_105">
    <path clip-path="url(#pa62e97dcc9)" d="M 272.58625 143.823658 
L 277.111964 143.823658 
" style="fill:none;stroke:#000000;stroke-linecap:square;"/>
   </g>
   <g id="line2d_106">
    <g clip-path="url(#pa62e97dcc9)">
     <use style="fill:#808080;stroke:#000000;" x="274.849107" xlink:href="#maf4400057e" y="140.496911"/>
    </g>
   </g>
   <g id="line2d_107">
    <path clip-path="url(#pa62e97dcc9)" d="M 292.951964 151.091175 
L 292.951964 153.295796 
" style="fill:none;stroke:#000000;stroke-linecap:square;"/>
   </g>
   <g id="line2d_108">
    <path clip-path="url(#pa62e97dcc9)" d="M 292.951964 146.681933 
L 292.951964 144.477311 
" style="fill:none;stroke:#000000;stroke-linecap:square;"/>
   </g>
   <g id="line2d_109">
    <path clip-path="url(#pa62e97dcc9)" d="M 290.689107 153.295796 
L 295.214821 153.295796 
" style="fill:none;stroke:#000000;stroke-linecap:square;"/>
   </g>
   <g id="line2d_110">
    <path clip-path="url(#pa62e97dcc9)" d="M 290.689107 144.477311 
L 295.214821 144.477311 
" style="fill:none;stroke:#000000;stroke-linecap:square;"/>
   </g>
   <g id="line2d_111"/>
   <g id="line2d_112">
    <defs>
     <path d="M 0 1.5 
C 0.397805 1.5 0.77937 1.341951 1.06066 1.06066 
C 1.341951 0.77937 1.5 0.397805 1.5 0 
C 1.5 -0.397805 1.341951 -0.77937 1.06066 -1.06066 
C 0.77937 -1.341951 0.397805 -1.5 0 -1.5 
C -0.397805 -1.5 -0.77937 -1.341951 -1.06066 -1.06066 
C -1.341951 -0.77937 -1.5 -0.397805 -1.5 0 
C -1.5 0.397805 -1.341951 0.77937 -1.06066 1.06066 
C -0.77937 1.341951 -0.397805 1.5 0 1.5 
z
" id="mcd4a848b01" style="stroke:#1f77b4;"/>
    </defs>
    <g clip-path="url(#pa62e97dcc9)">
     <use style="fill:#1f77b4;stroke:#1f77b4;" x="202.437679" xlink:href="#mcd4a848b01" y="189.535697"/>
     <use style="fill:#1f77b4;stroke:#1f77b4;" x="202.437679" xlink:href="#mcd4a848b01" y="193.726419"/>
     <use style="fill:#1f77b4;stroke:#1f77b4;" x="202.437679" xlink:href="#mcd4a848b01" y="194.225966"/>
     <use style="fill:#1f77b4;stroke:#1f77b4;" x="202.437679" xlink:href="#mcd4a848b01" y="230.042956"/>
    </g>
   </g>
   <g id="line2d_113">
    <defs>
     <path d="M 0 1.5 
C 0.397805 1.5 0.77937 1.341951 1.06066 1.06066 
C 1.341951 0.77937 1.5 0.397805 1.5 0 
C 1.5 -0.397805 1.341951 -0.77937 1.06066 -1.06066 
C 0.77937 -1.341951 0.397805 -1.5 0 -1.5 
C -0.397805 -1.5 -0.77937 -1.341951 -1.06066 -1.06066 
C -1.341951 -0.77937 -1.5 -0.397805 -1.5 0 
C -1.5 0.397805 -1.341951 0.77937 -1.06066 1.06066 
C -0.77937 1.341951 -0.397805 1.5 0 1.5 
z
" id="m013f1c2d88" style="stroke:#ff7f0e;"/>
    </defs>
    <g clip-path="url(#pa62e97dcc9)">
     <use style="fill:#ff7f0e;stroke:#ff7f0e;" x="220.540536" xlink:href="#m013f1c2d88" y="171.751524"/>
     <use style="fill:#ff7f0e;stroke:#ff7f0e;" x="220.540536" xlink:href="#m013f1c2d88" y="161.109566"/>
     <use style="fill:#ff7f0e;stroke:#ff7f0e;" x="220.540536" xlink:href="#m013f1c2d88" y="177.773472"/>
     <use style="fill:#ff7f0e;stroke:#ff7f0e;" x="220.540536" xlink:href="#m013f1c2d88" y="170.384367"/>
     <use style="fill:#ff7f0e;stroke:#ff7f0e;" x="220.540536" xlink:href="#m013f1c2d88" y="171.026433"/>
     <use style="fill:#ff7f0e;stroke:#ff7f0e;" x="220.540536" xlink:href="#m013f1c2d88" y="186.29007"/>
     <use style="fill:#ff7f0e;stroke:#ff7f0e;" x="220.540536" xlink:href="#m013f1c2d88" y="188.304572"/>
     <use style="fill:#ff7f0e;stroke:#ff7f0e;" x="220.540536" xlink:href="#m013f1c2d88" y="188.586144"/>
    </g>
   </g>
   <g id="line2d_114">
    <g clip-path="url(#pa62e97dcc9)">
     <use style="fill:#2ca02c;stroke:#2ca02c;" x="238.643393" xlink:href="#mb0ead9efff" y="157.273361"/>
     <use style="fill:#2ca02c;stroke:#2ca02c;" x="238.643393" xlink:href="#mb0ead9efff" y="170.221136"/>
     <use style="fill:#2ca02c;stroke:#2ca02c;" x="238.643393" xlink:href="#mb0ead9efff" y="160.9235"/>
     <use style="fill:#2ca02c;stroke:#2ca02c;" x="238.643393" xlink:href="#mb0ead9efff" y="165.666806"/>
     <use style="fill:#2ca02c;stroke:#2ca02c;" x="238.643393" xlink:href="#mb0ead9efff" y="163.189143"/>
     <use style="fill:#2ca02c;stroke:#2ca02c;" x="238.643393" xlink:href="#mb0ead9efff" y="169.00526"/>
     <use style="fill:#2ca02c;stroke:#2ca02c;" x="238.643393" xlink:href="#mb0ead9efff" y="169.374228"/>
     <use style="fill:#2ca02c;stroke:#2ca02c;" x="238.643393" xlink:href="#mb0ead9efff" y="166.564357"/>
     <use style="fill:#2ca02c;stroke:#2ca02c;" x="238.643393" xlink:href="#mb0ead9efff" y="163.271795"/>
     <use style="fill:#2ca02c;stroke:#2ca02c;" x="238.643393" xlink:href="#mb0ead9efff" y="159.890957"/>
     <use style="fill:#2ca02c;stroke:#2ca02c;" x="238.643393" xlink:href="#mb0ead9efff" y="172.23955"/>
     <use style="fill:#2ca02c;stroke:#2ca02c;" x="238.643393" xlink:href="#mb0ead9efff" y="154.551772"/>
     <use style="fill:#2ca02c;stroke:#2ca02c;" x="238.643393" xlink:href="#mb0ead9efff" y="158.562343"/>
     <use style="fill:#2ca02c;stroke:#2ca02c;" x="238.643393" xlink:href="#mb0ead9efff" y="164.651954"/>
     <use style="fill:#2ca02c;stroke:#2ca02c;" x="238.643393" xlink:href="#mb0ead9efff" y="172.065432"/>
    </g>
   </g>
   <g id="line2d_115">
    <g clip-path="url(#pa62e97dcc9)">
     <use style="fill:#d62728;stroke:#d62728;" x="256.74625" xlink:href="#mf5e570910b" y="156.490599"/>
     <use style="fill:#d62728;stroke:#d62728;" x="256.74625" xlink:href="#mf5e570910b" y="140.624567"/>
     <use style="fill:#d62728;stroke:#d62728;" x="256.74625" xlink:href="#mf5e570910b" y="151.217031"/>
     <use style="fill:#d62728;stroke:#d62728;" x="256.74625" xlink:href="#mf5e570910b" y="170.753937"/>
     <use style="fill:#d62728;stroke:#d62728;" x="256.74625" xlink:href="#mf5e570910b" y="154.035529"/>
     <use style="fill:#d62728;stroke:#d62728;" x="256.74625" xlink:href="#mf5e570910b" y="154.58301"/>
     <use style="fill:#d62728;stroke:#d62728;" x="256.74625" xlink:href="#mf5e570910b" y="166.061009"/>
     <use style="fill:#d62728;stroke:#d62728;" x="256.74625" xlink:href="#mf5e570910b" y="152.591451"/>
     <use style="fill:#d62728;stroke:#d62728;" x="256.74625" xlink:href="#mf5e570910b" y="153.456296"/>
     <use style="fill:#d62728;stroke:#d62728;" x="256.74625" xlink:href="#mf5e570910b" y="156.578515"/>
     <use style="fill:#d62728;stroke:#d62728;" x="256.74625" xlink:href="#mf5e570910b" y="161.77392"/>
     <use style="fill:#d62728;stroke:#d62728;" x="256.74625" xlink:href="#mf5e570910b" y="169.50549"/>
     <use style="fill:#d62728;stroke:#d62728;" x="256.74625" xlink:href="#mf5e570910b" y="158.952031"/>
    </g>
   </g>
   <g id="line2d_116">
    <defs>
     <path d="M 0 1.5 
C 0.397805 1.5 0.77937 1.341951 1.06066 1.06066 
C 1.341951 0.77937 1.5 0.397805 1.5 0 
C 1.5 -0.397805 1.341951 -0.77937 1.06066 -1.06066 
C 0.77937 -1.341951 0.397805 -1.5 0 -1.5 
C -0.397805 -1.5 -0.77937 -1.341951 -1.06066 -1.06066 
C -1.341951 -0.77937 -1.5 -0.397805 -1.5 0 
C -1.5 0.397805 -1.341951 0.77937 -1.06066 1.06066 
C -0.77937 1.341951 -0.397805 1.5 0 1.5 
z
" id="mc636ba8fc6" style="stroke:#9467bd;"/>
    </defs>
    <g clip-path="url(#pa62e97dcc9)">
     <use style="fill:#9467bd;stroke:#9467bd;" x="274.849107" xlink:href="#mc636ba8fc6" y="156.094848"/>
     <use style="fill:#9467bd;stroke:#9467bd;" x="274.849107" xlink:href="#mc636ba8fc6" y="161.834925"/>
     <use style="fill:#9467bd;stroke:#9467bd;" x="274.849107" xlink:href="#mc636ba8fc6" y="143.823658"/>
     <use style="fill:#9467bd;stroke:#9467bd;" x="274.849107" xlink:href="#mc636ba8fc6" y="156.613548"/>
     <use style="fill:#9467bd;stroke:#9467bd;" x="274.849107" xlink:href="#mc636ba8fc6" y="152.583792"/>
     <use style="fill:#9467bd;stroke:#9467bd;" x="274.849107" xlink:href="#mc636ba8fc6" y="152.856681"/>
     <use style="fill:#9467bd;stroke:#9467bd;" x="274.849107" xlink:href="#mc636ba8fc6" y="153.759386"/>
     <use style="fill:#9467bd;stroke:#9467bd;" x="274.849107" xlink:href="#mc636ba8fc6" y="140.496911"/>
     <use style="fill:#9467bd;stroke:#9467bd;" x="274.849107" xlink:href="#mc636ba8fc6" y="153.612573"/>
     <use style="fill:#9467bd;stroke:#9467bd;" x="274.849107" xlink:href="#mc636ba8fc6" y="146.303386"/>
     <use style="fill:#9467bd;stroke:#9467bd;" x="274.849107" xlink:href="#mc636ba8fc6" y="150.996256"/>
     <use style="fill:#9467bd;stroke:#9467bd;" x="274.849107" xlink:href="#mc636ba8fc6" y="154.750552"/>
     <use style="fill:#9467bd;stroke:#9467bd;" x="274.849107" xlink:href="#mc636ba8fc6" y="149.588395"/>
    </g>
   </g>
   <g id="line2d_117">
    <defs>
     <path d="M 0 1.5 
C 0.397805 1.5 0.77937 1.341951 1.06066 1.06066 
C 1.341951 0.77937 1.5 0.397805 1.5 0 
C 1.5 -0.397805 1.341951 -0.77937 1.06066 -1.06066 
C 0.77937 -1.341951 0.397805 -1.5 0 -1.5 
C -0.397805 -1.5 -0.77937 -1.341951 -1.06066 -1.06066 
C -1.341951 -0.77937 -1.5 -0.397805 -1.5 0 
C -1.5 0.397805 -1.341951 0.77937 -1.06066 1.06066 
C -0.77937 1.341951 -0.397805 1.5 0 1.5 
z
" id="ma024c3724f" style="stroke:#8c564b;"/>
    </defs>
    <g clip-path="url(#pa62e97dcc9)">
     <use style="fill:#8c564b;stroke:#8c564b;" x="292.951964" xlink:href="#ma024c3724f" y="144.477311"/>
     <use style="fill:#8c564b;stroke:#8c564b;" x="292.951964" xlink:href="#ma024c3724f" y="153.295796"/>
    </g>
   </g>
   <g id="line2d_118">
    <path clip-path="url(#pa62e97dcc9)" d="M 166.231964 190.416363 
L 328.30625 190.416363 
" style="fill:none;stroke:#000000;stroke-dasharray:2.775,1.2;stroke-dashoffset:0;stroke-opacity:0.55;stroke-width:0.75;"/>
   </g>
   <g id="patch_38">
    <path clip-path="url(#pa62e97dcc9)" d="M 197.911964 203.180214 
L 206.963393 203.180214 
L 206.963393 192.678738 
L 197.911964 192.678738 
L 197.911964 203.180214 
z
" style="fill:#1f77b4;opacity:0.65;stroke:#000000;stroke-linejoin:miter;"/>
   </g>
   <g id="patch_39">
    <path clip-path="url(#pa62e97dcc9)" d="M 216.014821 186.793695 
L 225.06625 186.793695 
L 225.06625 170.865916 
L 216.014821 170.865916 
L 216.014821 186.793695 
z
" style="fill:#ff7f0e;opacity:0.65;stroke:#000000;stroke-linejoin:miter;"/>
   </g>
   <g id="patch_40">
    <path clip-path="url(#pa62e97dcc9)" d="M 234.117679 169.189744 
L 243.169107 169.189744 
L 243.169107 160.407229 
L 234.117679 160.407229 
L 234.117679 169.189744 
z
" style="fill:#2ca02c;opacity:0.65;stroke:#000000;stroke-linejoin:miter;"/>
   </g>
   <g id="patch_41">
    <path clip-path="url(#pa62e97dcc9)" d="M 252.220536 161.77392 
L 261.271964 161.77392 
L 261.271964 153.456296 
L 252.220536 153.456296 
L 252.220536 161.77392 
z
" style="fill:#d62728;opacity:0.65;stroke:#000000;stroke-linejoin:miter;"/>
   </g>
   <g id="patch_42">
    <path clip-path="url(#pa62e97dcc9)" d="M 270.323393 154.750552 
L 279.374821 154.750552 
L 279.374821 149.588395 
L 270.323393 149.588395 
L 270.323393 154.750552 
z
" style="fill:#9467bd;opacity:0.65;stroke:#000000;stroke-linejoin:miter;"/>
   </g>
   <g id="patch_43">
    <path clip-path="url(#pa62e97dcc9)" d="M 288.42625 151.091175 
L 297.477679 151.091175 
L 297.477679 146.681933 
L 288.42625 146.681933 
L 288.42625 151.091175 
z
" style="fill:#8c564b;opacity:0.65;stroke:#000000;stroke-linejoin:miter;"/>
   </g>
   <g id="line2d_119">
    <path clip-path="url(#pa62e97dcc9)" d="M 197.911964 193.976192 
L 206.963393 193.976192 
" style="fill:none;stroke:#808080;stroke-linecap:square;"/>
   </g>
   <g id="line2d_120">
    <path clip-path="url(#pa62e97dcc9)" d="M 216.014821 174.762498 
L 225.06625 174.762498 
" style="fill:none;stroke:#808080;stroke-linecap:square;"/>
   </g>
   <g id="line2d_121">
    <path clip-path="url(#pa62e97dcc9)" d="M 234.117679 164.651954 
L 243.169107 164.651954 
" style="fill:none;stroke:#808080;stroke-linecap:square;"/>
   </g>
   <g id="line2d_122">
    <path clip-path="url(#pa62e97dcc9)" d="M 252.220536 156.490599 
L 261.271964 156.490599 
" style="fill:none;stroke:#808080;stroke-linecap:square;"/>
   </g>
   <g id="line2d_123">
    <path clip-path="url(#pa62e97dcc9)" d="M 270.323393 152.856681 
L 279.374821 152.856681 
" style="fill:none;stroke:#808080;stroke-linecap:square;"/>
   </g>
   <g id="line2d_124">
    <path clip-path="url(#pa62e97dcc9)" d="M 288.42625 148.886554 
L 297.477679 148.886554 
" style="fill:none;stroke:#808080;stroke-linecap:square;"/>
   </g>
   <g id="patch_44">
    <path d="M 193.38625 247.669375 
L 193.38625 133.163351 
" style="fill:none;stroke:#000000;stroke-linecap:square;stroke-linejoin:miter;stroke-width:0.75;"/>
   </g>
   <g id="patch_45">
    <path d="M 320.10625 247.669375 
L 320.10625 133.163351 
" style="fill:none;stroke:#000000;stroke-linecap:square;stroke-linejoin:miter;stroke-width:0.75;"/>
   </g>
   <g id="patch_46">
    <path d="M 193.38625 247.669375 
L 320.10625 247.669375 
" style="fill:none;stroke:#000000;stroke-linecap:square;stroke-linejoin:miter;stroke-width:0.75;"/>
   </g>
   <g id="patch_47">
    <path d="M 193.38625 133.163351 
L 320.10625 133.163351 
" style="fill:none;stroke:#000000;stroke-linecap:square;stroke-linejoin:miter;stroke-width:0.75;"/>
   </g>
  </g>
 </g>
 <defs>
  <clipPath id="p3627219af1">
   <rect height="114.506024" width="126.72" x="34.98625" y="10.069375"/>
  </clipPath>
  <clipPath id="pbcb0bd1ef6">
   <rect height="114.506024" width="126.72" x="193.38625" y="10.069375"/>
  </clipPath>
  <clipPath id="p952d19d1ab">
   <rect height="114.506024" width="126.72" x="34.98625" y="133.163351"/>
  </clipPath>
  <clipPath id="pa62e97dcc9">
   <rect height="114.506024" width="126.72" x="193.38625" y="133.163351"/>
  </clipPath>
 </defs>
</svg>
