<?xml version="1.0" encoding="utf-8" standalone="no"?>
<!DOCTYPE svg PUBLIC "-//W3C//DTD SVG 1.1//EN"
  "http://www.w3.org/Graphics/SVG/1.1/DTD/svg11.dtd">
<!-- Created with matplotlib (https://matplotlib.org/) -->
<svg height="186.669009pt" version="1.1" viewBox="0 0 171.30375 186.669009" width="171.30375pt" xmlns="http://www.w3.org/2000/svg" xmlns:xlink="http://www.w3.org/1999/xlink">
 <defs>
  <style type="text/css">
*{stroke-linecap:butt;stroke-linejoin:round;}
  </style>
 </defs>
 <g id="figure_1">
  <g id="patch_1">
   <path d="M 0 186.669009 
L 171.30375 186.669009 
L 171.30375 -0 
L 0 -0 
z
" style="fill:#ffffff;"/>
  </g>
  <g id="axes_1">
   <g id="patch_2">
    <path d="M 34.50375 118.069375 
L 164.10375 118.069375 
L 164.10375 10.069375 
L 34.50375 10.069375 
z
" style="fill:#ffffff;"/>
   </g>
   <g id="patch_3">
    <path clip-path="url(#p1b08d0832f)" d="M 40.394659 118.069375 
L 49.457596 118.069375 
L 49.457596 107.913125 
L 40.394659 107.913125 
z
" style="fill:#1f77b4;opacity:0.65;stroke:#000000;stroke-linejoin:miter;stroke-width:0.75;"/>
   </g>
   <g id="patch_4">
    <path clip-path="url(#p1b08d0832f)" d="M 58.520533 118.069375 
L 67.58347 118.069375 
L 67.58347 117.027708 
L 58.520533 117.027708 
z
" style="fill:#ff7f0e;opacity:0.65;stroke:#000000;stroke-linejoin:miter;stroke-width:0.75;"/>
   </g>
   <g id="patch_5">
    <path clip-path="url(#p1b08d0832f)" d="M 76.646407 118.069375 
L 85.709344 118.069375 
L 85.709344 45.881875 
L 76.646407 45.881875 
z
" style="fill:#2ca02c;opacity:0.65;stroke:#000000;stroke-linejoin:miter;stroke-width:0.75;"/>
   </g>
   <g id="patch_6">
    <path clip-path="url(#p1b08d0832f)" d="M 94.772281 118.069375 
L 103.835219 118.069375 
L 103.835219 111.454792 
L 94.772281 111.454792 
z
" style="fill:#d62728;opacity:0.65;stroke:#000000;stroke-linejoin:miter;stroke-width:0.75;"/>
   </g>
   <g id="patch_7">
    <path clip-path="url(#p1b08d0832f)" d="M 112.898156 118.069375 
L 121.961093 118.069375 
L 121.961093 29.475625 
L 112.898156 29.475625 
z
" style="fill:#9467bd;opacity:0.65;stroke:#000000;stroke-linejoin:miter;stroke-width:0.75;"/>
   </g>
   <g id="patch_8">
    <path clip-path="url(#p1b08d0832f)" d="M 131.02403 118.069375 
L 140.086967 118.069375 
L 140.086967 118.017292 
L 131.02403 118.017292 
z
" style="fill:#8c564b;opacity:0.65;stroke:#000000;stroke-linejoin:miter;stroke-width:0.75;"/>
   </g>
   <g id="patch_9">
    <path clip-path="url(#p1b08d0832f)" d="M 149.149904 118.069375 
L 158.212841 118.069375 
L 158.212841 116.715208 
L 149.149904 116.715208 
z
" style="fill:#e377c2;opacity:0.65;stroke:#000000;stroke-linejoin:miter;stroke-width:0.75;"/>
   </g>
   <g id="matplotlib.axis_1">
    <g id="xtick_1">
     <g id="line2d_1">
      <defs>
       <path d="M 0 0 
L 0 3.5 
" id="mf57fa5d306" style="stroke:#000000;stroke-width:0.8;"/>
      </defs>
      <g>
       <use style="stroke:#000000;stroke-width:0.8;" x="44.926128" xlink:href="#mf57fa5d306" y="118.069375"/>
      </g>
     </g>
     <g id="text_1">
      <!-- O–Mn$_3$Li$_3$ -->
      <defs>
       <path d="M 38.578125 73.6875 
Q 57.5625 73.6875 66.703125 61.46875 
Q 73.828125 51.953125 73.828125 37.109375 
Q 73.828125 21.046875 65.671875 10.40625 
Q 56.109375 -2.09375 38.375 -2.09375 
Q 21.828125 -2.09375 12.359375 8.84375 
Q 3.90625 19.390625 3.90625 35.5 
Q 3.90625 50.046875 11.140625 60.40625 
Q 20.40625 73.6875 38.578125 73.6875 
z
M 39.546875 6.59375 
Q 52.390625 6.59375 58.125 15.796875 
Q 63.875 25 63.875 36.96875 
Q 63.875 49.609375 57.25 57.328125 
Q 50.640625 65.046875 39.15625 65.046875 
Q 28.03125 65.046875 21 57.390625 
Q 13.96875 49.75 13.96875 34.859375 
Q 13.96875 22.953125 20 14.765625 
Q 26.03125 6.59375 39.546875 6.59375 
z
M 38.875 73.6875 
z
" id="Helvetica-79"/>
       <path d="M -0.25 31.25 
L 55.765625 31.25 
L 55.765625 24.078125 
L -0.25 24.078125 
z
" id="Helvetica-8211"/>
       <path d="M 7.375 71.734375 
L 21.296875 71.734375 
L 41.890625 11.078125 
L 62.359375 71.734375 
L 76.125 71.734375 
L 76.125 0 
L 66.890625 0 
L 66.890625 42.328125 
Q 66.890625 44.53125 66.984375 49.609375 
Q 67.09375 54.6875 67.09375 60.5 
L 46.625 0 
L 37.015625 0 
L 16.40625 60.5 
L 16.40625 58.296875 
Q 16.40625 55.671875 16.53125 50.265625 
Q 16.65625 44.875 16.65625 42.328125 
L 16.65625 0 
L 7.375 0 
z
" id="Helvetica-77"/>
       <path d="M 6.453125 52.296875 
L 14.796875 52.296875 
L 14.796875 44.875 
Q 18.5 49.46875 22.65625 51.46875 
Q 26.8125 53.46875 31.890625 53.46875 
Q 43.015625 53.46875 46.921875 45.703125 
Q 49.078125 41.453125 49.078125 33.546875 
L 49.078125 0 
L 40.140625 0 
L 40.140625 32.953125 
Q 40.140625 37.75 38.71875 40.671875 
Q 36.375 45.5625 30.21875 45.5625 
Q 27.09375 45.5625 25.09375 44.921875 
Q 21.484375 43.84375 18.75 40.625 
Q 16.546875 38.03125 15.890625 35.265625 
Q 15.234375 32.515625 15.234375 27.390625 
L 15.234375 0 
L 6.453125 0 
z
M 27.09375 53.5625 
z
" id="Helvetica-110"/>
       <path d="M 25.984375 -1.90625 
Q 13.578125 -1.90625 7.984375 4.90625 
Q 2.390625 11.71875 2.390625 21.484375 
L 11.578125 21.484375 
Q 12.15625 14.703125 14.109375 11.625 
Q 17.53125 6.109375 26.46875 6.109375 
Q 33.40625 6.109375 37.59375 9.8125 
Q 41.796875 13.53125 41.796875 19.390625 
Q 41.796875 26.609375 37.375 29.484375 
Q 32.953125 32.375 25.09375 32.375 
Q 24.21875 32.375 23.3125 32.34375 
Q 22.40625 32.328125 21.484375 32.28125 
L 21.484375 40.046875 
Q 22.859375 39.890625 23.78125 39.84375 
Q 24.703125 39.796875 25.78125 39.796875 
Q 30.71875 39.796875 33.890625 41.359375 
Q 39.453125 44.09375 39.453125 51.125 
Q 39.453125 56.34375 35.734375 59.171875 
Q 32.03125 62.015625 27.09375 62.015625 
Q 18.3125 62.015625 14.9375 56.15625 
Q 13.09375 52.9375 12.84375 46.96875 
L 4.15625 46.96875 
Q 4.15625 54.78125 7.28125 60.25 
Q 12.640625 70.015625 26.171875 70.015625 
Q 36.859375 70.015625 42.71875 65.25 
Q 48.578125 60.5 48.578125 51.46875 
Q 48.578125 45.015625 45.125 41.015625 
Q 42.96875 38.53125 39.546875 37.109375 
Q 45.0625 35.59375 48.15625 31.265625 
Q 51.265625 26.953125 51.265625 20.703125 
Q 51.265625 10.6875 44.671875 4.390625 
Q 38.09375 -1.90625 25.984375 -1.90625 
z
" id="Helvetica-51"/>
       <path d="M 7.625 71.734375 
L 17.328125 71.734375 
L 17.328125 8.546875 
L 53.65625 8.546875 
L 53.65625 0 
L 7.625 0 
z
" id="Helvetica-76"/>
       <path d="M 6.453125 52.046875 
L 15.375 52.046875 
L 15.375 0 
L 6.453125 0 
z
M 6.453125 71.734375 
L 15.375 71.734375 
L 15.375 61.765625 
L 6.453125 61.765625 
z
" id="Helvetica-105"/>
      </defs>
      <g transform="translate(42.378586 160.246166)rotate(-75)scale(0.08 -0.08)">
       <use transform="translate(0 0.3125)" xlink:href="#Helvetica-79"/>
       <use transform="translate(77.783203 0.3125)" xlink:href="#Helvetica-8211"/>
       <use transform="translate(133.398438 0.3125)" xlink:href="#Helvetica-77"/>
       <use transform="translate(216.699219 0.3125)" xlink:href="#Helvetica-110"/>
       <use transform="translate(273.229648 -15.376563)scale(0.7)" xlink:href="#Helvetica-51"/>
       <use transform="translate(314.775156 0.3125)" xlink:href="#Helvetica-76"/>
       <use transform="translate(370.390391 0.3125)" xlink:href="#Helvetica-105"/>
       <use transform="translate(393.522383 -15.376563)scale(0.7)" xlink:href="#Helvetica-51"/>
      </g>
     </g>
    </g>
    <g id="xtick_2">
     <g id="line2d_2">
      <g>
       <use style="stroke:#000000;stroke-width:0.8;" x="63.052002" xlink:href="#mf57fa5d306" y="118.069375"/>
      </g>
     </g>
     <g id="text_2">
      <!-- O–Ni$_3$Li$_3$ -->
      <defs>
       <path d="M 7.625 71.734375 
L 19.09375 71.734375 
L 55.328125 13.625 
L 55.328125 71.734375 
L 64.546875 71.734375 
L 64.546875 0 
L 53.65625 0 
L 16.890625 58.0625 
L 16.890625 0 
L 7.625 0 
z
M 35.453125 71.734375 
z
" id="Helvetica-78"/>
      </defs>
      <g transform="translate(60.970335 156.768833)rotate(-75)scale(0.08 -0.08)">
       <use transform="translate(0 0.3125)" xlink:href="#Helvetica-79"/>
       <use transform="translate(77.783203 0.3125)" xlink:href="#Helvetica-8211"/>
       <use transform="translate(133.398438 0.3125)" xlink:href="#Helvetica-78"/>
       <use transform="translate(205.615234 0.3125)" xlink:href="#Helvetica-105"/>
       <use transform="translate(228.747227 -15.376563)scale(0.7)" xlink:href="#Helvetica-51"/>
       <use transform="translate(270.292734 0.3125)" xlink:href="#Helvetica-76"/>
       <use transform="translate(325.907969 0.3125)" xlink:href="#Helvetica-105"/>
       <use transform="translate(349.039961 -15.376563)scale(0.7)" xlink:href="#Helvetica-51"/>
      </g>
     </g>
    </g>
    <g id="xtick_3">
     <g id="line2d_3">
      <g>
       <use style="stroke:#000000;stroke-width:0.8;" x="81.177876" xlink:href="#mf57fa5d306" y="118.069375"/>
      </g>
     </g>
     <g id="text_3">
      <!-- O–Mn$_2$NiLi$_3$ -->
      <defs>
       <path d="M 3.125 0 
Q 3.609375 9.03125 6.859375 15.71875 
Q 10.109375 22.40625 19.53125 27.875 
L 28.90625 33.296875 
Q 35.203125 36.96875 37.75 39.546875 
Q 41.75 43.609375 41.75 48.828125 
Q 41.75 54.9375 38.078125 58.515625 
Q 34.421875 62.109375 28.328125 62.109375 
Q 19.28125 62.109375 15.828125 55.28125 
Q 13.96875 51.609375 13.765625 45.125 
L 4.828125 45.125 
Q 4.984375 54.25 8.203125 60.015625 
Q 13.921875 70.171875 28.375 70.171875 
Q 40.375 70.171875 45.921875 63.671875 
Q 51.46875 57.171875 51.46875 49.21875 
Q 51.46875 40.828125 45.5625 34.859375 
Q 42.140625 31.390625 33.296875 26.46875 
L 26.609375 22.75 
Q 21.828125 20.125 19.09375 17.71875 
Q 14.203125 13.484375 12.9375 8.296875 
L 51.125 8.296875 
L 51.125 0 
L 3.125 0 
z
" id="Helvetica-50"/>
      </defs>
      <g transform="translate(77.657175 167.509928)rotate(-75)scale(0.08 -0.08)">
       <use transform="translate(0 0.3125)" xlink:href="#Helvetica-79"/>
       <use transform="translate(77.783203 0.3125)" xlink:href="#Helvetica-8211"/>
       <use transform="translate(133.398438 0.3125)" xlink:href="#Helvetica-77"/>
       <use transform="translate(216.699219 0.3125)" xlink:href="#Helvetica-110"/>
       <use transform="translate(273.229648 -15.376563)scale(0.7)" xlink:href="#Helvetica-50"/>
       <use transform="translate(314.775156 0.3125)" xlink:href="#Helvetica-78"/>
       <use transform="translate(386.991953 0.3125)" xlink:href="#Helvetica-105"/>
       <use transform="translate(409.20875 0.3125)" xlink:href="#Helvetica-76"/>
       <use transform="translate(464.823984 0.3125)" xlink:href="#Helvetica-105"/>
       <use transform="translate(487.955977 -15.376563)scale(0.7)" xlink:href="#Helvetica-51"/>
      </g>
     </g>
    </g>
    <g id="xtick_4">
     <g id="line2d_4">
      <g>
       <use style="stroke:#000000;stroke-width:0.8;" x="99.30375" xlink:href="#mf57fa5d306" y="118.069375"/>
      </g>
     </g>
     <g id="text_4">
      <!-- O–Ni$_2$MnLi$_3$ -->
      <g transform="translate(95.783049 167.509928)rotate(-75)scale(0.08 -0.08)">
       <use transform="translate(0 0.3125)" xlink:href="#Helvetica-79"/>
       <use transform="translate(77.783203 0.3125)" xlink:href="#Helvetica-8211"/>
       <use transform="translate(133.398438 0.3125)" xlink:href="#Helvetica-78"/>
       <use transform="translate(205.615234 0.3125)" xlink:href="#Helvetica-105"/>
       <use transform="translate(228.747227 -15.376563)scale(0.7)" xlink:href="#Helvetica-50"/>
       <use transform="translate(270.292734 0.3125)" xlink:href="#Helvetica-77"/>
       <use transform="translate(353.593516 0.3125)" xlink:href="#Helvetica-110"/>
       <use transform="translate(409.20875 0.3125)" xlink:href="#Helvetica-76"/>
       <use transform="translate(464.823984 0.3125)" xlink:href="#Helvetica-105"/>
       <use transform="translate(487.955977 -15.376563)scale(0.7)" xlink:href="#Helvetica-51"/>
      </g>
     </g>
    </g>
    <g id="xtick_5">
     <g id="line2d_5">
      <g>
       <use style="stroke:#000000;stroke-width:0.8;" x="117.429624" xlink:href="#mf57fa5d306" y="118.069375"/>
      </g>
     </g>
     <g id="text_5">
      <!-- O–Mn$_2$Li$_4$ -->
      <defs>
       <path d="M 33.0625 24.75 
L 33.0625 56.453125 
L 10.640625 24.75 
z
M 33.203125 0 
L 33.203125 17.09375 
L 2.546875 17.09375 
L 2.546875 25.6875 
L 34.578125 70.125 
L 42 70.125 
L 42 24.75 
L 52.296875 24.75 
L 52.296875 17.09375 
L 42 17.09375 
L 42 0 
z
" id="Helvetica-52"/>
      </defs>
      <g transform="translate(114.882083 160.246166)rotate(-75)scale(0.08 -0.08)">
       <use transform="translate(0 0.3125)" xlink:href="#Helvetica-79"/>
       <use transform="translate(77.783203 0.3125)" xlink:href="#Helvetica-8211"/>
       <use transform="translate(133.398438 0.3125)" xlink:href="#Helvetica-77"/>
       <use transform="translate(216.699219 0.3125)" xlink:href="#Helvetica-110"/>
       <use transform="translate(273.229648 -15.376563)scale(0.7)" xlink:href="#Helvetica-50"/>
       <use transform="translate(314.775156 0.3125)" xlink:href="#Helvetica-76"/>
       <use transform="translate(370.390391 0.3125)" xlink:href="#Helvetica-105"/>
       <use transform="translate(393.522383 -15.376563)scale(0.7)" xlink:href="#Helvetica-52"/>
      </g>
     </g>
    </g>
    <g id="xtick_6">
     <g id="line2d_6">
      <g>
       <use style="stroke:#000000;stroke-width:0.8;" x="135.555498" xlink:href="#mf57fa5d306" y="118.069375"/>
      </g>
     </g>
     <g id="text_6">
      <!-- O–Ni$_2$Li$_4$ -->
      <g transform="translate(133.473831 156.768833)rotate(-75)scale(0.08 -0.08)">
       <use transform="translate(0 0.3125)" xlink:href="#Helvetica-79"/>
       <use transform="translate(77.783203 0.3125)" xlink:href="#Helvetica-8211"/>
       <use transform="translate(133.398438 0.3125)" xlink:href="#Helvetica-78"/>
       <use transform="translate(205.615234 0.3125)" xlink:href="#Helvetica-105"/>
       <use transform="translate(228.747227 -15.376563)scale(0.7)" xlink:href="#Helvetica-50"/>
       <use transform="translate(270.292734 0.3125)" xlink:href="#Helvetica-76"/>
       <use transform="translate(325.907969 0.3125)" xlink:href="#Helvetica-105"/>
       <use transform="translate(349.039961 -15.376563)scale(0.7)" xlink:href="#Helvetica-52"/>
      </g>
     </g>
    </g>
    <g id="xtick_7">
     <g id="line2d_7">
      <g>
       <use style="stroke:#000000;stroke-width:0.8;" x="153.681372" xlink:href="#mf57fa5d306" y="118.069375"/>
      </g>
     </g>
     <g id="text_7">
      <!-- O–MnNiLi$_4$ -->
      <g transform="translate(150.595487 164.264417)rotate(-75)scale(0.08 -0.08)">
       <use transform="translate(0 0.3125)" xlink:href="#Helvetica-79"/>
       <use transform="translate(77.783203 0.3125)" xlink:href="#Helvetica-8211"/>
       <use transform="translate(133.398438 0.3125)" xlink:href="#Helvetica-77"/>
       <use transform="translate(216.699219 0.3125)" xlink:href="#Helvetica-110"/>
       <use transform="translate(272.314453 0.3125)" xlink:href="#Helvetica-78"/>
       <use transform="translate(344.53125 0.3125)" xlink:href="#Helvetica-105"/>
       <use transform="translate(366.748047 0.3125)" xlink:href="#Helvetica-76"/>
       <use transform="translate(422.363281 0.3125)" xlink:href="#Helvetica-105"/>
       <use transform="translate(445.495273 -15.376563)scale(0.7)" xlink:href="#Helvetica-52"/>
      </g>
     </g>
    </g>
    <g id="text_8">
     <!-- O–{Mn,Ni,Li} sites -->
     <defs>
      <path d="M 19.09375 -0.25 
Q 19.09375 -7.765625 22.890625 -10.953125 
Q 26.703125 -14.15625 31.25 -14.703125 
L 31.25 -20.40625 
Q 22.5625 -19.53125 16.875 -15.296875 
Q 11.1875 -11.078125 11.1875 -1.421875 
L 11.1875 8.640625 
Q 11.1875 13.96875 9.515625 17.046875 
Q 6.5 22.65625 -2.09375 23.578125 
L -2.09375 29.15625 
Q 6.546875 30.171875 9.515625 35.546875 
Q 11.1875 38.53125 11.1875 44.09375 
L 11.1875 52.046875 
Q 11.1875 61.234375 15.15625 66.59375 
Q 19.140625 71.96875 31.25 73 
L 31.25 67.4375 
Q 23.390625 66.75 20.609375 60.5 
Q 19.09375 57.078125 19.09375 51.03125 
L 19.09375 45.5625 
Q 19.09375 38.234375 17.28125 34.328125 
Q 14.015625 27.25 4.59375 26.375 
Q 13.96875 25.53125 17.28125 18.171875 
Q 19.09375 14.109375 19.09375 7.125 
z
" id="Helvetica-123"/>
      <path d="M 8.296875 -10.203125 
Q 11.671875 -9.625 13.03125 -5.46875 
Q 13.765625 -3.265625 13.765625 -1.21875 
Q 13.765625 -0.875 13.734375 -0.609375 
Q 13.71875 -0.34375 13.625 0 
L 8.296875 0 
L 8.296875 10.640625 
L 18.75 10.640625 
L 18.75 0.78125 
Q 18.75 -5.03125 16.40625 -9.421875 
Q 14.0625 -13.8125 8.296875 -14.84375 
z
" id="Helvetica-44"/>
      <path d="M 28.65625 26.375 
Q 19.28125 27.25 16.015625 34.28125 
Q 14.203125 38.1875 14.203125 45.5625 
L 14.203125 51.03125 
Q 14.203125 57.46875 12.703125 60.796875 
Q 9.96875 66.75 2.046875 67.4375 
L 2.046875 73 
Q 14.65625 71.96875 19.140625 65.1875 
Q 22.078125 60.84375 22.078125 52.046875 
L 22.078125 44.09375 
Q 22.078125 38.625 23.734375 35.59375 
Q 26.765625 30.078125 35.40625 29.15625 
L 35.40625 23.578125 
Q 26.8125 22.703125 23.734375 17 
Q 22.078125 13.875 22.078125 8.640625 
L 22.078125 -1.421875 
Q 22.078125 -11.28125 16.375 -15.375 
Q 10.6875 -19.484375 2.046875 -20.40625 
L 2.046875 -14.703125 
Q 7.28125 -14.015625 10.734375 -10.515625 
Q 14.203125 -7.03125 14.203125 -0.25 
L 14.203125 7.125 
Q 14.203125 14.15625 16.015625 18.171875 
Q 19.34375 25.53125 28.65625 26.375 
z
" id="Helvetica-125"/>
      <path id="Helvetica-32"/>
      <path d="M 11.671875 16.40625 
Q 12.0625 12.015625 13.875 9.671875 
Q 17.1875 5.421875 25.390625 5.421875 
Q 30.28125 5.421875 33.984375 7.546875 
Q 37.703125 9.671875 37.703125 14.109375 
Q 37.703125 17.484375 34.71875 19.234375 
Q 32.8125 20.3125 27.203125 21.734375 
L 20.21875 23.484375 
Q 13.53125 25.140625 10.359375 27.203125 
Q 4.6875 30.765625 4.6875 37.0625 
Q 4.6875 44.484375 10.03125 49.0625 
Q 15.375 53.65625 24.421875 53.65625 
Q 36.234375 53.65625 41.453125 46.734375 
Q 44.734375 42.328125 44.625 37.25 
L 36.328125 37.25 
Q 36.078125 40.234375 34.234375 42.671875 
Q 31.203125 46.140625 23.734375 46.140625 
Q 18.75 46.140625 16.1875 44.234375 
Q 13.625 42.328125 13.625 39.203125 
Q 13.625 35.796875 17 33.734375 
Q 18.953125 32.515625 22.75 31.59375 
L 28.5625 30.171875 
Q 38.03125 27.875 41.265625 25.734375 
Q 46.390625 22.359375 46.390625 15.140625 
Q 46.390625 8.15625 41.09375 3.078125 
Q 35.796875 -2 24.953125 -2 
Q 13.28125 -2 8.421875 3.296875 
Q 3.5625 8.59375 3.21875 16.40625 
z
M 24.65625 53.5625 
z
" id="Helvetica-115"/>
      <path d="M 8.203125 66.890625 
L 17.09375 66.890625 
L 17.09375 52.296875 
L 25.4375 52.296875 
L 25.4375 45.125 
L 17.09375 45.125 
L 17.09375 10.984375 
Q 17.09375 8.25 18.953125 7.328125 
Q 19.96875 6.78125 22.359375 6.78125 
Q 23 6.78125 23.734375 6.8125 
Q 24.46875 6.84375 25.4375 6.9375 
L 25.4375 0 
Q 23.921875 -0.4375 22.28125 -0.625 
Q 20.65625 -0.828125 18.75 -0.828125 
Q 12.59375 -0.828125 10.390625 2.3125 
Q 8.203125 5.46875 8.203125 10.5 
L 8.203125 45.125 
L 1.125 45.125 
L 1.125 52.296875 
L 8.203125 52.296875 
z
" id="Helvetica-116"/>
      <path d="M 28.21875 53.46875 
Q 33.796875 53.46875 39.015625 50.859375 
Q 44.234375 48.25 46.96875 44.09375 
Q 49.609375 40.140625 50.484375 34.859375 
Q 51.265625 31.25 51.265625 23.34375 
L 12.9375 23.34375 
Q 13.1875 15.375 16.703125 10.5625 
Q 20.21875 5.765625 27.59375 5.765625 
Q 34.46875 5.765625 38.578125 10.296875 
Q 40.921875 12.9375 41.890625 16.40625 
L 50.53125 16.40625 
Q 50.203125 13.53125 48.265625 9.984375 
Q 46.34375 6.453125 43.953125 4.203125 
Q 39.9375 0.296875 34.03125 -1.078125 
Q 30.859375 -1.859375 26.859375 -1.859375 
Q 17.09375 -1.859375 10.296875 5.25 
Q 3.515625 12.359375 3.515625 25.140625 
Q 3.515625 37.75 10.34375 45.609375 
Q 17.1875 53.46875 28.21875 53.46875 
z
M 42.234375 30.328125 
Q 41.703125 36.03125 39.75 39.453125 
Q 36.140625 45.796875 27.6875 45.796875 
Q 21.625 45.796875 17.515625 41.421875 
Q 13.421875 37.0625 13.1875 30.328125 
z
M 27.390625 53.5625 
z
" id="Helvetica-101"/>
     </defs>
     <g transform="translate(67.290625 177.801509)scale(0.08 -0.08)">
      <use xlink:href="#Helvetica-79"/>
      <use x="77.783203" xlink:href="#Helvetica-8211"/>
      <use x="133.398438" xlink:href="#Helvetica-123"/>
      <use x="166.796875" xlink:href="#Helvetica-77"/>
      <use x="250.097656" xlink:href="#Helvetica-110"/>
      <use x="305.712891" xlink:href="#Helvetica-44"/>
      <use x="333.496094" xlink:href="#Helvetica-78"/>
      <use x="405.712891" xlink:href="#Helvetica-105"/>
      <use x="427.929688" xlink:href="#Helvetica-44"/>
      <use x="455.712891" xlink:href="#Helvetica-76"/>
      <use x="511.328125" xlink:href="#Helvetica-105"/>
      <use x="533.544922" xlink:href="#Helvetica-125"/>
      <use x="566.943359" xlink:href="#Helvetica-32"/>
      <use x="594.726562" xlink:href="#Helvetica-115"/>
      <use x="644.726562" xlink:href="#Helvetica-105"/>
      <use x="666.943359" xlink:href="#Helvetica-116"/>
      <use x="694.726562" xlink:href="#Helvetica-101"/>
      <use x="750.341797" xlink:href="#Helvetica-115"/>
     </g>
    </g>
   </g>
   <g id="matplotlib.axis_2">
    <g id="ytick_1">
     <g id="line2d_8">
      <defs>
       <path d="M 0 0 
L -3.5 0 
" id="m3c08831de5" style="stroke:#000000;stroke-width:0.8;"/>
      </defs>
      <g>
       <use style="stroke:#000000;stroke-width:0.8;" x="34.50375" xlink:href="#m3c08831de5" y="118.069375"/>
      </g>
     </g>
     <g id="text_9">
      <!-- 0 -->
      <defs>
       <path d="M 27.046875 69.921875 
Q 40.625 69.921875 46.6875 58.734375 
Q 51.375 50.09375 51.375 35.0625 
Q 51.375 20.796875 47.125 11.46875 
Q 40.96875 -1.90625 27 -1.90625 
Q 14.40625 -1.90625 8.25 9.03125 
Q 3.125 18.171875 3.125 33.546875 
Q 3.125 45.453125 6.203125 54 
Q 11.96875 69.921875 27.046875 69.921875 
z
M 26.953125 6.109375 
Q 33.796875 6.109375 37.84375 12.15625 
Q 41.890625 18.21875 41.890625 34.71875 
Q 41.890625 46.625 38.953125 54.3125 
Q 36.03125 62.015625 27.59375 62.015625 
Q 19.828125 62.015625 16.234375 54.703125 
Q 12.640625 47.40625 12.640625 33.203125 
Q 12.640625 22.515625 14.9375 16.015625 
Q 18.453125 6.109375 26.953125 6.109375 
z
" id="Helvetica-48"/>
      </defs>
      <g transform="translate(23.055 120.93875)scale(0.08 -0.08)">
       <use xlink:href="#Helvetica-48"/>
      </g>
     </g>
    </g>
    <g id="ytick_2">
     <g id="line2d_9">
      <g>
       <use style="stroke:#000000;stroke-width:0.8;" x="34.50375" xlink:href="#m3c08831de5" y="100.069375"/>
      </g>
     </g>
     <g id="text_10">
      <!-- 10 -->
      <defs>
       <path d="M 9.578125 49.515625 
L 9.578125 56.25 
Q 19.09375 57.171875 22.84375 59.34375 
Q 26.609375 61.53125 28.46875 69.625 
L 35.40625 69.625 
L 35.40625 0 
L 26.03125 0 
L 26.03125 49.515625 
z
" id="Helvetica-49"/>
      </defs>
      <g transform="translate(18.60625 102.93875)scale(0.08 -0.08)">
       <use xlink:href="#Helvetica-49"/>
       <use x="55.615234" xlink:href="#Helvetica-48"/>
      </g>
     </g>
    </g>
    <g id="ytick_3">
     <g id="line2d_10">
      <g>
       <use style="stroke:#000000;stroke-width:0.8;" x="34.50375" xlink:href="#m3c08831de5" y="82.069375"/>
      </g>
     </g>
     <g id="text_11">
      <!-- 20 -->
      <g transform="translate(18.60625 84.93875)scale(0.08 -0.08)">
       <use xlink:href="#Helvetica-50"/>
       <use x="55.615234" xlink:href="#Helvetica-48"/>
      </g>
     </g>
    </g>
    <g id="ytick_4">
     <g id="line2d_11">
      <g>
       <use style="stroke:#000000;stroke-width:0.8;" x="34.50375" xlink:href="#m3c08831de5" y="64.069375"/>
      </g>
     </g>
     <g id="text_12">
      <!-- 30 -->
      <g transform="translate(18.60625 66.93875)scale(0.08 -0.08)">
       <use xlink:href="#Helvetica-51"/>
       <use x="55.615234" xlink:href="#Helvetica-48"/>
      </g>
     </g>
    </g>
    <g id="ytick_5">
     <g id="line2d_12">
      <g>
       <use style="stroke:#000000;stroke-width:0.8;" x="34.50375" xlink:href="#m3c08831de5" y="46.069375"/>
      </g>
     </g>
     <g id="text_13">
      <!-- 40 -->
      <g transform="translate(18.60625 48.93875)scale(0.08 -0.08)">
       <use xlink:href="#Helvetica-52"/>
       <use x="55.615234" xlink:href="#Helvetica-48"/>
      </g>
     </g>
    </g>
    <g id="ytick_6">
     <g id="line2d_13">
      <g>
       <use style="stroke:#000000;stroke-width:0.8;" x="34.50375" xlink:href="#m3c08831de5" y="28.069375"/>
      </g>
     </g>
     <g id="text_14">
      <!-- 50 -->
      <defs>
       <path d="M 12.359375 17.828125 
Q 13.234375 10.296875 19.34375 7.421875 
Q 22.46875 5.953125 26.5625 5.953125 
Q 34.375 5.953125 38.125 10.9375 
Q 41.890625 15.921875 41.890625 21.96875 
Q 41.890625 29.296875 37.421875 33.296875 
Q 32.953125 37.3125 26.703125 37.3125 
Q 22.171875 37.3125 18.921875 35.546875 
Q 15.671875 33.796875 13.375 30.671875 
L 5.765625 31.109375 
L 11.078125 68.75 
L 47.40625 68.75 
L 47.40625 60.25 
L 17.671875 60.25 
L 14.703125 40.828125 
Q 17.140625 42.671875 19.34375 43.609375 
Q 23.25 45.21875 28.375 45.21875 
Q 37.984375 45.21875 44.671875 39.015625 
Q 51.375 32.8125 51.375 23.296875 
Q 51.375 13.375 45.234375 5.796875 
Q 39.109375 -1.765625 25.6875 -1.765625 
Q 17.140625 -1.765625 10.5625 3.046875 
Q 4 7.859375 3.21875 17.828125 
z
" id="Helvetica-53"/>
      </defs>
      <g transform="translate(18.60625 30.93875)scale(0.08 -0.08)">
       <use xlink:href="#Helvetica-53"/>
       <use x="55.615234" xlink:href="#Helvetica-48"/>
      </g>
     </g>
    </g>
    <g id="ytick_7">
     <g id="line2d_14">
      <g>
       <use style="stroke:#000000;stroke-width:0.8;" x="34.50375" xlink:href="#m3c08831de5" y="10.069375"/>
      </g>
     </g>
     <g id="text_15">
      <!-- 60 -->
      <defs>
       <path d="M 29.25 70.21875 
Q 40.96875 70.21875 45.578125 64.140625 
Q 50.203125 58.0625 50.203125 51.609375 
L 41.5 51.609375 
Q 40.71875 55.765625 39.015625 58.109375 
Q 35.84375 62.5 29.390625 62.5 
Q 22.015625 62.5 17.671875 55.6875 
Q 13.328125 48.875 12.84375 36.1875 
Q 15.875 40.625 20.453125 42.828125 
Q 24.65625 44.78125 29.828125 44.78125 
Q 38.625 44.78125 45.15625 39.15625 
Q 51.703125 33.546875 51.703125 22.40625 
Q 51.703125 12.890625 45.5 5.53125 
Q 39.3125 -1.8125 27.828125 -1.8125 
Q 18.015625 -1.8125 10.890625 5.640625 
Q 3.765625 13.09375 3.765625 30.71875 
Q 3.765625 43.75 6.9375 52.828125 
Q 13.03125 70.21875 29.25 70.21875 
z
M 28.609375 6 
Q 35.546875 6 38.984375 10.65625 
Q 42.4375 15.328125 42.4375 21.6875 
Q 42.4375 27.046875 39.359375 31.90625 
Q 36.28125 36.765625 28.171875 36.765625 
Q 22.515625 36.765625 18.234375 33 
Q 13.96875 29.25 13.96875 21.6875 
Q 13.96875 15.046875 17.84375 10.515625 
Q 21.734375 6 28.609375 6 
z
" id="Helvetica-54"/>
      </defs>
      <g transform="translate(18.60625 12.93875)scale(0.08 -0.08)">
       <use xlink:href="#Helvetica-54"/>
       <use x="55.615234" xlink:href="#Helvetica-48"/>
      </g>
     </g>
    </g>
    <g id="text_16">
     <!-- % sites -->
     <defs>
      <path d="M 68.171875 33.984375 
Q 75.203125 33.984375 80.171875 29 
Q 85.15625 24.03125 85.15625 17 
Q 85.15625 9.96875 80.171875 4.984375 
Q 75.203125 0 68.171875 0 
Q 61.078125 0 56.09375 4.984375 
Q 51.125 9.96875 51.125 17 
Q 51.125 24.03125 56.09375 29 
Q 61.078125 33.984375 68.171875 33.984375 
z
M 61.078125 69.625 
L 66.5 69.625 
L 27.390625 -1.859375 
L 21.96875 -1.859375 
z
M 20.21875 40.71875 
Q 24.421875 40.71875 27.375 43.671875 
Q 30.328125 46.625 30.328125 50.78125 
Q 30.328125 54.9375 27.375 57.890625 
Q 24.421875 60.84375 20.21875 60.84375 
Q 16.0625 60.84375 13.109375 57.90625 
Q 10.15625 54.984375 10.15625 50.78125 
Q 10.15625 46.625 13.109375 43.671875 
Q 16.0625 40.71875 20.21875 40.71875 
z
M 20.21875 67.828125 
Q 27.296875 67.828125 32.265625 62.8125 
Q 37.25 57.8125 37.25 50.78125 
Q 37.25 43.75 32.265625 38.765625 
Q 27.296875 33.796875 20.21875 33.796875 
Q 13.1875 33.796875 8.203125 38.765625 
Q 3.21875 43.75 3.21875 50.78125 
Q 3.21875 57.8125 8.203125 62.8125 
Q 13.1875 67.828125 20.21875 67.828125 
z
M 68.171875 6.9375 
Q 72.3125 6.9375 75.265625 9.890625 
Q 78.21875 12.84375 78.21875 17 
Q 78.21875 21.140625 75.265625 24.09375 
Q 72.3125 27.046875 68.171875 27.046875 
Q 63.96875 27.046875 61.015625 24.09375 
Q 58.0625 21.140625 58.0625 17 
Q 58.0625 12.84375 61.015625 9.890625 
Q 63.96875 6.9375 68.171875 6.9375 
z
" id="Helvetica-37"/>
     </defs>
     <g transform="translate(12.93875 76.961875)rotate(-90)scale(0.08 -0.08)">
      <use xlink:href="#Helvetica-37"/>
      <use x="88.916016" xlink:href="#Helvetica-32"/>
      <use x="116.699219" xlink:href="#Helvetica-115"/>
      <use x="166.699219" xlink:href="#Helvetica-105"/>
      <use x="188.916016" xlink:href="#Helvetica-116"/>
      <use x="216.699219" xlink:href="#Helvetica-101"/>
      <use x="272.314453" xlink:href="#Helvetica-115"/>
     </g>
    </g>
   </g>
   <g id="patch_10">
    <path d="M 34.50375 118.069375 
L 34.50375 10.069375 
" style="fill:none;stroke:#000000;stroke-linecap:square;stroke-linejoin:miter;stroke-width:0.75;"/>
   </g>
   <g id="patch_11">
    <path d="M 164.10375 118.069375 
L 164.10375 10.069375 
" style="fill:none;stroke:#000000;stroke-linecap:square;stroke-linejoin:miter;stroke-width:0.75;"/>
   </g>
   <g id="patch_12">
    <path d="M 34.50375 118.069375 
L 164.10375 118.069375 
" style="fill:none;stroke:#000000;stroke-linecap:square;stroke-linejoin:miter;stroke-width:0.75;"/>
   </g>
   <g id="patch_13">
    <path d="M 34.50375 10.069375 
L 164.10375 10.069375 
" style="fill:none;stroke:#000000;stroke-linecap:square;stroke-linejoin:miter;stroke-width:0.75;"/>
   </g>
  </g>
 </g>
 <defs>
  <clipPath id="p1b08d0832f">
   <rect height="108" width="129.6" x="34.50375" y="10.069375"/>
  </clipPath>
 </defs>
</svg>
